<svg width="1380" height="309" viewBox="0 0 1380 309" fill="none" xmlns="http://www.w3.org/2000/svg">
<path d="M1315.5 1H117.835C115.279 1 112.82 1.97876 110.963 3.73524L55.7731 55.9408C53.7763 57.8296 52.645 60.457 52.645 63.2056V297.996C52.645 303.519 57.1222 307.996 62.645 307.996H106.372C109.025 307.996 111.57 306.942 113.445 305.065L132.071 286.431C133.946 284.554 136.49 283.5 139.143 283.5H601.276C603.929 283.5 606.474 284.554 608.349 286.431L626.974 305.065C628.85 306.942 631.394 307.996 634.047 307.996H1271.28C1273.93 307.996 1276.47 306.942 1278.35 305.065L1322.57 260.819C1324.45 258.944 1325.5 256.401 1325.5 253.75V11C1325.5 5.47715 1321.02 1 1315.5 1Z" stroke="#2E65EF" stroke-width="1.5"/>
</svg>
