<svg width="1380" height="300" viewBox="0 0 1380 300" fill="none" xmlns="http://www.w3.org/2000/svg">
<path d="M1315.5 299.209L116.851 299.21C114.804 299.21 112.807 298.582 111.129 297.41L56.7753 259.485C54.0949 257.615 52.4976 254.552 52.4976 251.284L52.4999 36.1057C52.4999 30.5829 56.9771 26.1058 62.4999 26.1058L106.227 26.1058C108.88 26.1058 111.425 25.0516 113.3 23.1751L131.926 4.54043C133.801 2.66399 136.345 1.60973 138.998 1.60973L601.275 1.6097C603.928 1.6097 606.473 2.66395 608.348 4.54039L626.974 23.1751C628.849 25.0515 631.393 26.1058 634.046 26.1058L1271.79 26.1057C1274.13 26.1057 1276.41 26.9304 1278.2 28.4356L1321.92 65.0023C1324.19 66.9023 1325.5 69.7112 1325.5 72.6724L1325.5 289.209C1325.5 294.732 1321.02 299.209 1315.5 299.209Z" stroke="#2E65EF" stroke-width="1.5"/>
</svg>
