<svg width="222" height="48" viewBox="0 0 222 48" fill="none" xmlns="http://www.w3.org/2000/svg">
<path fill-rule="evenodd" clip-rule="evenodd" d="M0 17.9448V24.0368V30.1288L10.5518 24.0368L22.4108 17.1899V5L13.9676 9.87491L0 17.9389V17.9448Z" fill="#EF2E65"/>
<path fill-rule="evenodd" clip-rule="evenodd" d="M10.5518 24.0369L0 30.1289V30.1348L13.967 38.1988L22.4108 43.0737V30.8838L10.5518 24.0369Z" fill="white"/>
<path fill-rule="evenodd" clip-rule="evenodd" d="M38.4961 24.0362L26.6377 30.8825V43.073L35.0803 38.1981L49.0485 30.1335V30.1288V24.0368V17.9436L38.4961 24.0362Z" fill="#EF2E65"/>
<path fill-rule="evenodd" clip-rule="evenodd" d="M26.6375 17.1899L38.4959 24.0362L49.0482 17.9436V17.9389L35.0807 9.87491L26.6375 5V17.1899Z" fill="white"/>
<path d="M63.0879 16.3516C62.9355 16.3047 62.7891 16.252 62.6484 16.1934C62.5078 16.1348 62.373 16.0293 62.2441 15.877L62.0156 15.4551V8.93359C62.168 8.35938 62.4727 8.04883 62.9297 8.00195H73.5469C73.9688 7.9082 74.2441 7.79102 74.373 7.65039C74.5137 7.49805 74.6016 7.32812 74.6367 7.14062C74.6836 6.94141 74.6895 6.74805 74.6543 6.56055C74.5137 6.0332 74.1973 5.72266 73.7051 5.62891H62.9648L62.332 5.27734C62.1914 5.08984 62.0977 4.91406 62.0508 4.75C62.0039 4.57422 61.9922 4.375 62.0156 4.15234C62.2031 3.63672 62.502 3.33789 62.9121 3.25586H74.0391C74.4609 3.36133 74.8535 3.50781 75.2168 3.69531C75.5801 3.87109 75.9141 4.12891 76.2188 4.46875C76.5469 4.86719 76.7812 5.30664 76.9219 5.78711C77.0625 6.25586 77.0977 6.75977 77.0273 7.29883C76.957 7.60352 76.8633 7.89062 76.7461 8.16016C76.6289 8.41797 76.5469 8.57617 76.5 8.63477C76.7109 8.74023 76.9922 8.96289 77.3438 9.30273C77.6953 9.63086 77.9707 10.0117 78.1699 10.4453C78.2754 10.75 78.3516 11.0547 78.3984 11.3594C78.4453 11.6523 78.4688 11.957 78.4688 12.2734C78.4453 12.8477 78.3164 13.3867 78.082 13.8906C77.8477 14.3828 77.4961 14.8281 77.0273 15.2266C76.5703 15.5898 76.0664 15.8535 75.5156 16.0176C74.9766 16.1816 74.4316 16.293 73.8809 16.3516H63.0879ZM75.2871 13.5215C75.4277 13.4395 75.5625 13.3223 75.6914 13.1699C75.832 13.0059 75.9199 12.8594 75.9551 12.7305L76.043 11.6758C76.0312 11.5586 75.9785 11.4297 75.8848 11.2891C75.791 11.1484 75.6797 11.0195 75.5508 10.9023C75.3281 10.7383 75.082 10.6152 74.8125 10.5332C74.5547 10.4512 74.2793 10.3984 73.9863 10.375H64.3887V13.9434H74.0391C74.25 13.9199 74.4551 13.873 74.6543 13.8027C74.8535 13.7207 75.0645 13.627 75.2871 13.5215ZM96.7816 16.4395C96.6176 16.4043 96.4594 16.3574 96.307 16.2988C96.1547 16.252 96.0082 16.1582 95.8676 16.0176L93.7934 12.8359H85.6898L83.5277 16.123C82.7895 16.5566 82.2094 16.5098 81.7875 15.9824C81.6703 15.8301 81.6 15.6719 81.5766 15.5078C81.5414 15.332 81.5414 15.1328 81.5766 14.9102L83.9672 11.0957C84.1547 10.5918 84.5238 10.3867 85.0746 10.4805L92.2113 10.4629L88.7133 5.22461C88.4438 4.54492 88.5492 4.01758 89.0297 3.64258C89.5219 3.2207 90.0551 3.26172 90.6293 3.76562L97.8188 14.5234C98.0531 14.9336 98.059 15.373 97.8363 15.8418C97.5785 16.123 97.3793 16.2871 97.2387 16.334C97.1098 16.3809 96.9574 16.416 96.7816 16.4395ZM102.983 16.3516C102.643 16.3047 102.35 16.1465 102.104 15.877L101.876 15.4551V4.3457C101.993 3.49023 102.45 3.17969 103.247 3.41406L115.903 12.6953V4.39844L116.307 3.71289C116.6 3.50195 116.917 3.39648 117.257 3.39648C117.866 3.54883 118.223 3.92969 118.329 4.53906V15.2266C118.177 16.1992 117.638 16.5039 116.712 16.1406L104.249 6.98242V15.4375C104.12 15.7656 103.891 16.0352 103.563 16.2461L102.983 16.3516ZM123.88 16.3516C123.54 16.3047 123.247 16.1465 123.001 15.877L122.773 15.4551V4.31055C123.007 3.75977 123.423 3.45508 124.021 3.39648C124.396 3.43164 124.712 3.60742 124.97 3.92383L125.146 4.29297V15.4375C125.017 15.7656 124.788 16.0352 124.46 16.2461L123.88 16.3516ZM137.855 16.3516L126.587 10.3574C126.06 9.73633 126.095 9.15039 126.693 8.59961L138.083 3.39648C138.798 3.49023 139.179 3.90039 139.226 4.62695C139.261 5.00195 139.109 5.30664 138.769 5.54102L130.173 9.60156L139.068 14.541C139.349 15.1504 139.261 15.6602 138.804 16.0703C138.523 16.2578 138.206 16.3516 137.855 16.3516ZM144.267 16.3516C143.939 16.3047 143.652 16.1465 143.406 15.877L143.177 15.4551V4.31055C143.447 3.70117 143.869 3.39648 144.443 3.39648C144.806 3.43164 145.117 3.60742 145.375 3.92383L145.55 4.29297V13.9434H158.593C159.214 14.1074 159.56 14.5352 159.63 15.2266C159.478 15.8711 159.097 16.2461 158.488 16.3516H144.267ZM164.479 16.3516C164.326 16.3047 164.18 16.252 164.039 16.1934C163.898 16.1348 163.764 16.0293 163.635 15.877L163.406 15.4551V9.26758C163.559 8.74023 163.898 8.42383 164.426 8.31836H177.469L178.102 8.66992C178.23 8.85742 178.324 9.03906 178.383 9.21484C178.453 9.37891 178.459 9.58984 178.4 9.84766L178.119 10.375C177.979 10.4688 177.855 10.5449 177.75 10.6035C177.645 10.6504 177.51 10.6973 177.346 10.7441H165.779V13.9434H178.805C179.473 14.0488 179.824 14.4766 179.859 15.2266C179.742 15.8711 179.361 16.2461 178.717 16.3516H164.479ZM164.391 5.80469L163.723 5.48828C163.582 5.28906 163.488 5.10156 163.441 4.92578C163.395 4.75 163.383 4.5332 163.406 4.27539C163.652 3.77148 164.016 3.47852 164.496 3.39648H178.77C179.461 3.50195 179.824 3.92383 179.859 4.66211C179.824 4.83789 179.777 4.99023 179.719 5.11914C179.66 5.24805 179.561 5.38281 179.42 5.52344L178.857 5.80469H164.391ZM186.43 16.3516C185.504 16.2812 184.737 15.8945 184.127 15.1914C183.752 14.6758 183.518 14.0957 183.424 13.4512V12.7832C183.6 12.373 183.787 12.1035 183.987 11.9746C184.186 11.8457 184.479 11.8047 184.866 11.8516C185.475 12.0273 185.78 12.3086 185.78 12.6953C185.78 13.0703 185.838 13.3574 185.955 13.5566C186.084 13.7441 186.26 13.873 186.483 13.9434H196.08C196.502 13.8613 196.871 13.6621 197.188 13.3457C197.317 13.1465 197.405 12.918 197.452 12.6602V11.9922C197.428 11.6523 197.264 11.3535 196.959 11.0957C196.713 10.9082 196.438 10.791 196.133 10.7441H187.239C186.067 10.6855 185.047 10.2227 184.18 9.35547C183.77 8.83984 183.518 8.27148 183.424 7.65039V6.49023C183.553 5.66992 183.957 4.95508 184.637 4.3457C185.422 3.77148 186.284 3.45508 187.221 3.39648H196.696C197.598 3.45508 198.371 3.79492 199.016 4.41602C199.59 5.08398 199.877 5.88086 199.877 6.80664C199.842 7.13477 199.684 7.42188 199.403 7.66797C199.133 7.85547 198.787 7.9375 198.366 7.91406C197.967 7.72656 197.715 7.51562 197.61 7.28125C197.504 7.04688 197.44 6.77734 197.416 6.47266C197.393 6.15625 197.164 5.93359 196.731 5.80469H187.151C186.705 5.86328 186.33 6.05078 186.026 6.36719C185.873 6.61328 185.797 6.89453 185.797 7.21094C185.797 7.49219 185.914 7.72656 186.149 7.91406C186.442 8.13672 186.776 8.27148 187.151 8.31836H196.133C197.223 8.42383 198.184 8.91016 199.016 9.77734C199.532 10.4453 199.819 11.1953 199.877 12.0273V12.6426C199.819 13.7207 199.368 14.6465 198.524 15.4199C197.762 15.9824 196.918 16.293 195.993 16.3516H186.43ZM206.975 16.3516C206.05 16.2812 205.282 15.8945 204.673 15.1914C204.298 14.6758 204.063 14.0957 203.97 13.4512V12.7832C204.145 12.373 204.333 12.1035 204.532 11.9746C204.731 11.8457 205.024 11.8047 205.411 11.8516C206.02 12.0273 206.325 12.3086 206.325 12.6953C206.325 13.0703 206.384 13.3574 206.501 13.5566C206.63 13.7441 206.805 13.873 207.028 13.9434H216.626C217.048 13.8613 217.417 13.6621 217.733 13.3457C217.862 13.1465 217.95 12.918 217.997 12.6602V11.9922C217.973 11.6523 217.809 11.3535 217.505 11.0957C217.259 10.9082 216.983 10.791 216.679 10.7441H207.784C206.612 10.6855 205.593 10.2227 204.725 9.35547C204.315 8.83984 204.063 8.27148 203.97 7.65039V6.49023C204.098 5.66992 204.503 4.95508 205.182 4.3457C205.968 3.77148 206.829 3.45508 207.766 3.39648H217.241C218.143 3.45508 218.917 3.79492 219.561 4.41602C220.136 5.08398 220.423 5.88086 220.423 6.80664C220.387 7.13477 220.229 7.42188 219.948 7.66797C219.679 7.85547 219.333 7.9375 218.911 7.91406C218.512 7.72656 218.261 7.51562 218.155 7.28125C218.05 7.04688 217.985 6.77734 217.962 6.47266C217.938 6.15625 217.71 5.93359 217.276 5.80469H207.696C207.251 5.86328 206.876 6.05078 206.571 6.36719C206.419 6.61328 206.343 6.89453 206.343 7.21094C206.343 7.49219 206.46 7.72656 206.694 7.91406C206.987 8.13672 207.321 8.27148 207.696 8.31836H216.679C217.768 8.42383 218.729 8.91016 219.561 9.77734C220.077 10.4453 220.364 11.1953 220.423 12.0273V12.6426C220.364 13.7207 219.913 14.6465 219.069 15.4199C218.307 15.9824 217.464 16.293 216.538 16.3516H206.975ZM64.8105 40.3516C63.8848 40.2812 63.1172 39.8945 62.5078 39.1914C62.1328 38.6758 61.8984 38.0957 61.8047 37.4512V36.7832C61.9805 36.373 62.168 36.1035 62.3672 35.9746C62.5664 35.8457 62.8594 35.8047 63.2461 35.8516C63.8555 36.0273 64.1602 36.3086 64.1602 36.6953C64.1602 37.0703 64.2188 37.3574 64.3359 37.5566C64.4648 37.7441 64.6406 37.873 64.8633 37.9434H74.4609C74.8828 37.8613 75.252 37.6621 75.5684 37.3457C75.6973 37.1465 75.7852 36.918 75.832 36.6602V35.9922C75.8086 35.6523 75.6445 35.3535 75.3398 35.0957C75.0938 34.9082 74.8184 34.791 74.5137 34.7441H65.6191C64.4473 34.6855 63.4277 34.2227 62.5605 33.3555C62.1504 32.8398 61.8984 32.2715 61.8047 31.6504V30.4902C61.9336 29.6699 62.3379 28.9551 63.0176 28.3457C63.8027 27.7715 64.6641 27.4551 65.6016 27.3965H75.0762C75.9785 27.4551 76.752 27.7949 77.3965 28.416C77.9707 29.084 78.2578 29.8809 78.2578 30.8066C78.2227 31.1348 78.0645 31.4219 77.7832 31.668C77.5137 31.8555 77.168 31.9375 76.7461 31.9141C76.3477 31.7266 76.0957 31.5156 75.9902 31.2812C75.8848 31.0469 75.8203 30.7773 75.7969 30.4727C75.7734 30.1562 75.5449 29.9336 75.1113 29.8047H65.5312C65.0859 29.8633 64.7109 30.0508 64.4062 30.3672C64.2539 30.6133 64.1777 30.8945 64.1777 31.2109C64.1777 31.4922 64.2949 31.7266 64.5293 31.9141C64.8223 32.1367 65.1562 32.2715 65.5312 32.3184H74.5137C75.6035 32.4238 76.5645 32.9102 77.3965 33.7773C77.9121 34.4453 78.1992 35.1953 78.2578 36.0273V36.6426C78.1992 37.7207 77.748 38.6465 76.9043 39.4199C76.1426 39.9824 75.2988 40.293 74.373 40.3516H64.8105ZM89.9438 40.3516C89.6039 40.3047 89.3168 40.1465 89.0824 39.877L88.8363 39.4199V29.8047H82.8422C82.3617 29.6641 82.0277 29.3594 81.8402 28.8906V28.3105C82.0863 27.7363 82.4438 27.4316 82.9125 27.3965H97.1859C97.8656 27.5137 98.2289 27.9297 98.2758 28.6445C98.2406 28.9727 98.0941 29.2656 97.8363 29.5234L97.2738 29.8047H91.2094V39.4551L90.9281 39.9824C90.6234 40.2285 90.2953 40.3516 89.9438 40.3516ZM116.589 40.4395C116.425 40.4043 116.266 40.3574 116.114 40.2988C115.962 40.252 115.815 40.1582 115.675 40.0176L113.6 36.8359H105.497L103.335 40.123C102.596 40.5566 102.016 40.5098 101.595 39.9824C101.477 39.8301 101.407 39.6719 101.384 39.5078C101.348 39.332 101.348 39.1328 101.384 38.9102L103.774 35.0957C103.962 34.5918 104.331 34.3867 104.882 34.4805L112.018 34.4629L108.52 29.2246C108.251 28.5449 108.356 28.0176 108.837 27.6426C109.329 27.2207 109.862 27.2617 110.436 27.7656L117.626 38.5234C117.86 38.9336 117.866 39.373 117.643 39.8418C117.386 40.123 117.186 40.2871 117.046 40.334C116.917 40.3809 116.764 40.416 116.589 40.4395ZM125.163 40.3516C124.659 40.293 124.173 40.1816 123.704 40.0176C123.247 39.8535 122.831 39.584 122.456 39.209C122.187 38.9043 121.976 38.582 121.823 38.2422C121.683 37.8906 121.577 37.5215 121.507 37.1348V31.1406C121.601 30.6016 121.747 30.1035 121.946 29.6465C122.146 29.1895 122.445 28.7559 122.843 28.3457C123.171 28.041 123.529 27.8125 123.915 27.6602C124.314 27.5078 124.736 27.4199 125.181 27.3965H134.954C135.423 27.4551 135.868 27.5723 136.29 27.748C136.712 27.9121 137.093 28.1992 137.433 28.6094C137.714 28.9609 137.902 29.3418 137.995 29.752C138.101 30.1504 138.136 30.5781 138.101 31.0352C138.019 31.2227 137.919 31.3867 137.802 31.5273C137.685 31.6562 137.527 31.7676 137.327 31.8613L136.642 31.9141L136.062 31.5625C135.804 31.2578 135.681 30.959 135.693 30.666C135.716 30.373 135.652 30.168 135.499 30.0508L134.972 29.8047H125.198C125.058 29.8281 124.911 29.875 124.759 29.9453C124.618 30.0039 124.484 30.0977 124.355 30.2266C124.226 30.4141 124.12 30.6133 124.038 30.8242C123.956 31.0352 123.904 31.2461 123.88 31.457V36.6777C123.904 36.8301 123.939 36.9883 123.986 37.1523C124.044 37.3164 124.114 37.457 124.196 37.5742C124.325 37.6562 124.466 37.7324 124.618 37.8027C124.771 37.873 124.917 37.9199 125.058 37.9434H134.954L135.429 37.6621C135.499 37.5215 135.534 37.3105 135.534 37.0293C135.534 36.7363 135.657 36.4434 135.904 36.1504C136.079 36.0332 136.255 35.9453 136.431 35.8867C136.607 35.8281 136.823 35.8223 137.081 35.8691C137.234 35.9395 137.38 36.0273 137.521 36.1328C137.661 36.2266 137.779 36.3672 137.872 36.5547L137.96 37.3281C137.937 37.7852 137.831 38.2188 137.644 38.6289C137.456 39.0391 137.169 39.4023 136.782 39.7188C136.501 39.9062 136.214 40.0469 135.921 40.1406C135.628 40.2461 135.306 40.3164 134.954 40.3516H125.163ZM143.529 40.3516C143.189 40.3047 142.896 40.1465 142.65 39.877L142.421 39.4551V28.3105C142.656 27.7598 143.072 27.4551 143.67 27.3965C144.045 27.4316 144.361 27.6074 144.619 27.9238L144.795 28.293V39.4375C144.666 39.7656 144.437 40.0352 144.109 40.2461L143.529 40.3516ZM157.504 40.3516L146.236 34.3574C145.709 33.7363 145.744 33.1504 146.341 32.5996L157.732 27.3965C158.447 27.4902 158.828 27.9004 158.875 28.627C158.91 29.002 158.757 29.3066 158.418 29.541L149.822 33.6016L158.716 38.541C158.998 39.1504 158.91 39.6602 158.453 40.0703C158.171 40.2578 157.855 40.3516 157.504 40.3516Z" fill="white"/>
</svg>
