<svg width="1272" height="74" viewBox="0 0 1272 74" fill="none" xmlns="http://www.w3.org/2000/svg">
<path d="M1261.73 0.5H23.0839C20.4317 0.5 17.9464 1.55357 16.0711 3.42893L3.92893 15.5711C2.05357 17.4464 1 19.9898 1 22.6419V63.5011C1 69.0239 5.47712 73.5 11 73.5H1249.86C1252.51 73.5 1255.05 72.4464 1256.93 70.5711L1268.57 58.9289C1270.45 57.0536 1271.5 54.51 1271.5 51.8579V10.5C1271.5 4.97715 1267.25 0.5 1261.73 0.5Z" fill="#EF2E65" fill-opacity="0.5" stroke="#FFFCFC" stroke-width="0.5"/>
<path d="M460.369 46.4883C460.158 46.4232 459.954 46.3499 459.759 46.2686C459.563 46.1872 459.376 46.0407 459.197 45.8291L458.88 45.2432V36.1855C459.091 35.388 459.515 34.9567 460.149 34.8916H474.896C475.481 34.7614 475.864 34.5986 476.043 34.4033C476.238 34.1917 476.36 33.9557 476.409 33.6953C476.474 33.4186 476.482 33.1501 476.434 32.8896C476.238 32.1572 475.799 31.7259 475.115 31.5957H460.198L459.319 31.1074C459.124 30.847 458.994 30.6029 458.929 30.375C458.864 30.1309 458.847 29.8542 458.88 29.5449C459.14 28.8288 459.555 28.4137 460.125 28.2998H475.579C476.165 28.4463 476.71 28.6497 477.215 28.9102C477.719 29.1543 478.183 29.5124 478.606 29.9844C479.062 30.5378 479.388 31.1481 479.583 31.8154C479.778 32.4665 479.827 33.1663 479.729 33.915C479.632 34.3382 479.502 34.737 479.339 35.1113C479.176 35.4694 479.062 35.6891 478.997 35.7705C479.29 35.917 479.681 36.2262 480.169 36.6982C480.657 37.154 481.04 37.6829 481.316 38.2852C481.463 38.7083 481.569 39.1315 481.634 39.5547C481.699 39.9616 481.731 40.3848 481.731 40.8242C481.699 41.6217 481.52 42.3704 481.194 43.0703C480.869 43.7539 480.381 44.3724 479.729 44.9258C479.095 45.4303 478.395 45.7965 477.63 46.0244C476.881 46.2523 476.124 46.4069 475.359 46.4883H460.369ZM477.312 42.5576C477.508 42.4437 477.695 42.2809 477.874 42.0693C478.069 41.8415 478.191 41.638 478.24 41.459L478.362 39.9941C478.346 39.8314 478.273 39.6523 478.143 39.457C478.012 39.2617 477.858 39.0827 477.679 38.9199C477.369 38.6921 477.028 38.5212 476.653 38.4072C476.295 38.2933 475.913 38.2201 475.506 38.1875H462.176V43.1436H475.579C475.872 43.111 476.157 43.0459 476.434 42.9482C476.71 42.8343 477.003 42.7041 477.312 42.5576ZM507.166 46.6104C506.938 46.5615 506.718 46.4964 506.507 46.415C506.295 46.3499 506.092 46.2197 505.896 46.0244L503.016 41.6055H491.761L488.758 46.1709C487.732 46.7731 486.927 46.708 486.341 45.9756C486.178 45.764 486.08 45.5443 486.048 45.3164C485.999 45.0723 485.999 44.7956 486.048 44.4863L489.368 39.1885C489.629 38.4886 490.141 38.2038 490.906 38.334L500.818 38.3096L495.96 31.0342C495.586 30.0902 495.732 29.3577 496.399 28.8369C497.083 28.251 497.824 28.3079 498.621 29.0078L508.606 43.9492C508.932 44.5189 508.94 45.1292 508.631 45.7803C508.273 46.1709 507.996 46.3988 507.801 46.4639C507.622 46.529 507.41 46.5778 507.166 46.6104ZM515.779 46.4883C515.307 46.4232 514.9 46.2035 514.559 45.8291L514.241 45.2432V29.8135C514.404 28.6253 515.039 28.194 516.146 28.5195L533.724 41.4102V29.8867L534.285 28.9346C534.692 28.6416 535.132 28.4951 535.604 28.4951C536.45 28.7067 536.946 29.2357 537.093 30.082V44.9258C536.881 46.2767 536.132 46.6999 534.847 46.1953L517.537 33.4756V45.2188C517.358 45.6745 517.041 46.0488 516.585 46.3418L515.779 46.4883ZM544.803 46.4883C544.331 46.4232 543.924 46.2035 543.582 45.8291L543.265 45.2432V29.7646C543.59 28.9997 544.168 28.5765 544.998 28.4951C545.519 28.5439 545.958 28.7881 546.316 29.2275L546.561 29.7402V45.2188C546.382 45.6745 546.064 46.0488 545.608 46.3418L544.803 46.4883ZM564.212 46.4883L548.562 38.1631C547.83 37.3005 547.879 36.4867 548.709 35.7217L564.529 28.4951C565.522 28.6253 566.051 29.195 566.116 30.2041C566.165 30.7249 565.953 31.1481 565.481 31.4736L553.543 37.1133L565.896 43.9736C566.287 44.82 566.165 45.528 565.53 46.0977C565.14 46.3581 564.7 46.4883 564.212 46.4883ZM573.118 46.4883C572.662 46.4232 572.264 46.2035 571.922 45.8291L571.604 45.2432V29.7646C571.979 28.9183 572.565 28.4951 573.362 28.4951C573.867 28.5439 574.298 28.7881 574.656 29.2275L574.9 29.7402V43.1436H593.016C593.878 43.3714 594.358 43.9655 594.456 44.9258C594.244 45.821 593.715 46.3418 592.869 46.4883H573.118ZM601.189 46.4883C600.978 46.4232 600.774 46.3499 600.579 46.2686C600.384 46.1872 600.197 46.0407 600.018 45.8291L599.7 45.2432V36.6494C599.912 35.917 600.384 35.4775 601.116 35.3311H619.231L620.11 35.8193C620.289 36.0798 620.42 36.332 620.501 36.5762C620.599 36.804 620.607 37.097 620.525 37.4551L620.135 38.1875C619.939 38.3177 619.769 38.4235 619.622 38.5049C619.476 38.57 619.288 38.6351 619.061 38.7002H602.996V43.1436H621.087C622.015 43.29 622.503 43.8841 622.552 44.9258C622.389 45.821 621.86 46.3418 620.965 46.4883H601.189ZM601.067 31.8398L600.14 31.4004C599.944 31.1237 599.814 30.8633 599.749 30.6191C599.684 30.375 599.668 30.0739 599.7 29.7158C600.042 29.016 600.547 28.609 601.214 28.4951H621.038C621.998 28.6416 622.503 29.2275 622.552 30.2529C622.503 30.4971 622.438 30.7087 622.356 30.8877C622.275 31.0667 622.137 31.2539 621.941 31.4492L621.16 31.8398H601.067ZM631.678 46.4883C630.392 46.3906 629.326 45.8535 628.479 44.877C627.959 44.1608 627.633 43.3551 627.503 42.46V41.5322C627.747 40.9626 628.007 40.5882 628.284 40.4092C628.561 40.2301 628.968 40.1732 629.505 40.2383C630.351 40.4824 630.774 40.873 630.774 41.4102C630.774 41.931 630.856 42.3298 631.019 42.6064C631.198 42.8669 631.442 43.0459 631.751 43.1436H645.081C645.667 43.0296 646.18 42.7529 646.619 42.3135C646.798 42.0368 646.92 41.7194 646.985 41.3613V40.4336C646.953 39.9616 646.725 39.5465 646.302 39.1885C645.96 38.9281 645.577 38.7653 645.154 38.7002H632.801C631.173 38.6188 629.757 37.9759 628.553 36.7715C627.983 36.0553 627.633 35.266 627.503 34.4033V32.792C627.682 31.6527 628.243 30.6598 629.188 29.8135C630.278 29.016 631.474 28.5765 632.776 28.4951H645.936C647.189 28.5765 648.263 29.0485 649.158 29.9111C649.956 30.8389 650.354 31.9456 650.354 33.2314C650.306 33.6872 650.086 34.0859 649.695 34.4277C649.321 34.6882 648.841 34.8021 648.255 34.7695C647.701 34.5091 647.352 34.2161 647.205 33.8906C647.059 33.5651 646.969 33.1908 646.937 32.7676C646.904 32.3281 646.587 32.0189 645.984 31.8398H632.679C632.06 31.9212 631.539 32.1816 631.116 32.6211C630.905 32.9629 630.799 33.3535 630.799 33.793C630.799 34.1836 630.962 34.5091 631.287 34.7695C631.694 35.0788 632.158 35.266 632.679 35.3311H645.154C646.668 35.4775 648.003 36.153 649.158 37.3574C649.874 38.2852 650.273 39.3268 650.354 40.4824V41.3369C650.273 42.8343 649.646 44.1201 648.475 45.1943C647.417 45.9756 646.245 46.4069 644.959 46.4883H631.678ZM660.213 46.4883C658.927 46.3906 657.861 45.8535 657.015 44.877C656.494 44.1608 656.168 43.3551 656.038 42.46V41.5322C656.282 40.9626 656.543 40.5882 656.819 40.4092C657.096 40.2301 657.503 40.1732 658.04 40.2383C658.886 40.4824 659.31 40.873 659.31 41.4102C659.31 41.931 659.391 42.3298 659.554 42.6064C659.733 42.8669 659.977 43.0459 660.286 43.1436H673.616C674.202 43.0296 674.715 42.7529 675.154 42.3135C675.333 42.0368 675.455 41.7194 675.521 41.3613V40.4336C675.488 39.9616 675.26 39.5465 674.837 39.1885C674.495 38.9281 674.113 38.7653 673.689 38.7002H661.336C659.708 38.6188 658.292 37.9759 657.088 36.7715C656.518 36.0553 656.168 35.266 656.038 34.4033V32.792C656.217 31.6527 656.779 30.6598 657.723 29.8135C658.813 29.016 660.009 28.5765 661.312 28.4951H674.471C675.724 28.5765 676.798 29.0485 677.693 29.9111C678.491 30.8389 678.89 31.9456 678.89 33.2314C678.841 33.6872 678.621 34.0859 678.23 34.4277C677.856 34.6882 677.376 34.8021 676.79 34.7695C676.237 34.5091 675.887 34.2161 675.74 33.8906C675.594 33.5651 675.504 33.1908 675.472 32.7676C675.439 32.3281 675.122 32.0189 674.52 31.8398H661.214C660.595 31.9212 660.075 32.1816 659.651 32.6211C659.44 32.9629 659.334 33.3535 659.334 33.793C659.334 34.1836 659.497 34.5091 659.822 34.7695C660.229 35.0788 660.693 35.266 661.214 35.3311H673.689C675.203 35.4775 676.538 36.153 677.693 37.3574C678.41 38.2852 678.808 39.3268 678.89 40.4824V41.3369C678.808 42.8343 678.182 44.1201 677.01 45.1943C675.952 45.9756 674.78 46.4069 673.494 46.4883H660.213ZM710.862 46.4883C710.407 46.4232 710.008 46.2035 709.666 45.8291L709.349 45.2432V29.7646C709.723 28.9183 710.309 28.4951 711.106 28.4951C711.611 28.5439 712.042 28.7881 712.4 29.2275L712.645 29.7402V43.1436H730.76C731.622 43.3714 732.103 43.9655 732.2 44.9258C731.989 45.821 731.46 46.3418 730.613 46.4883H710.862ZM757.635 46.6104C757.407 46.5615 757.187 46.4964 756.976 46.415C756.764 46.3499 756.561 46.2197 756.365 46.0244L753.484 41.6055H742.229L739.227 46.1709C738.201 46.7731 737.396 46.708 736.81 45.9756C736.647 45.764 736.549 45.5443 736.517 45.3164C736.468 45.0723 736.468 44.7956 736.517 44.4863L739.837 39.1885C740.097 38.4886 740.61 38.2038 741.375 38.334L751.287 38.3096L746.429 31.0342C746.054 30.0902 746.201 29.3577 746.868 28.8369C747.552 28.251 748.292 28.3079 749.09 29.0078L759.075 43.9492C759.401 44.5189 759.409 45.1292 759.1 45.7803C758.742 46.1709 758.465 46.3988 758.27 46.4639C758.09 46.529 757.879 46.5778 757.635 46.6104ZM766.248 46.4883C766.036 46.4232 765.833 46.3499 765.638 46.2686C765.442 46.1872 765.255 46.0407 765.076 45.8291L764.759 45.2432V36.1855C764.97 35.388 765.394 34.9567 766.028 34.8916H780.774C781.36 34.7614 781.743 34.5986 781.922 34.4033C782.117 34.1917 782.239 33.9557 782.288 33.6953C782.353 33.4186 782.361 33.1501 782.312 32.8896C782.117 32.1572 781.678 31.7259 780.994 31.5957H766.077L765.198 31.1074C765.003 30.847 764.873 30.6029 764.808 30.375C764.743 30.1309 764.726 29.8542 764.759 29.5449C765.019 28.8288 765.434 28.4137 766.004 28.2998H781.458C782.044 28.4463 782.589 28.6497 783.094 28.9102C783.598 29.1543 784.062 29.5124 784.485 29.9844C784.941 30.5378 785.267 31.1481 785.462 31.8154C785.657 32.4665 785.706 33.1663 785.608 33.915C785.511 34.3382 785.381 34.737 785.218 35.1113C785.055 35.4694 784.941 35.6891 784.876 35.7705C785.169 35.917 785.56 36.2262 786.048 36.6982C786.536 37.154 786.919 37.6829 787.195 38.2852C787.342 38.7083 787.448 39.1315 787.513 39.5547C787.578 39.9616 787.61 40.3848 787.61 40.8242C787.578 41.6217 787.399 42.3704 787.073 43.0703C786.748 43.7539 786.259 44.3724 785.608 44.9258C784.974 45.4303 784.274 45.7965 783.509 46.0244C782.76 46.2523 782.003 46.4069 781.238 46.4883H766.248ZM783.191 42.5576C783.387 42.4437 783.574 42.2809 783.753 42.0693C783.948 41.8415 784.07 41.638 784.119 41.459L784.241 39.9941C784.225 39.8314 784.152 39.6523 784.021 39.457C783.891 39.2617 783.737 39.0827 783.558 38.9199C783.248 38.6921 782.907 38.5212 782.532 38.4072C782.174 38.2933 781.792 38.2201 781.385 38.1875H768.055V43.1436H781.458C781.751 43.111 782.036 43.0459 782.312 42.9482C782.589 42.8343 782.882 42.7041 783.191 42.5576ZM796.736 46.4883C795.451 46.3906 794.384 45.8535 793.538 44.877C793.017 44.1608 792.692 43.3551 792.562 42.46V41.5322C792.806 40.9626 793.066 40.5882 793.343 40.4092C793.619 40.2301 794.026 40.1732 794.563 40.2383C795.41 40.4824 795.833 40.873 795.833 41.4102C795.833 41.931 795.914 42.3298 796.077 42.6064C796.256 42.8669 796.5 43.0459 796.81 43.1436H810.14C810.726 43.0296 811.238 42.7529 811.678 42.3135C811.857 42.0368 811.979 41.7194 812.044 41.3613V40.4336C812.011 39.9616 811.784 39.5465 811.36 39.1885C811.019 38.9281 810.636 38.7653 810.213 38.7002H797.859C796.232 38.6188 794.816 37.9759 793.611 36.7715C793.042 36.0553 792.692 35.266 792.562 34.4033V32.792C792.741 31.6527 793.302 30.6598 794.246 29.8135C795.337 29.016 796.533 28.5765 797.835 28.4951H810.994C812.247 28.5765 813.322 29.0485 814.217 29.9111C815.014 30.8389 815.413 31.9456 815.413 33.2314C815.364 33.6872 815.145 34.0859 814.754 34.4277C814.38 34.6882 813.899 34.8021 813.313 34.7695C812.76 34.5091 812.41 34.2161 812.264 33.8906C812.117 33.5651 812.028 33.1908 811.995 32.7676C811.963 32.3281 811.645 32.0189 811.043 31.8398H797.737C797.119 31.9212 796.598 32.1816 796.175 32.6211C795.963 32.9629 795.857 33.3535 795.857 33.793C795.857 34.1836 796.02 34.5091 796.346 34.7695C796.753 35.0788 797.216 35.266 797.737 35.3311H810.213C811.727 35.4775 813.061 36.153 814.217 37.3574C814.933 38.2852 815.332 39.3268 815.413 40.4824V41.3369C815.332 42.8343 814.705 44.1201 813.533 45.1943C812.475 45.9756 811.303 46.4069 810.018 46.4883H796.736Z" fill="white"/>
<path d="M1111.64 44.4043L1111.04 44C1110.95 43.918 1110.89 43.8125 1110.85 43.6836C1110.8 43.543 1110.78 43.4199 1110.78 43.3145C1110.78 43.209 1110.78 43.0801 1110.78 42.9277L1112.93 39.4648L1113.47 39.1484H1119.13L1116.44 35.2285C1116.27 34.584 1116.38 34.1035 1116.79 33.7871C1116.88 33.7051 1116.98 33.6406 1117.11 33.5938C1117.24 33.5469 1117.36 33.5234 1117.46 33.5234C1117.57 33.5234 1117.67 33.5176 1117.78 33.5059C1117.89 33.4824 1118.17 33.6289 1118.6 33.9453L1124.46 42.9102C1124.38 43.5898 1124.26 43.9941 1124.11 44.123C1123.96 44.252 1123.82 44.3281 1123.68 44.3516C1123.55 44.3867 1123.43 44.4043 1123.3 44.4043C1123.18 44.4043 1123.04 44.4043 1122.89 44.4043L1122.26 44L1120.73 41.5391H1114.4L1112.79 44.0703C1112.66 44.1641 1112.54 44.2402 1112.43 44.2988C1112.34 44.3691 1112.22 44.4043 1112.08 44.4043C1111.94 44.4043 1111.79 44.4043 1111.64 44.4043ZM1131.1 44.3516C1130.83 44.3164 1130.56 44.2578 1130.29 44.1758C1130.02 44.0938 1129.76 43.9883 1129.5 43.8594C1129.25 43.7305 1129.02 43.5605 1128.81 43.3496C1128.67 43.1738 1128.54 42.998 1128.43 42.8223C1128.31 42.6348 1128.22 42.4414 1128.14 42.2422C1128.07 42.0312 1128.03 41.8145 1128 41.5918V36.6523C1128.07 36.3594 1128.16 36.0664 1128.25 35.7734C1128.34 35.4688 1128.47 35.1816 1128.64 34.9121C1128.81 34.6426 1129.04 34.4023 1129.32 34.1914C1129.5 34.0859 1129.66 33.9922 1129.8 33.9102C1129.94 33.8281 1130.1 33.7578 1130.27 33.6992C1130.46 33.6289 1130.65 33.5703 1130.85 33.5234H1139.27C1139.49 33.5703 1139.71 33.6348 1139.92 33.7168C1140.14 33.7988 1140.35 33.9043 1140.54 34.0332C1140.73 34.1504 1140.91 34.291 1141.08 34.4551C1141.27 34.666 1141.41 34.8828 1141.5 35.1055C1141.61 35.3281 1141.69 35.5684 1141.73 35.8262C1141.78 36.084 1141.79 36.3711 1141.77 36.6875L1141.36 37.2852C1141.27 37.3906 1141.16 37.4668 1141.03 37.5137C1140.9 37.5605 1140.77 37.584 1140.64 37.584C1140.53 37.584 1140.4 37.584 1140.27 37.584C1139.92 37.4434 1139.69 37.291 1139.57 37.127C1139.45 36.9629 1139.39 36.7988 1139.39 36.6348C1139.39 36.4707 1139.39 36.3477 1139.38 36.2656C1139.37 36.1719 1139.33 36.0957 1139.27 36.0371C1139.23 35.9785 1139.12 35.9375 1138.96 35.9141H1131.29C1131.21 35.9375 1131.13 35.9551 1131.05 35.9668C1130.98 35.9785 1130.91 36.0078 1130.85 36.0547C1130.79 36.0898 1130.75 36.1309 1130.71 36.1777C1130.65 36.2715 1130.6 36.3594 1130.55 36.4414C1130.52 36.5234 1130.48 36.6172 1130.45 36.7227C1130.42 36.8164 1130.4 36.9102 1130.38 37.0039V41.1523L1130.62 41.75C1130.64 41.7617 1130.66 41.7852 1130.71 41.8203C1130.77 41.8555 1130.83 41.8789 1130.89 41.8906C1130.96 41.9023 1131.03 41.9199 1131.1 41.9434H1139.01C1139.11 41.8965 1139.17 41.832 1139.18 41.75C1139.2 41.668 1139.21 41.5566 1139.22 41.416C1139.24 41.2637 1139.28 41.1055 1139.34 40.9414C1139.41 40.7773 1139.52 40.6426 1139.68 40.5371C1139.76 40.4434 1139.86 40.3789 1139.98 40.3438C1140.1 40.2969 1140.22 40.2734 1140.33 40.2734C1140.44 40.2734 1140.57 40.2734 1140.71 40.2734L1141.29 40.6074C1141.45 40.7598 1141.54 40.918 1141.57 41.082C1141.61 41.2344 1141.63 41.3867 1141.63 41.5391C1141.63 41.6914 1141.63 41.832 1141.63 41.9609C1141.58 42.1836 1141.52 42.3828 1141.45 42.5586C1141.39 42.7344 1141.31 42.9043 1141.21 43.0684C1141.11 43.2324 1140.99 43.4023 1140.84 43.5781C1140.66 43.7305 1140.48 43.8652 1140.29 43.9824C1140.1 44.0879 1139.9 44.1641 1139.68 44.2109C1139.45 44.2695 1139.25 44.3164 1139.06 44.3516H1131.1ZM1152.05 44.3516C1151.94 44.3164 1151.84 44.2871 1151.73 44.2637C1151.64 44.252 1151.54 44.1934 1151.43 44.0879C1151.34 43.9941 1151.26 43.9062 1151.19 43.8242L1150.99 43.4551V35.9141H1146.25L1145.65 35.5098C1145.56 35.416 1145.49 35.3047 1145.46 35.1758C1145.41 35.0352 1145.39 34.9121 1145.39 34.8066C1145.39 34.7012 1145.39 34.5898 1145.39 34.4727C1145.54 33.9219 1145.85 33.6055 1146.32 33.5234H1158.06C1158.54 33.7109 1158.82 33.916 1158.89 34.1387C1158.96 34.3496 1158.99 34.5137 1158.99 34.6309C1158.99 34.7363 1158.99 34.8535 1158.99 34.9824C1158.84 35.4512 1158.53 35.7617 1158.06 35.9141H1153.37V43.3848C1153.23 44.0176 1152.79 44.3398 1152.05 44.3516ZM1164.09 44.3516C1163.5 44.3398 1163.11 44.0352 1162.91 43.4375V34.4551C1163.05 34.0215 1163.24 33.7578 1163.47 33.6641C1163.7 33.5703 1163.87 33.5234 1163.98 33.5234C1164.1 33.5234 1164.21 33.5234 1164.33 33.5234C1164.92 33.6992 1165.23 34.0215 1165.28 34.4902V43.4199C1165.1 44.0059 1164.71 44.3164 1164.09 44.3516ZM1175.91 44.3516C1175.81 44.3164 1175.7 44.2871 1175.6 44.2637C1175.5 44.252 1175.4 44.1934 1175.3 44.0879C1175.2 43.9824 1175.09 43.8418 1174.94 43.666L1169.37 35.2988C1169.14 34.5723 1169.28 34.0273 1169.79 33.6641C1170.03 33.5703 1170.28 33.5176 1170.53 33.5059C1170.79 33.4941 1171.07 33.6465 1171.36 33.9629L1176.07 40.9238L1180.53 34.209C1181.05 33.4238 1181.71 33.2891 1182.5 33.8047C1182.96 34.3555 1183.01 34.8887 1182.64 35.4043L1177.12 43.7012C1176.78 44.1465 1176.38 44.3633 1175.91 44.3516ZM1187.65 44.3516C1187.58 44.3047 1187.49 44.2754 1187.39 44.2637C1187.28 44.252 1187.18 44.2051 1187.09 44.123C1187.01 44.041 1186.92 43.9648 1186.84 43.8945L1186.61 43.4551V38.375C1186.79 37.7539 1187.16 37.4434 1187.72 37.4434H1198.06C1198.13 37.4785 1198.21 37.5078 1198.32 37.5312C1198.44 37.543 1198.54 37.5898 1198.64 37.6719C1198.73 37.7539 1198.81 37.8301 1198.87 37.9004C1198.96 37.9941 1199.02 38.0938 1199.04 38.1992C1199.06 38.3047 1199.08 38.4102 1199.09 38.5156C1199.11 38.6211 1199.11 38.7441 1199.11 38.8848C1198.94 39.4121 1198.59 39.7344 1198.07 39.8516H1188.99V41.9434H1199.25C1199.6 42.0605 1199.81 42.1777 1199.88 42.2949C1199.97 42.4004 1200.03 42.5117 1200.08 42.6289C1200.14 42.7344 1200.18 42.8457 1200.2 42.9629C1200.22 43.0801 1200.24 43.2207 1200.24 43.3848C1200.06 43.9238 1199.7 44.2461 1199.15 44.3516H1187.65ZM1187.49 35.9141L1186.89 35.5098C1186.79 35.416 1186.71 35.3047 1186.67 35.1758C1186.63 35.0352 1186.61 34.9121 1186.61 34.8066C1186.61 34.7012 1186.61 34.5898 1186.61 34.4727C1186.77 33.9219 1187.08 33.6055 1187.56 33.5234H1199.3C1199.68 33.6875 1199.91 33.8281 1199.99 33.9453C1200.07 34.0508 1200.13 34.168 1200.17 34.2969C1200.21 34.4141 1200.24 34.5254 1200.24 34.6309C1200.24 34.7363 1200.24 34.8535 1200.24 34.9824C1200.08 35.4512 1199.77 35.7617 1199.3 35.9141H1187.49Z" fill="#23FF61"/>
</svg>
