<svg width="1272" height="75" viewBox="0 0 1272 75" fill="none" xmlns="http://www.w3.org/2000/svg">
<path d="M1261.73 74H23.0839C20.4317 74 17.9464 72.9464 16.0711 71.0711L3.92893 58.9289C2.05357 57.0536 1 54.5102 1 51.8581V10.9989C1 5.47609 5.47712 1 11 1H1249.86C1252.51 1 1255.05 2.05357 1256.93 3.92893L1268.57 15.5711C1270.45 17.4464 1271.5 19.99 1271.5 22.6421V64C1271.5 69.5228 1267.25 74 1261.73 74Z" fill="#EF2E65" fill-opacity="0.5" stroke="#FFFCFC" stroke-width="0.5"/>
<path d="M458.527 44.4883C458.315 44.4232 458.112 44.3499 457.917 44.2686C457.721 44.1872 457.534 44.0407 457.355 43.8291L457.038 43.2432V34.1855C457.249 33.388 457.672 32.9567 458.307 32.8916H473.053C473.639 32.7614 474.022 32.5986 474.201 32.4033C474.396 32.1917 474.518 31.9557 474.567 31.6953C474.632 31.4186 474.64 31.1501 474.591 30.8896C474.396 30.1572 473.957 29.7259 473.273 29.5957H458.356L457.477 29.1074C457.282 28.847 457.152 28.6029 457.086 28.375C457.021 28.1309 457.005 27.8542 457.038 27.5449C457.298 26.8288 457.713 26.4137 458.283 26.2998H473.737C474.323 26.4463 474.868 26.6497 475.373 26.9102C475.877 27.1543 476.341 27.5124 476.764 27.9844C477.22 28.5378 477.545 29.1481 477.741 29.8154C477.936 30.4665 477.985 31.1663 477.887 31.915C477.79 32.3382 477.659 32.737 477.497 33.1113C477.334 33.4694 477.22 33.6891 477.155 33.7705C477.448 33.917 477.838 34.2262 478.327 34.6982C478.815 35.154 479.197 35.6829 479.474 36.2852C479.621 36.7083 479.726 37.1315 479.792 37.5547C479.857 37.9616 479.889 38.3848 479.889 38.8242C479.857 39.6217 479.678 40.3704 479.352 41.0703C479.027 41.7539 478.538 42.3724 477.887 42.9258C477.252 43.4303 476.553 43.7965 475.788 44.0244C475.039 44.2523 474.282 44.4069 473.517 44.4883H458.527ZM475.47 40.5576C475.666 40.4437 475.853 40.2809 476.032 40.0693C476.227 39.8415 476.349 39.638 476.398 39.459L476.52 37.9941C476.504 37.8314 476.431 37.6523 476.3 37.457C476.17 37.2617 476.015 37.0827 475.836 36.9199C475.527 36.6921 475.185 36.5212 474.811 36.4072C474.453 36.2933 474.07 36.2201 473.664 36.1875H460.333V41.1436H473.737C474.03 41.111 474.315 41.0459 474.591 40.9482C474.868 40.8343 475.161 40.7041 475.47 40.5576ZM505.324 44.6104C505.096 44.5615 504.876 44.4964 504.665 44.415C504.453 44.3499 504.25 44.2197 504.054 44.0244L501.173 39.6055H489.918L486.916 44.1709C485.89 44.7731 485.084 44.708 484.499 43.9756C484.336 43.764 484.238 43.5443 484.206 43.3164C484.157 43.0723 484.157 42.7956 484.206 42.4863L487.526 37.1885C487.786 36.4886 488.299 36.2038 489.064 36.334L498.976 36.3096L494.118 29.0342C493.743 28.0902 493.89 27.3577 494.557 26.8369C495.241 26.251 495.981 26.3079 496.779 27.0078L506.764 41.9492C507.09 42.5189 507.098 43.1292 506.789 43.7803C506.431 44.1709 506.154 44.3988 505.958 44.4639C505.779 44.529 505.568 44.5778 505.324 44.6104ZM513.937 44.4883C513.465 44.4232 513.058 44.2035 512.716 43.8291L512.399 43.2432V27.8135C512.562 26.6253 513.196 26.194 514.303 26.5195L531.881 39.4102V27.8867L532.443 26.9346C532.85 26.6416 533.289 26.4951 533.761 26.4951C534.608 26.7067 535.104 27.2357 535.25 28.082V42.9258C535.039 44.2767 534.29 44.6999 533.004 44.1953L515.695 31.4756V43.2188C515.516 43.6745 515.198 44.0488 514.743 44.3418L513.937 44.4883ZM542.96 44.4883C542.488 44.4232 542.082 44.2035 541.74 43.8291L541.422 43.2432V27.7646C541.748 26.9997 542.326 26.5765 543.156 26.4951C543.677 26.5439 544.116 26.7881 544.474 27.2275L544.718 27.7402V43.2188C544.539 43.6745 544.222 44.0488 543.766 44.3418L542.96 44.4883ZM562.37 44.4883L546.72 36.1631C545.988 35.3005 546.037 34.4867 546.867 33.7217L562.687 26.4951C563.68 26.6253 564.209 27.195 564.274 28.2041C564.323 28.7249 564.111 29.1481 563.639 29.4736L551.701 35.1133L564.054 41.9736C564.445 42.82 564.323 43.528 563.688 44.0977C563.297 44.3581 562.858 44.4883 562.37 44.4883ZM571.276 44.4883C570.82 44.4232 570.421 44.2035 570.08 43.8291L569.762 43.2432V27.7646C570.137 26.9183 570.722 26.4951 571.52 26.4951C572.025 26.5439 572.456 26.7881 572.814 27.2275L573.058 27.7402V41.1436H591.173C592.036 41.3714 592.516 41.9655 592.614 42.9258C592.402 43.821 591.873 44.3418 591.027 44.4883H571.276ZM599.347 44.4883C599.136 44.4232 598.932 44.3499 598.737 44.2686C598.542 44.1872 598.354 44.0407 598.175 43.8291L597.858 43.2432V34.6494C598.069 33.917 598.542 33.4775 599.274 33.3311H617.389L618.268 33.8193C618.447 34.0798 618.577 34.332 618.659 34.5762C618.756 34.804 618.764 35.097 618.683 35.4551L618.292 36.1875C618.097 36.3177 617.926 36.4235 617.78 36.5049C617.633 36.57 617.446 36.6351 617.218 36.7002H601.154V41.1436H619.245C620.172 41.29 620.661 41.8841 620.709 42.9258C620.547 43.821 620.018 44.3418 619.123 44.4883H599.347ZM599.225 29.8398L598.297 29.4004C598.102 29.1237 597.972 28.8633 597.907 28.6191C597.842 28.375 597.825 28.0739 597.858 27.7158C598.2 27.016 598.704 26.609 599.372 26.4951H619.196C620.156 26.6416 620.661 27.2275 620.709 28.2529C620.661 28.4971 620.596 28.7087 620.514 28.8877C620.433 29.0667 620.294 29.2539 620.099 29.4492L619.318 29.8398H599.225ZM629.835 44.4883C628.55 44.3906 627.484 43.8535 626.637 42.877C626.116 42.1608 625.791 41.3551 625.661 40.46V39.5322C625.905 38.9626 626.165 38.5882 626.442 38.4092C626.719 38.2301 627.125 38.1732 627.663 38.2383C628.509 38.4824 628.932 38.873 628.932 39.4102C628.932 39.931 629.014 40.3298 629.176 40.6064C629.355 40.8669 629.599 41.0459 629.909 41.1436H643.239C643.825 41.0296 644.337 40.7529 644.777 40.3135C644.956 40.0368 645.078 39.7194 645.143 39.3613V38.4336C645.111 37.9616 644.883 37.5465 644.459 37.1885C644.118 36.9281 643.735 36.7653 643.312 36.7002H630.958C629.331 36.6188 627.915 35.9759 626.71 34.7715C626.141 34.0553 625.791 33.266 625.661 32.4033V30.792C625.84 29.6527 626.401 28.6598 627.345 27.8135C628.436 27.016 629.632 26.5765 630.934 26.4951H644.093C645.347 26.5765 646.421 27.0485 647.316 27.9111C648.113 28.8389 648.512 29.9456 648.512 31.2314C648.463 31.6872 648.244 32.0859 647.853 32.4277C647.479 32.6882 646.999 32.8021 646.413 32.7695C645.859 32.5091 645.509 32.2161 645.363 31.8906C645.216 31.5651 645.127 31.1908 645.094 30.7676C645.062 30.3281 644.744 30.0189 644.142 29.8398H630.836C630.218 29.9212 629.697 30.1816 629.274 30.6211C629.062 30.9629 628.957 31.3535 628.957 31.793C628.957 32.1836 629.119 32.5091 629.445 32.7695C629.852 33.0788 630.316 33.266 630.836 33.3311H643.312C644.826 33.4775 646.16 34.153 647.316 35.3574C648.032 36.2852 648.431 37.3268 648.512 38.4824V39.3369C648.431 40.8343 647.804 42.1201 646.632 43.1943C645.574 43.9756 644.403 44.4069 643.117 44.4883H629.835ZM658.371 44.4883C657.085 44.3906 656.019 43.8535 655.172 42.877C654.652 42.1608 654.326 41.3551 654.196 40.46V39.5322C654.44 38.9626 654.7 38.5882 654.977 38.4092C655.254 38.2301 655.661 38.1732 656.198 38.2383C657.044 38.4824 657.467 38.873 657.467 39.4102C657.467 39.931 657.549 40.3298 657.711 40.6064C657.89 40.8669 658.135 41.0459 658.444 41.1436H671.774C672.36 41.0296 672.873 40.7529 673.312 40.3135C673.491 40.0368 673.613 39.7194 673.678 39.3613V38.4336C673.646 37.9616 673.418 37.5465 672.995 37.1885C672.653 36.9281 672.27 36.7653 671.847 36.7002H659.494C657.866 36.6188 656.45 35.9759 655.246 34.7715C654.676 34.0553 654.326 33.266 654.196 32.4033V30.792C654.375 29.6527 654.936 28.6598 655.88 27.8135C656.971 27.016 658.167 26.5765 659.469 26.4951H672.628C673.882 26.5765 674.956 27.0485 675.851 27.9111C676.649 28.8389 677.047 29.9456 677.047 31.2314C676.999 31.6872 676.779 32.0859 676.388 32.4277C676.014 32.6882 675.534 32.8021 674.948 32.7695C674.394 32.5091 674.044 32.2161 673.898 31.8906C673.751 31.5651 673.662 31.1908 673.629 30.7676C673.597 30.3281 673.279 30.0189 672.677 29.8398H659.372C658.753 29.9212 658.232 30.1816 657.809 30.6211C657.597 30.9629 657.492 31.3535 657.492 31.793C657.492 32.1836 657.654 32.5091 657.98 32.7695C658.387 33.0788 658.851 33.266 659.372 33.3311H671.847C673.361 33.4775 674.695 34.153 675.851 35.3574C676.567 36.2852 676.966 37.3268 677.047 38.4824V39.3369C676.966 40.8343 676.339 42.1201 675.167 43.1943C674.11 43.9756 672.938 44.4069 671.652 44.4883H658.371ZM712.34 44.4883C711.64 44.4069 710.965 44.2523 710.314 44.0244C709.679 43.7965 709.101 43.4222 708.581 42.9014C708.206 42.4782 707.913 42.0306 707.702 41.5586C707.506 41.0703 707.36 40.5576 707.262 40.0205V31.6953C707.392 30.9466 707.596 30.2549 707.873 29.6201C708.149 28.9854 708.564 28.3831 709.118 27.8135C709.573 27.3903 710.07 27.0729 710.607 26.8613C711.16 26.6497 711.746 26.5277 712.365 26.4951H725.939C726.59 26.5765 727.208 26.7393 727.794 26.9834C728.38 27.2113 728.909 27.61 729.381 28.1797C729.772 28.668 730.032 29.1969 730.163 29.7666C730.309 30.32 730.358 30.9141 730.309 31.5488C730.195 31.8092 730.057 32.0371 729.894 32.2324C729.731 32.4115 729.512 32.5661 729.235 32.6963L728.283 32.7695L727.477 32.2812C727.119 31.8581 726.948 31.443 726.964 31.0361C726.997 30.6292 726.907 30.3444 726.696 30.1816L725.963 29.8398H712.389C712.194 29.8724 711.99 29.9375 711.779 30.0352C711.583 30.1165 711.396 30.2467 711.217 30.4258C711.038 30.6862 710.892 30.9629 710.778 31.2559C710.664 31.5488 710.591 31.8418 710.558 32.1348V39.3857C710.591 39.5973 710.639 39.8171 710.705 40.0449C710.786 40.2728 710.884 40.4681 710.998 40.6309C711.177 40.7448 711.372 40.8506 711.583 40.9482C711.795 41.0459 711.999 41.111 712.194 41.1436H725.939L726.598 40.7529C726.696 40.5576 726.745 40.2646 726.745 39.874C726.745 39.4671 726.916 39.0602 727.257 38.6533C727.501 38.4906 727.746 38.3685 727.99 38.2871C728.234 38.2057 728.535 38.1976 728.893 38.2627C729.105 38.3604 729.308 38.4824 729.503 38.6289C729.699 38.7591 729.861 38.9544 729.992 39.2148L730.114 40.2891C730.081 40.9238 729.935 41.526 729.674 42.0957C729.414 42.6654 729.015 43.1699 728.478 43.6094C728.087 43.8698 727.689 44.0651 727.282 44.1953C726.875 44.3418 726.427 44.4395 725.939 44.4883H712.34ZM756.549 44.6104C756.321 44.5615 756.102 44.4964 755.89 44.415C755.679 44.3499 755.475 44.2197 755.28 44.0244L752.399 39.6055H741.144L738.141 44.1709C737.116 44.7731 736.31 44.708 735.724 43.9756C735.561 43.764 735.464 43.5443 735.431 43.3164C735.382 43.0723 735.382 42.7956 735.431 42.4863L738.751 37.1885C739.012 36.4886 739.525 36.2038 740.29 36.334L750.202 36.3096L745.343 29.0342C744.969 28.0902 745.115 27.3577 745.783 26.8369C746.466 26.251 747.207 26.3079 748.004 27.0078L757.99 41.9492C758.315 42.5189 758.323 43.1292 758.014 43.7803C757.656 44.1709 757.379 44.3988 757.184 44.4639C757.005 44.529 756.793 44.5778 756.549 44.6104ZM765.163 44.4883C764.691 44.4232 764.284 44.2035 763.942 43.8291L763.625 43.2432V35.5771C763.95 34.7796 764.43 34.3564 765.065 34.3076H780.324C780.893 34.2262 781.374 33.9495 781.764 33.4775C781.992 33.152 782.122 32.8184 782.155 32.4766V31.6709C782.122 31.1826 781.911 30.7594 781.52 30.4014C781.146 30.1084 780.722 29.9212 780.25 29.8398H765.041C764.341 29.6445 763.869 29.2214 763.625 28.5703V27.7646C763.983 26.9671 764.487 26.5439 765.138 26.4951H780.08C781.707 26.5765 783.099 27.2275 784.254 28.4482C784.857 29.2295 785.255 30.1084 785.451 31.085V31.7686L785.524 32.3545C785.475 33.624 785.141 34.6494 784.523 35.4307C785.141 35.8376 785.638 36.4886 786.012 37.3838C786.289 38.0186 786.444 38.7184 786.476 39.4834V42.9258C786.346 43.9512 785.736 44.472 784.645 44.4883C784.189 44.4232 783.782 44.2035 783.424 43.8291L783.107 43.0967V39.3125C783.042 38.8568 782.83 38.4499 782.472 38.0918C782.163 37.8477 781.813 37.7093 781.422 37.6768H780.739H766.92V43.2188C766.741 43.6745 766.424 44.0488 765.968 44.3418L765.163 44.4883ZM793.893 44.4883C793.681 44.4232 793.478 44.3499 793.283 44.2686C793.087 44.1872 792.9 44.0407 792.721 43.8291L792.404 43.2432V27.7646C792.713 27.0322 793.218 26.609 793.917 26.4951H809.933C810.714 26.5765 811.463 26.7718 812.179 27.0811C812.895 27.374 813.522 27.846 814.059 28.4971C814.433 28.9691 814.718 29.4655 814.914 29.9863C815.109 30.4909 815.223 31.0443 815.255 31.6465V39.0928C815.223 39.8903 815.044 40.6471 814.718 41.3633C814.393 42.0794 813.921 42.7061 813.302 43.2432C812.847 43.6338 812.35 43.9268 811.813 44.1221C811.292 44.3174 810.722 44.4395 810.104 44.4883H793.893ZM811.129 40.7529C811.341 40.5576 811.512 40.3298 811.642 40.0693C811.772 39.8089 811.854 39.5404 811.886 39.2637V31.6221C811.854 31.4105 811.797 31.1989 811.715 30.9873C811.634 30.7757 811.487 30.5885 811.276 30.4258C811.081 30.263 810.869 30.1328 810.641 30.0352C810.413 29.9375 810.202 29.8724 810.006 29.8398H795.7V41.1436H810.08L811.129 40.7529Z" fill="white"/>
<path d="M1097.94 42.3516C1097.87 42.3047 1097.79 42.2754 1097.68 42.2637C1097.58 42.252 1097.48 42.2051 1097.38 42.123C1097.3 42.041 1097.22 41.9648 1097.14 41.8945L1096.91 41.4551V36.0938C1097.05 35.4727 1097.42 35.1621 1098.02 35.1621H1106.4C1106.62 35.1035 1106.79 34.9746 1106.91 34.7754C1106.94 34.7285 1106.97 34.6758 1106.98 34.6172C1106.99 34.5586 1107 34.4883 1107 34.4062C1107 34.3242 1107 34.2598 1107 34.2129C1107 34.2012 1106.97 34.166 1106.91 34.1074C1106.86 34.0488 1106.8 34.002 1106.73 33.9668C1106.66 33.9199 1106.61 33.873 1106.56 33.8262L1106.44 33.7734H1097.79L1097.19 33.3691C1097.08 33.2754 1097.01 33.1641 1096.96 33.0352C1096.93 32.8945 1096.91 32.7715 1096.91 32.666C1096.91 32.5605 1096.91 32.4492 1096.91 32.332C1097.06 31.7812 1097.38 31.4648 1097.86 31.3828H1106.79C1107.04 31.4648 1107.28 31.5469 1107.49 31.6289C1107.7 31.7109 1107.92 31.8281 1108.14 31.9805C1108.37 32.1328 1108.57 32.3145 1108.74 32.5254C1108.91 32.7129 1109.05 32.9297 1109.14 33.1758C1109.25 33.4219 1109.32 33.6855 1109.37 33.9668C1109.43 34.2363 1109.44 34.5059 1109.41 34.7754C1109.38 34.9512 1109.34 35.1152 1109.28 35.2676C1109.24 35.4199 1109.18 35.5605 1109.11 35.6895C1109.04 35.8184 1109.01 35.8711 1109.02 35.8477C1109.08 35.8828 1109.21 35.9883 1109.42 36.1641C1109.65 36.3281 1109.82 36.5156 1109.95 36.7266C1110.09 36.9258 1110.21 37.1426 1110.32 37.377C1110.4 37.5879 1110.45 37.7871 1110.48 37.9746C1110.51 38.1621 1110.53 38.3613 1110.53 38.5723C1110.53 38.7715 1110.53 38.9766 1110.53 39.1875C1110.46 39.4336 1110.39 39.6738 1110.32 39.9082C1110.26 40.1426 1110.16 40.3711 1110 40.5938C1109.85 40.8047 1109.69 41.0098 1109.53 41.209C1109.25 41.4551 1108.95 41.6602 1108.63 41.8242C1108.33 41.9766 1108.01 42.0938 1107.68 42.1758C1107.36 42.2578 1107.01 42.3164 1106.65 42.3516H1097.94ZM1107.53 39.6797C1107.61 39.6328 1107.68 39.5918 1107.74 39.5566C1107.79 39.5215 1107.85 39.4746 1107.89 39.416C1107.94 39.3457 1107.99 39.2871 1108.03 39.2402L1108.16 38.5371C1108.13 38.4785 1108.11 38.4141 1108.09 38.3438C1108.08 38.2734 1108.05 38.2148 1108.02 38.168C1107.98 38.1094 1107.95 38.0625 1107.91 38.0273C1107.83 37.957 1107.72 37.8926 1107.6 37.834C1107.47 37.7754 1107.34 37.7285 1107.21 37.6934C1107.08 37.6465 1106.96 37.6113 1106.84 37.5879H1099.28V39.9434H1106.75L1107.53 39.6797ZM1117.37 42.3516C1117.07 42.3164 1116.79 42.2578 1116.52 42.1758C1116.25 42.0938 1115.99 41.9883 1115.75 41.8594C1115.5 41.7305 1115.26 41.5664 1115.01 41.3672C1114.83 41.1914 1114.68 40.998 1114.55 40.7871C1114.44 40.5762 1114.35 40.3652 1114.29 40.1543C1114.23 39.9434 1114.17 39.7148 1114.1 39.4688V32.4551C1114.26 32.0566 1114.44 31.8047 1114.64 31.6992C1114.85 31.582 1115.02 31.5234 1115.15 31.5234C1115.28 31.5234 1115.4 31.5234 1115.52 31.5234C1116.04 31.6406 1116.35 31.957 1116.47 32.4727V39.0293C1116.49 39.1113 1116.51 39.1992 1116.52 39.293C1116.53 39.3867 1116.56 39.4629 1116.61 39.5215C1116.67 39.5801 1116.73 39.6445 1116.8 39.7148L1117.35 39.9434H1124.52C1124.6 39.9199 1124.67 39.9023 1124.73 39.8906C1124.8 39.8789 1124.86 39.8496 1124.91 39.8027C1124.96 39.7441 1125.02 39.6914 1125.06 39.6445C1125.11 39.5625 1125.15 39.4922 1125.19 39.4336C1125.23 39.3633 1125.26 39.2812 1125.28 39.1875C1125.29 39.0938 1125.31 39.0059 1125.35 38.9238V32.332C1125.43 32.25 1125.48 32.1621 1125.5 32.0684C1125.54 31.9629 1125.64 31.8457 1125.82 31.7168C1126.01 31.5879 1126.32 31.5234 1126.77 31.5234C1127.32 31.6992 1127.64 32.0215 1127.72 32.4902V39.293C1127.65 39.5859 1127.57 39.873 1127.49 40.1543C1127.41 40.4355 1127.28 40.7051 1127.1 40.9629C1126.94 41.2207 1126.72 41.4492 1126.45 41.6484C1126.29 41.8008 1126.1 41.918 1125.89 42C1125.68 42.0938 1125.46 42.1641 1125.24 42.2109C1125.03 42.2695 1124.81 42.3164 1124.57 42.3516H1117.37ZM1133.34 42.3516C1132.75 42.3398 1132.36 42.0352 1132.16 41.4375V32.4551C1132.3 32.0215 1132.49 31.7578 1132.73 31.6641C1132.96 31.5703 1133.13 31.5234 1133.23 31.5234C1133.35 31.5234 1133.47 31.5234 1133.59 31.5234C1134.17 31.6992 1134.49 32.0215 1134.54 32.4902V41.4199C1134.36 42.0059 1133.96 42.3164 1133.34 42.3516ZM1140.19 42.3516C1140.12 42.3047 1140.03 42.2754 1139.93 42.2637C1139.82 42.252 1139.72 42.2051 1139.63 42.123C1139.55 42.041 1139.47 41.9648 1139.38 41.8945L1139.16 41.4551V32.4551C1139.33 32.0449 1139.47 31.8105 1139.56 31.752C1139.66 31.6934 1139.78 31.6406 1139.89 31.5938C1140.01 31.5469 1140.12 31.5234 1140.23 31.5234C1140.34 31.5234 1140.46 31.5234 1140.58 31.5234C1141.16 31.6992 1141.48 32.0215 1141.53 32.4902V39.9434H1151.81C1152.22 40.1191 1152.44 40.2539 1152.48 40.3477C1152.53 40.4297 1152.57 40.5234 1152.62 40.6289C1152.68 40.7344 1152.72 40.8457 1152.74 40.9629C1152.77 41.0801 1152.78 41.2207 1152.78 41.3848C1152.6 41.9473 1152.23 42.2695 1151.67 42.3516H1140.19ZM1157.56 42.3516C1157.49 42.3047 1157.4 42.2754 1157.29 42.2637C1157.2 42.252 1157.08 42.1992 1156.92 42.1055C1156.78 42.0117 1156.65 41.7891 1156.52 41.4375V32.4727C1156.65 31.8867 1156.96 31.5703 1157.47 31.5234H1167.15C1167.43 31.6055 1167.7 31.6875 1167.96 31.7695C1168.22 31.8398 1168.47 31.957 1168.7 32.1211C1168.95 32.2734 1169.17 32.4668 1169.37 32.7012C1169.51 32.8652 1169.63 33.0469 1169.74 33.2461C1169.84 33.4336 1169.93 33.627 1169.98 33.8262C1170.05 34.0137 1170.11 34.2188 1170.14 34.4414V39.293C1170.07 39.5859 1170 39.873 1169.91 40.1543C1169.83 40.4355 1169.7 40.7051 1169.53 40.9629C1169.36 41.2207 1169.15 41.4492 1168.88 41.6484C1168.71 41.8008 1168.52 41.918 1168.31 42C1168.1 42.0938 1167.89 42.1641 1167.66 42.2109C1167.45 42.2695 1167.23 42.3164 1167 42.3516H1157.56ZM1167.36 39.8027C1167.43 39.7441 1167.5 39.6738 1167.56 39.5918C1167.62 39.5098 1167.66 39.4043 1167.68 39.2754C1167.7 39.1465 1167.73 39.0352 1167.77 38.9414V34.9336C1167.73 34.8516 1167.71 34.7578 1167.7 34.6523C1167.69 34.5469 1167.66 34.459 1167.63 34.3887C1167.59 34.3066 1167.56 34.2539 1167.52 34.2305C1167.43 34.1602 1167.35 34.1016 1167.28 34.0547C1167.22 34.0078 1167.14 33.9785 1167.05 33.9668C1166.97 33.9551 1166.88 33.9375 1166.8 33.9141H1158.89V39.9434H1166.93L1167.36 39.8027ZM1175.76 42.3516C1175.18 42.3398 1174.78 42.0352 1174.59 41.4375V32.4551C1174.73 32.0215 1174.91 31.7578 1175.15 31.6641C1175.38 31.5703 1175.55 31.5234 1175.66 31.5234C1175.78 31.5234 1175.89 31.5234 1176.01 31.5234C1176.6 31.6992 1176.91 32.0215 1176.96 32.4902V41.4199C1176.78 42.0059 1176.38 42.3164 1175.76 42.3516ZM1182.62 42.3516C1182.53 42.3047 1182.39 42.2578 1182.19 42.2109C1182.01 42.1758 1181.8 41.918 1181.58 41.4375V32.4727C1181.67 32.0742 1181.79 31.8398 1181.93 31.7695C1182.07 31.6875 1182.2 31.6289 1182.32 31.5938C1182.43 31.5469 1182.59 31.5176 1182.77 31.5059C1182.97 31.4941 1183.23 31.5879 1183.55 31.7871L1192.85 38.7305L1192.83 32.332C1192.91 32.25 1192.96 32.1621 1192.99 32.0684C1193.02 31.9629 1193.1 31.8691 1193.21 31.7871C1193.33 31.7051 1193.44 31.6406 1193.53 31.5938C1193.64 31.5352 1193.88 31.5117 1194.27 31.5234C1194.77 31.6992 1195.08 32.0156 1195.2 32.4727V41.4023C1194.87 42.375 1194.25 42.5918 1193.32 42.0527L1183.95 35.0918V41.4199C1183.78 42.041 1183.33 42.3516 1182.62 42.3516ZM1202.62 42.3516C1202.33 42.3164 1202.05 42.2578 1201.77 42.1758C1201.49 42.0938 1201.22 42 1200.96 41.8945C1200.72 41.7773 1200.49 41.5898 1200.28 41.332C1200.14 41.168 1200.01 40.998 1199.89 40.8223C1199.77 40.6348 1199.68 40.4414 1199.61 40.2422C1199.54 40.0312 1199.49 39.8145 1199.47 39.5918V34.6523C1199.54 34.3594 1199.62 34.0664 1199.72 33.7734C1199.81 33.4688 1199.94 33.1816 1200.1 32.9121C1200.28 32.6426 1200.51 32.4023 1200.79 32.1914C1200.96 32.0859 1201.12 31.9922 1201.26 31.9102C1201.4 31.8281 1201.56 31.7578 1201.74 31.6992C1201.92 31.6289 1202.12 31.5703 1202.32 31.5234H1210.74C1210.96 31.5703 1211.18 31.6348 1211.39 31.7168C1211.61 31.7988 1211.81 31.9043 1212 32.0332C1212.19 32.1504 1212.37 32.291 1212.55 32.4551C1212.73 32.666 1212.88 32.8828 1212.97 33.1055C1213.07 33.3281 1213.15 33.5684 1213.2 33.8262C1213.24 34.084 1213.26 34.3711 1213.23 34.6875L1212.83 35.2852C1212.73 35.3906 1212.62 35.4668 1212.49 35.5137C1212.37 35.5605 1212.24 35.584 1212.11 35.584C1211.99 35.584 1211.87 35.584 1211.74 35.584C1211.39 35.4434 1211.15 35.291 1211.04 35.127C1210.92 34.9629 1210.86 34.7988 1210.86 34.6348C1210.86 34.4707 1210.85 34.3418 1210.84 34.248C1210.83 34.1543 1210.81 34.084 1210.77 34.0371C1210.75 33.9902 1210.63 33.9492 1210.42 33.9141H1202.76C1202.67 33.9375 1202.59 33.9551 1202.51 33.9668C1202.44 33.9785 1202.38 34.0078 1202.32 34.0547C1202.26 34.0898 1202.21 34.1309 1202.18 34.1777C1202.12 34.2715 1202.06 34.3594 1202.02 34.4414C1201.98 34.5234 1201.95 34.6172 1201.91 34.7227C1201.89 34.8164 1201.87 34.9102 1201.84 35.0039V39.1875C1201.88 39.6094 1202.11 39.8613 1202.53 39.9434H1210.49C1210.57 39.9199 1210.63 39.873 1210.67 39.8027L1210.65 38.4141H1204.41C1204.01 38.2969 1203.77 38.1797 1203.69 38.0625C1203.61 37.9336 1203.54 37.8281 1203.48 37.7461C1203.43 37.6523 1203.41 37.5586 1203.41 37.4648C1203.41 37.3594 1203.39 37.2715 1203.37 37.2012C1203.43 36.791 1203.57 36.4863 1203.79 36.2871C1204.02 36.0762 1204.28 35.9766 1204.58 35.9883H1211.98C1212.1 36.0352 1212.2 36.0703 1212.28 36.0938C1212.38 36.1055 1212.47 36.1523 1212.56 36.2344C1212.67 36.3047 1212.76 36.3867 1212.85 36.4805L1213.09 36.9551V39.9609C1213.05 40.1836 1212.99 40.3828 1212.92 40.5586C1212.86 40.7344 1212.78 40.9043 1212.67 41.0684C1212.58 41.2324 1212.45 41.4023 1212.3 41.5781C1212.13 41.7305 1211.94 41.8652 1211.76 41.9824C1211.57 42.0879 1211.36 42.1641 1211.14 42.2109C1210.92 42.2695 1210.71 42.3164 1210.53 42.3516H1202.62Z" fill="#A8A8A8"/>
</svg>
