<svg width="1272" height="75" viewBox="0 0 1272 75" fill="none" xmlns="http://www.w3.org/2000/svg">
<path d="M1261.73 74H23.0839C20.4317 74 17.9464 72.9464 16.0711 71.0711L3.92893 58.9289C2.05357 57.0536 1 54.5102 1 51.8581V10.9989C1 5.47609 5.47712 1 11 1H1249.86C1252.51 1 1255.05 2.05357 1256.93 3.92893L1268.57 15.5711C1270.45 17.4464 1271.5 19.99 1271.5 22.6421V64C1271.5 69.5228 1267.25 74 1261.73 74Z" fill="#EF2E65" fill-opacity="0.5" stroke="#FFFCFC" stroke-width="0.5"/>
<path d="M417.165 44.4883C416.953 44.4232 416.75 44.3499 416.554 44.2686C416.359 44.1872 416.172 44.0407 415.993 43.8291L415.675 43.2432V34.1855C415.887 33.388 416.31 32.9567 416.945 32.8916H431.691C432.277 32.7614 432.659 32.5986 432.838 32.4033C433.034 32.1917 433.156 31.9557 433.205 31.6953C433.27 31.4186 433.278 31.1501 433.229 30.8896C433.034 30.1572 432.594 29.7259 431.911 29.5957H416.994L416.115 29.1074C415.919 28.847 415.789 28.6029 415.724 28.375C415.659 28.1309 415.643 27.8542 415.675 27.5449C415.936 26.8288 416.351 26.4137 416.92 26.2998H432.375C432.96 26.4463 433.506 26.6497 434.01 26.9102C434.515 27.1543 434.979 27.5124 435.402 27.9844C435.858 28.5378 436.183 29.1481 436.378 29.8154C436.574 30.4665 436.623 31.1663 436.525 31.915C436.427 32.3382 436.297 32.737 436.134 33.1113C435.972 33.4694 435.858 33.6891 435.792 33.7705C436.085 33.917 436.476 34.2262 436.964 34.6982C437.453 35.154 437.835 35.6829 438.112 36.2852C438.258 36.7083 438.364 37.1315 438.429 37.5547C438.494 37.9616 438.527 38.3848 438.527 38.8242C438.494 39.6217 438.315 40.3704 437.99 41.0703C437.664 41.7539 437.176 42.3724 436.525 42.9258C435.89 43.4303 435.19 43.7965 434.425 44.0244C433.677 44.2523 432.92 44.4069 432.155 44.4883H417.165ZM434.108 40.5576C434.303 40.4437 434.49 40.2809 434.669 40.0693C434.865 39.8415 434.987 39.638 435.036 39.459L435.158 37.9941C435.141 37.8314 435.068 37.6523 434.938 37.457C434.808 37.2617 434.653 37.0827 434.474 36.9199C434.165 36.6921 433.823 36.5212 433.449 36.4072C433.091 36.2933 432.708 36.2201 432.301 36.1875H418.971V41.1436H432.375C432.667 41.111 432.952 41.0459 433.229 40.9482C433.506 40.8343 433.799 40.7041 434.108 40.5576ZM463.961 44.6104C463.734 44.5615 463.514 44.4964 463.302 44.415C463.091 44.3499 462.887 44.2197 462.692 44.0244L459.811 39.6055H448.556L445.553 44.1709C444.528 44.7731 443.722 44.708 443.136 43.9756C442.973 43.764 442.876 43.5443 442.843 43.3164C442.794 43.0723 442.794 42.7956 442.843 42.4863L446.164 37.1885C446.424 36.4886 446.937 36.2038 447.702 36.334L457.614 36.3096L452.755 29.0342C452.381 28.0902 452.528 27.3577 453.195 26.8369C453.878 26.251 454.619 26.3079 455.417 27.0078L465.402 41.9492C465.727 42.5189 465.736 43.1292 465.426 43.7803C465.068 44.1709 464.792 44.3988 464.596 44.4639C464.417 44.529 464.206 44.5778 463.961 44.6104ZM472.575 44.4883C472.103 44.4232 471.696 44.2035 471.354 43.8291L471.037 43.2432V27.8135C471.199 26.6253 471.834 26.194 472.941 26.5195L490.519 39.4102V27.8867L491.081 26.9346C491.487 26.6416 491.927 26.4951 492.399 26.4951C493.245 26.7067 493.742 27.2357 493.888 28.082V42.9258C493.677 44.2767 492.928 44.6999 491.642 44.1953L474.333 31.4756V43.2188C474.153 43.6745 473.836 44.0488 473.38 44.3418L472.575 44.4883ZM501.598 44.4883C501.126 44.4232 500.719 44.2035 500.377 43.8291L500.06 43.2432V27.7646C500.386 26.9997 500.963 26.5765 501.793 26.4951C502.314 26.5439 502.754 26.7881 503.112 27.2275L503.356 27.7402V43.2188C503.177 43.6745 502.86 44.0488 502.404 44.3418L501.598 44.4883ZM521.007 44.4883L505.358 36.1631C504.625 35.3005 504.674 34.4867 505.504 33.7217L521.325 26.4951C522.318 26.6253 522.847 27.195 522.912 28.2041C522.96 28.7249 522.749 29.1481 522.277 29.4736L510.338 35.1133L522.692 41.9736C523.083 42.82 522.96 43.528 522.326 44.0977C521.935 44.3581 521.496 44.4883 521.007 44.4883ZM529.914 44.4883C529.458 44.4232 529.059 44.2035 528.717 43.8291L528.4 43.2432V27.7646C528.774 26.9183 529.36 26.4951 530.158 26.4951C530.662 26.5439 531.094 26.7881 531.452 27.2275L531.696 27.7402V41.1436H549.811C550.674 41.3714 551.154 41.9655 551.251 42.9258C551.04 43.821 550.511 44.3418 549.665 44.4883H529.914ZM557.985 44.4883C557.773 44.4232 557.57 44.3499 557.375 44.2686C557.179 44.1872 556.992 44.0407 556.813 43.8291L556.496 43.2432V34.6494C556.707 33.917 557.179 33.4775 557.912 33.3311H576.027L576.906 33.8193C577.085 34.0798 577.215 34.332 577.296 34.5762C577.394 34.804 577.402 35.097 577.321 35.4551L576.93 36.1875C576.735 36.3177 576.564 36.4235 576.417 36.5049C576.271 36.57 576.084 36.6351 575.856 36.7002H559.792V41.1436H577.882C578.81 41.29 579.298 41.8841 579.347 42.9258C579.184 43.821 578.655 44.3418 577.76 44.4883H557.985ZM557.863 29.8398L556.935 29.4004C556.74 29.1237 556.61 28.8633 556.544 28.6191C556.479 28.375 556.463 28.0739 556.496 27.7158C556.837 27.016 557.342 26.609 558.009 26.4951H577.833C578.794 26.6416 579.298 27.2275 579.347 28.2529C579.298 28.4971 579.233 28.7087 579.152 28.8877C579.07 29.0667 578.932 29.2539 578.737 29.4492L577.956 29.8398H557.863ZM588.473 44.4883C587.187 44.3906 586.121 43.8535 585.275 42.877C584.754 42.1608 584.429 41.3551 584.298 40.46V39.5322C584.542 38.9626 584.803 38.5882 585.08 38.4092C585.356 38.2301 585.763 38.1732 586.3 38.2383C587.147 38.4824 587.57 38.873 587.57 39.4102C587.57 39.931 587.651 40.3298 587.814 40.6064C587.993 40.8669 588.237 41.0459 588.546 41.1436H601.876C602.462 41.0296 602.975 40.7529 603.415 40.3135C603.594 40.0368 603.716 39.7194 603.781 39.3613V38.4336C603.748 37.9616 603.52 37.5465 603.097 37.1885C602.755 36.9281 602.373 36.7653 601.95 36.7002H589.596C587.969 36.6188 586.553 35.9759 585.348 34.7715C584.778 34.0553 584.429 33.266 584.298 32.4033V30.792C584.477 29.6527 585.039 28.6598 585.983 27.8135C587.073 27.016 588.27 26.5765 589.572 26.4951H602.731C603.984 26.5765 605.058 27.0485 605.954 27.9111C606.751 28.8389 607.15 29.9456 607.15 31.2314C607.101 31.6872 606.881 32.0859 606.491 32.4277C606.116 32.6882 605.636 32.8021 605.05 32.7695C604.497 32.5091 604.147 32.2161 604 31.8906C603.854 31.5651 603.764 31.1908 603.732 30.7676C603.699 30.3281 603.382 30.0189 602.78 29.8398H589.474C588.856 29.9212 588.335 30.1816 587.912 30.6211C587.7 30.9629 587.594 31.3535 587.594 31.793C587.594 32.1836 587.757 32.5091 588.083 32.7695C588.489 33.0788 588.953 33.266 589.474 33.3311H601.95C603.463 33.4775 604.798 34.153 605.954 35.3574C606.67 36.2852 607.069 37.3268 607.15 38.4824V39.3369C607.069 40.8343 606.442 42.1201 605.27 43.1943C604.212 43.9756 603.04 44.4069 601.754 44.4883H588.473ZM617.008 44.4883C615.722 44.3906 614.656 43.8535 613.81 42.877C613.289 42.1608 612.964 41.3551 612.833 40.46V39.5322C613.078 38.9626 613.338 38.5882 613.615 38.4092C613.891 38.2301 614.298 38.1732 614.835 38.2383C615.682 38.4824 616.105 38.873 616.105 39.4102C616.105 39.931 616.186 40.3298 616.349 40.6064C616.528 40.8669 616.772 41.0459 617.082 41.1436H630.412C630.998 41.0296 631.51 40.7529 631.95 40.3135C632.129 40.0368 632.251 39.7194 632.316 39.3613V38.4336C632.283 37.9616 632.056 37.5465 631.632 37.1885C631.291 36.9281 630.908 36.7653 630.485 36.7002H618.131C616.504 36.6188 615.088 35.9759 613.883 34.7715C613.314 34.0553 612.964 33.266 612.833 32.4033V30.792C613.013 29.6527 613.574 28.6598 614.518 27.8135C615.609 27.016 616.805 26.5765 618.107 26.4951H631.266C632.519 26.5765 633.594 27.0485 634.489 27.9111C635.286 28.8389 635.685 29.9456 635.685 31.2314C635.636 31.6872 635.417 32.0859 635.026 32.4277C634.652 32.6882 634.171 32.8021 633.585 32.7695C633.032 32.5091 632.682 32.2161 632.536 31.8906C632.389 31.5651 632.3 31.1908 632.267 30.7676C632.235 30.3281 631.917 30.0189 631.315 29.8398H618.009C617.391 29.9212 616.87 30.1816 616.447 30.6211C616.235 30.9629 616.129 31.3535 616.129 31.793C616.129 32.1836 616.292 32.5091 616.618 32.7695C617.025 33.0788 617.488 33.266 618.009 33.3311H630.485C631.999 33.4775 633.333 34.153 634.489 35.3574C635.205 36.2852 635.604 37.3268 635.685 38.4824V39.3369C635.604 40.8343 634.977 42.1201 633.805 43.1943C632.747 43.9756 631.575 44.4069 630.29 44.4883H617.008ZM686.383 44.6104C686.155 44.5615 685.936 44.4964 685.724 44.415C685.513 44.3499 685.309 44.2197 685.114 44.0244L682.233 39.6055H670.978L667.975 44.1709C666.95 44.7731 666.144 44.708 665.558 43.9756C665.395 43.764 665.298 43.5443 665.265 43.3164C665.216 43.0723 665.216 42.7956 665.265 42.4863L668.585 37.1885C668.846 36.4886 669.359 36.2038 670.124 36.334L680.036 36.3096L675.177 29.0342C674.803 28.0902 674.949 27.3577 675.617 26.8369C676.3 26.251 677.041 26.3079 677.838 27.0078L687.824 41.9492C688.149 42.5189 688.157 43.1292 687.848 43.7803C687.49 44.1709 687.213 44.3988 687.018 44.4639C686.839 44.529 686.627 44.5778 686.383 44.6104ZM698.292 44.4883C697.593 44.4069 696.917 44.2523 696.266 44.0244C695.631 43.7965 695.054 43.4222 694.533 42.9014C694.158 42.4782 693.865 42.0306 693.654 41.5586C693.458 41.0703 693.312 40.5576 693.214 40.0205V31.6953C693.345 30.9466 693.548 30.2549 693.825 29.6201C694.101 28.9854 694.516 28.3831 695.07 27.8135C695.526 27.3903 696.022 27.0729 696.559 26.8613C697.112 26.6497 697.698 26.5277 698.317 26.4951H711.891C712.542 26.5765 713.161 26.7393 713.747 26.9834C714.333 27.2113 714.861 27.61 715.333 28.1797C715.724 28.668 715.985 29.1969 716.115 29.7666C716.261 30.32 716.31 30.9141 716.261 31.5488C716.147 31.8092 716.009 32.0371 715.846 32.2324C715.683 32.4115 715.464 32.5661 715.187 32.6963L714.235 32.7695L713.429 32.2812C713.071 31.8581 712.9 31.443 712.917 31.0361C712.949 30.6292 712.86 30.3444 712.648 30.1816L711.916 29.8398H698.341C698.146 29.8724 697.943 29.9375 697.731 30.0352C697.536 30.1165 697.348 30.2467 697.169 30.4258C696.99 30.6862 696.844 30.9629 696.73 31.2559C696.616 31.5488 696.543 31.8418 696.51 32.1348V39.3857C696.543 39.5973 696.592 39.8171 696.657 40.0449C696.738 40.2728 696.836 40.4681 696.95 40.6309C697.129 40.7448 697.324 40.8506 697.536 40.9482C697.747 41.0459 697.951 41.111 698.146 41.1436H711.891L712.55 40.7529C712.648 40.5576 712.697 40.2646 712.697 39.874C712.697 39.4671 712.868 39.0602 713.209 38.6533C713.454 38.4906 713.698 38.3685 713.942 38.2871C714.186 38.2057 714.487 38.1976 714.845 38.2627C715.057 38.3604 715.26 38.4824 715.456 38.6289C715.651 38.7591 715.814 38.9544 715.944 39.2148L716.066 40.2891C716.033 40.9238 715.887 41.526 715.626 42.0957C715.366 42.6654 714.967 43.1699 714.43 43.6094C714.04 43.8698 713.641 44.0651 713.234 44.1953C712.827 44.3418 712.379 44.4395 711.891 44.4883H698.292ZM742.501 44.6104C742.274 44.5615 742.054 44.4964 741.842 44.415C741.631 44.3499 741.427 44.2197 741.232 44.0244L738.351 39.6055H727.096L724.093 44.1709C723.068 44.7731 722.262 44.708 721.676 43.9756C721.514 43.764 721.416 43.5443 721.383 43.3164C721.334 43.0723 721.334 42.7956 721.383 42.4863L724.704 37.1885C724.964 36.4886 725.477 36.2038 726.242 36.334L736.154 36.3096L731.295 29.0342C730.921 28.0902 731.068 27.3577 731.735 26.8369C732.418 26.251 733.159 26.3079 733.957 27.0078L743.942 41.9492C744.267 42.5189 744.276 43.1292 743.966 43.7803C743.608 44.1709 743.332 44.3988 743.136 44.4639C742.957 44.529 742.746 44.5778 742.501 44.6104ZM751.066 44.4883C750.854 44.4232 750.651 44.3499 750.456 44.2686C750.26 44.1872 750.073 44.0407 749.894 43.8291L749.577 43.2432V27.7646C749.886 27.0322 750.39 26.609 751.09 26.4951H767.106C767.887 26.5765 768.636 26.7718 769.352 27.0811C770.068 27.374 770.695 27.846 771.232 28.4971C771.606 28.9691 771.891 29.4655 772.086 29.9863C772.282 30.4909 772.396 31.0443 772.428 31.6465V39.0928C772.396 39.8903 772.217 40.6471 771.891 41.3633C771.566 42.0794 771.094 42.7061 770.475 43.2432C770.019 43.6338 769.523 43.9268 768.986 44.1221C768.465 44.3174 767.895 44.4395 767.277 44.4883H751.066ZM768.302 40.7529C768.514 40.5576 768.685 40.3298 768.815 40.0693C768.945 39.8089 769.027 39.5404 769.059 39.2637V31.6221C769.027 31.4105 768.97 31.1989 768.888 30.9873C768.807 30.7757 768.66 30.5885 768.449 30.4258C768.253 30.263 768.042 30.1328 767.814 30.0352C767.586 29.9375 767.375 29.8724 767.179 29.8398H752.873V41.1436H767.252L768.302 40.7529ZM779.894 44.4883C779.682 44.4232 779.479 44.3499 779.284 44.2686C779.088 44.1872 778.901 44.0407 778.722 43.8291L778.405 43.2432V34.6494C778.616 33.917 779.088 33.4775 779.821 33.3311H797.936L798.815 33.8193C798.994 34.0798 799.124 34.332 799.206 34.5762C799.303 34.804 799.311 35.097 799.23 35.4551L798.839 36.1875C798.644 36.3177 798.473 36.4235 798.327 36.5049C798.18 36.57 797.993 36.6351 797.765 36.7002H781.701V41.1436H799.792C800.719 41.29 801.208 41.8841 801.256 42.9258C801.094 43.821 800.565 44.3418 799.669 44.4883H779.894ZM779.772 29.8398L778.844 29.4004C778.649 29.1237 778.519 28.8633 778.454 28.6191C778.389 28.375 778.372 28.0739 778.405 27.7158C778.747 27.016 779.251 26.609 779.918 26.4951H799.743C800.703 26.6416 801.208 27.2275 801.256 28.2529C801.208 28.4971 801.142 28.7087 801.061 28.8877C800.98 29.0667 800.841 29.2539 800.646 29.4492L799.865 29.8398H779.772ZM807.99 44.4883C807.518 44.4232 807.111 44.2035 806.769 43.8291L806.452 43.2432V27.7891C806.728 26.5846 807.477 26.1859 808.698 26.5928L817.877 35.5527L826.911 26.3975L827.252 26.2998H828.058L828.766 26.6904C829.075 27.0485 829.254 27.4229 829.303 27.8135V42.9258C829.14 43.9512 828.53 44.472 827.472 44.4883C827.016 44.4232 826.61 44.2035 826.251 43.8291L825.934 43.0967V32.1592L818.561 39.5078C818.187 39.752 817.796 39.7601 817.389 39.5322L809.479 31.9395L809.748 31.5244V43.2188C809.569 43.6745 809.251 44.0488 808.795 44.3418L807.99 44.4883ZM845.778 44.4883C845.306 44.4232 844.907 44.2035 844.582 43.8291L844.24 43.1943V36.8223L834.621 28.9121L834.523 28.5459V27.7646C834.962 26.5928 835.792 26.2184 837.013 26.6416L845.998 33.7949L855.006 26.5195C856.422 26.3079 857.204 26.8776 857.35 28.2285C857.301 28.7493 857.082 29.1725 856.691 29.498L847.536 36.8223V43.2432L847.145 43.9756C846.722 44.3174 846.266 44.4883 845.778 44.4883Z" fill="white"/>
<path d="M1118.36 42.4395C1118.19 42.4043 1118.04 42.3574 1117.88 42.2988C1117.73 42.252 1117.58 42.1582 1117.44 42.0176L1115.37 38.8359H1107.27L1105.1 42.123C1104.37 42.5566 1103.79 42.5098 1103.36 41.9824C1103.25 41.8301 1103.18 41.6719 1103.15 41.5078C1103.12 41.332 1103.12 41.1328 1103.15 40.9102L1105.54 37.0957C1105.73 36.5918 1106.1 36.3867 1106.65 36.4805L1113.79 36.4629L1110.29 31.2246C1110.02 30.5449 1110.13 30.0176 1110.61 29.6426C1111.1 29.2207 1111.63 29.2617 1112.21 29.7656L1119.4 40.5234C1119.63 40.9336 1119.64 41.373 1119.41 41.8418C1119.16 42.123 1118.96 42.2871 1118.82 42.334C1118.69 42.3809 1118.53 42.416 1118.36 42.4395ZM1126.93 42.3516C1126.43 42.293 1125.94 42.1816 1125.47 42.0176C1125.02 41.8535 1124.6 41.584 1124.23 41.209C1123.96 40.9043 1123.75 40.582 1123.59 40.2422C1123.45 39.8906 1123.35 39.5215 1123.28 39.1348V33.1406C1123.37 32.6016 1123.52 32.1035 1123.72 31.6465C1123.92 31.1895 1124.21 30.7559 1124.61 30.3457C1124.94 30.041 1125.3 29.8125 1125.68 29.6602C1126.08 29.5078 1126.51 29.4199 1126.95 29.3965H1136.72C1137.19 29.4551 1137.64 29.5723 1138.06 29.748C1138.48 29.9121 1138.86 30.1992 1139.2 30.6094C1139.48 30.9609 1139.67 31.3418 1139.77 31.752C1139.87 32.1504 1139.91 32.5781 1139.87 33.0352C1139.79 33.2227 1139.69 33.3867 1139.57 33.5273C1139.45 33.6562 1139.3 33.7676 1139.1 33.8613L1138.41 33.9141L1137.83 33.5625C1137.57 33.2578 1137.45 32.959 1137.46 32.666C1137.49 32.373 1137.42 32.168 1137.27 32.0508L1136.74 31.8047H1126.97C1126.83 31.8281 1126.68 31.875 1126.53 31.9453C1126.39 32.0039 1126.25 32.0977 1126.12 32.2266C1126 32.4141 1125.89 32.6133 1125.81 32.8242C1125.73 33.0352 1125.67 33.2461 1125.65 33.457V38.6777C1125.67 38.8301 1125.71 38.9883 1125.76 39.1523C1125.81 39.3164 1125.88 39.457 1125.97 39.5742C1126.1 39.6562 1126.24 39.7324 1126.39 39.8027C1126.54 39.873 1126.69 39.9199 1126.83 39.9434H1136.72L1137.2 39.6621C1137.27 39.5215 1137.3 39.3105 1137.3 39.0293C1137.3 38.7363 1137.43 38.4434 1137.67 38.1504C1137.85 38.0332 1138.02 37.9453 1138.2 37.8867C1138.38 37.8281 1138.59 37.8223 1138.85 37.8691C1139 37.9395 1139.15 38.0273 1139.29 38.1328C1139.43 38.2266 1139.55 38.3672 1139.64 38.5547L1139.73 39.3281C1139.71 39.7852 1139.6 40.2188 1139.41 40.6289C1139.23 41.0391 1138.94 41.4023 1138.55 41.7188C1138.27 41.9062 1137.98 42.0469 1137.69 42.1406C1137.4 42.2461 1137.08 42.3164 1136.72 42.3516H1126.93ZM1151.61 42.3516C1151.27 42.3047 1150.98 42.1465 1150.75 41.877L1150.5 41.4199V31.8047H1144.51C1144.03 31.6641 1143.69 31.3594 1143.51 30.8906V30.3105C1143.75 29.7363 1144.11 29.4316 1144.58 29.3965H1158.85C1159.53 29.5137 1159.89 29.9297 1159.94 30.6445C1159.91 30.9727 1159.76 31.2656 1159.5 31.5234L1158.94 31.8047H1152.87V41.4551L1152.59 41.9824C1152.29 42.2285 1151.96 42.3516 1151.61 42.3516ZM1164.93 42.3516C1164.77 42.3047 1164.61 42.2461 1164.46 42.1758C1164.3 42.1055 1164.16 41.9824 1164.03 41.8066L1163.86 41.4551V30.293L1164.14 29.7832C1164.28 29.6426 1164.44 29.543 1164.61 29.4844C1164.79 29.4258 1164.96 29.3965 1165.12 29.3965C1165.3 29.4316 1165.45 29.4785 1165.58 29.5371C1165.72 29.5957 1165.86 29.7188 1166 29.9062L1166.23 30.3457V41.3848C1166.05 41.9824 1165.62 42.3047 1164.93 42.3516ZM1178.34 42.3516C1178 42.3047 1177.71 42.1523 1177.48 41.8945L1170.25 30.9434C1170.18 30.3809 1170.33 29.9414 1170.71 29.625C1171.06 29.4492 1171.37 29.3789 1171.64 29.4141C1171.91 29.4375 1172.16 29.6074 1172.4 29.9238L1178.43 38.9238L1184.7 29.5723C1185.26 29.373 1185.73 29.373 1186.11 29.5723C1186.49 29.7598 1186.68 30.2051 1186.67 30.9082L1179.31 42C1179.01 42.2344 1178.69 42.3516 1178.34 42.3516ZM1191.54 42.3516C1191.38 42.3047 1191.24 42.252 1191.1 42.1934C1190.96 42.1348 1190.82 42.0293 1190.69 41.877L1190.46 41.4551V35.2676C1190.62 34.7402 1190.96 34.4238 1191.48 34.3184H1204.53L1205.16 34.6699C1205.29 34.8574 1205.38 35.0391 1205.44 35.2148C1205.51 35.3789 1205.52 35.5898 1205.46 35.8477L1205.18 36.375C1205.04 36.4688 1204.91 36.5449 1204.81 36.6035C1204.7 36.6504 1204.57 36.6973 1204.4 36.7441H1192.84V39.9434H1205.86C1206.53 40.0488 1206.88 40.4766 1206.92 41.2266C1206.8 41.8711 1206.42 42.2461 1205.77 42.3516H1191.54ZM1191.45 31.8047L1190.78 31.4883C1190.64 31.2891 1190.55 31.1016 1190.5 30.9258C1190.45 30.75 1190.44 30.5332 1190.46 30.2754C1190.71 29.7715 1191.07 29.4785 1191.55 29.3965H1205.83C1206.52 29.502 1206.88 29.9238 1206.92 30.6621C1206.88 30.8379 1206.83 30.9902 1206.78 31.1191C1206.72 31.248 1206.62 31.3828 1206.48 31.5234L1205.92 31.8047H1191.45Z" fill="#23FF61"/>
</svg>
