<svg width="189" height="77" viewBox="0 0 189 77" fill="none" xmlns="http://www.w3.org/2000/svg">
<path d="M167.877 1H11C5.47715 1 1 5.47716 1 11V52.8142C1 55.4778 2.0626 58.0313 3.95218 59.9085L17.2248 73.0942C19.0982 74.9554 21.6318 76 24.2726 76H177.467C182.99 76 187.467 71.5229 187.467 66V20.5272C187.467 17.8637 186.404 15.3102 184.515 13.433L174.925 3.90576C173.051 2.04458 170.518 1 167.877 1Z" stroke="#EF2E65" stroke-width="2"/>
<path d="M37.3375 43.3125C36.5146 43.25 35.8323 42.9062 35.2906 42.2812C34.9573 41.8229 34.749 41.3073 34.6656 40.7344V40.1406C34.8219 39.776 34.9885 39.5365 35.1656 39.4219C35.3427 39.3073 35.6031 39.2708 35.9469 39.3125C36.4885 39.4688 36.7594 39.7188 36.7594 40.0625C36.7594 40.3958 36.8115 40.651 36.9156 40.8281C37.0302 40.9948 37.1865 41.1094 37.3844 41.1719H45.9156C46.2906 41.099 46.6188 40.9219 46.9 40.6406C47.0146 40.4635 47.0927 40.2604 47.1344 40.0312V39.4375C47.1135 39.1354 46.9677 38.8698 46.6969 38.6406C46.4781 38.474 46.2333 38.3698 45.9625 38.3281H38.0563C37.0146 38.276 36.1083 37.8646 35.3375 37.0938C34.9729 36.6354 34.749 36.1302 34.6656 35.5781V34.5469C34.7802 33.8177 35.1396 33.1823 35.7438 32.6406C36.4417 32.1302 37.2073 31.849 38.0406 31.7969H46.4625C47.2646 31.849 47.9521 32.151 48.525 32.7031C49.0354 33.2969 49.2906 34.0052 49.2906 34.8281C49.2594 35.1198 49.1188 35.375 48.8688 35.5938C48.6292 35.7604 48.3219 35.8333 47.9469 35.8125C47.5927 35.6458 47.3688 35.4583 47.275 35.25C47.1813 35.0417 47.124 34.8021 47.1031 34.5312C47.0823 34.25 46.8792 34.0521 46.4938 33.9375H37.9781C37.5823 33.9896 37.249 34.1562 36.9781 34.4375C36.8427 34.6562 36.775 34.9062 36.775 35.1875C36.775 35.4375 36.8792 35.6458 37.0875 35.8125C37.3479 36.0104 37.6448 36.1302 37.9781 36.1719H45.9625C46.9313 36.2656 47.7854 36.6979 48.525 37.4688C48.9833 38.0625 49.2385 38.7292 49.2906 39.4688V40.0156C49.2385 40.974 48.8375 41.7969 48.0875 42.4844C47.4104 42.9844 46.6604 43.2604 45.8375 43.3125H37.3375ZM54.0688 43.3125C53.9333 43.2708 53.8031 43.224 53.6781 43.1719C53.5531 43.1198 53.4333 43.026 53.3188 42.8906L53.1156 42.5156V37.0156C53.251 36.5469 53.5531 36.2656 54.0219 36.1719H65.6156L66.1781 36.4844C66.2927 36.651 66.376 36.8125 66.4281 36.9688C66.4906 37.1146 66.4958 37.3021 66.4438 37.5312L66.1938 38C66.0688 38.0833 65.9594 38.151 65.8656 38.2031C65.7719 38.2448 65.6521 38.2865 65.5063 38.3281H55.225V41.1719H66.8031C67.3969 41.2656 67.7094 41.6458 67.7406 42.3125C67.6365 42.8854 67.2979 43.2188 66.725 43.3125H54.0688ZM53.9906 33.9375L53.3969 33.6562C53.2719 33.4792 53.1885 33.3125 53.1469 33.1562C53.1052 33 53.0948 32.8073 53.1156 32.5781C53.3344 32.1302 53.6573 31.8698 54.0844 31.7969H66.7719C67.3865 31.8906 67.7094 32.2656 67.7406 32.9219C67.7094 33.0781 67.6677 33.2135 67.6156 33.3281C67.5635 33.4427 67.475 33.5625 67.35 33.6875L66.85 33.9375H53.9906ZM72.05 43.3125C71.9146 43.2708 71.7844 43.224 71.6594 43.1719C71.5344 43.1198 71.4146 43.026 71.3 42.8906L71.0969 42.5156V37.0156C71.2323 36.5469 71.5344 36.2656 72.0031 36.1719H83.5969L84.1594 36.4844C84.274 36.651 84.3573 36.8125 84.4094 36.9688C84.4719 37.1146 84.4771 37.3021 84.425 37.5312L84.175 38C84.05 38.0833 83.9406 38.151 83.8469 38.2031C83.7531 38.2448 83.6333 38.2865 83.4875 38.3281H73.2063V41.1719H84.7844C85.3781 41.2656 85.6906 41.6458 85.7219 42.3125C85.6177 42.8854 85.2792 43.2188 84.7063 43.3125H72.05ZM71.9719 33.9375L71.3781 33.6562C71.2531 33.4792 71.1698 33.3125 71.1281 33.1562C71.0865 33 71.076 32.8073 71.0969 32.5781C71.3156 32.1302 71.6385 31.8698 72.0656 31.7969H84.7531C85.3677 31.8906 85.6906 32.2656 85.7219 32.9219C85.6906 33.0781 85.649 33.2135 85.5969 33.3281C85.5448 33.4427 85.4563 33.5625 85.3313 33.6875L84.8313 33.9375H71.9719ZM117.7 43.3906C117.554 43.3594 117.414 43.3177 117.278 43.2656C117.143 43.224 117.013 43.1406 116.888 43.0156L115.044 40.1875H107.841L105.919 43.1094C105.263 43.4948 104.747 43.4531 104.372 42.9844C104.268 42.849 104.205 42.7083 104.184 42.5625C104.153 42.4062 104.153 42.2292 104.184 42.0312L106.309 38.6406C106.476 38.1927 106.804 38.0104 107.294 38.0938L113.638 38.0781L110.528 33.4219C110.289 32.8177 110.382 32.349 110.809 32.0156C111.247 31.6406 111.721 31.6771 112.231 32.125L118.622 41.6875C118.83 42.0521 118.835 42.4427 118.638 42.8594C118.408 43.1094 118.231 43.2552 118.106 43.2969C117.992 43.3385 117.856 43.3698 117.7 43.3906ZM123.197 43.3125C122.905 43.2708 122.65 43.1302 122.431 42.8906L122.228 42.5156V32.6094C122.468 32.0677 122.843 31.7969 123.353 31.7969C123.676 31.8281 123.952 31.9844 124.181 32.2656L124.338 32.5938V41.1719H135.931C136.483 41.3177 136.791 41.6979 136.853 42.3125C136.718 42.8854 136.379 43.2188 135.838 43.3125H123.197ZM141.147 43.3125C140.855 43.2708 140.6 43.1302 140.381 42.8906L140.178 42.5156V32.6094C140.418 32.0677 140.793 31.7969 141.303 31.7969C141.626 31.8281 141.902 31.9844 142.131 32.2656L142.287 32.5938V41.1719H153.881C154.433 41.3177 154.741 41.6979 154.803 42.3125C154.668 42.8854 154.329 43.2188 153.787 43.3125H141.147Z" fill="#EF2E65"/>
</svg>
