<svg width="1380" height="300" viewBox="0 0 1380 300" fill="#080808" xmlns="http://www.w3.org/2000/svg">
<path d="M1315.5 299.209L116.851 299.21C114.804 299.21 112.807 298.582 111.129 297.41L56.7753 259.485C54.0949 257.615 52.4976 254.552 52.4976 251.284L52.4999 36.1057C52.4999 30.5829 56.9771 26.1058 62.4999 26.1058L106.227 26.1058C108.88 26.1058 111.425 25.0516 113.3 23.1751L131.926 4.54043C133.801 2.66399 136.345 1.60973 138.998 1.60973L601.275 1.6097C603.928 1.6097 606.473 2.66395 608.348 4.54039L626.974 23.1751C628.849 25.0515 631.393 26.1058 634.046 26.1058L1271.79 26.1057C1274.13 26.1057 1276.41 26.9304 1278.2 28.4356L1321.92 65.0023C1324.19 66.9023 1325.5 69.7112 1325.5 72.6724L1325.5 289.209C1325.5 294.732 1321.02 299.209 1315.5 299.209Z" stroke="#2E65EF" stroke-width="1.5"/>
<path d="M241.708 185.144V200H239.461V185.144H233.858V183.105H247.311V185.144H241.708ZM257.492 193.628C257.492 195.85 257.012 197.53 256.051 198.669C255.099 199.809 253.708 200.378 251.876 200.378C250.045 200.378 248.646 199.817 247.677 198.694C246.709 197.563 246.225 195.874 246.225 193.628C246.225 191.341 246.709 189.636 247.677 188.513C248.654 187.39 250.054 186.829 251.876 186.829C253.716 186.829 255.111 187.402 256.063 188.55C257.016 189.689 257.492 191.382 257.492 193.628ZM255.319 193.628C255.319 191.886 255.03 190.621 254.452 189.832C253.882 189.042 253.024 188.647 251.876 188.647C250.696 188.647 249.822 189.046 249.252 189.844C248.682 190.633 248.397 191.895 248.397 193.628C248.397 195.296 248.67 196.533 249.215 197.339C249.769 198.145 250.656 198.547 251.876 198.547C253.04 198.547 253.903 198.149 254.464 197.351C255.034 196.554 255.319 195.312 255.319 193.628ZM268.296 193.848C268.296 195.54 268.585 196.749 269.163 197.473C269.74 198.189 270.668 198.547 271.946 198.547C272.515 198.547 273.016 198.429 273.447 198.193C273.879 197.949 274.294 197.559 274.692 197.021L276.426 198.096C275.938 198.828 275.343 199.394 274.644 199.792C273.944 200.183 272.996 200.378 271.799 200.378C269.895 200.378 268.471 199.825 267.527 198.718C266.591 197.611 266.123 195.939 266.123 193.701C266.123 191.357 266.579 189.628 267.49 188.513C268.41 187.39 269.793 186.829 271.641 186.829C273.301 186.829 274.546 187.309 275.376 188.269C276.206 189.221 276.621 190.69 276.621 192.676V193.848H268.296ZM274.57 192.2C274.554 191.052 274.31 190.161 273.838 189.526C273.374 188.892 272.617 188.574 271.567 188.574C270.566 188.574 269.814 188.863 269.309 189.441C268.813 190.011 268.483 190.93 268.32 192.2H274.57ZM287.522 200V192.456C287.522 191.235 287.461 190.422 287.339 190.015C287.217 189.608 287.018 189.315 286.741 189.136C286.465 188.949 286.062 188.855 285.533 188.855C284.996 188.855 284.369 189.058 283.653 189.465C282.937 189.872 282.245 190.369 281.578 190.955V200H279.478V187.195H281.578V189.099C282.172 188.505 282.863 187.98 283.653 187.524C284.442 187.061 285.236 186.829 286.033 186.829C287.27 186.829 288.178 187.183 288.755 187.891C289.333 188.59 289.622 189.779 289.622 191.455V200H287.522ZM300.462 200V198.401C299.811 198.971 299.156 199.443 298.497 199.817C297.838 200.191 297.093 200.378 296.263 200.378C295.042 200.378 294.098 200.008 293.431 199.268C292.772 198.519 292.442 197.563 292.442 196.399C292.442 195.52 292.613 194.792 292.955 194.214C293.305 193.628 293.806 193.168 294.457 192.834C295.116 192.493 296.068 192.249 297.313 192.102L300.462 191.821V191.199C300.462 190.214 300.186 189.543 299.632 189.185C299.087 188.826 298.33 188.647 297.362 188.647C296.499 188.647 295.832 188.798 295.36 189.099C294.896 189.4 294.562 189.726 294.359 190.076L292.638 189.026C293.028 188.318 293.622 187.777 294.42 187.402C295.226 187.02 296.222 186.829 297.411 186.829C299.25 186.829 300.568 187.162 301.366 187.83C302.163 188.497 302.562 189.653 302.562 191.296V200H300.462ZM300.462 193.506L298.412 193.701C297.02 193.823 296.039 194.096 295.47 194.519C294.9 194.934 294.615 195.544 294.615 196.35C294.615 197.115 294.806 197.664 295.189 197.998C295.571 198.332 296.145 198.499 296.91 198.499C297.228 198.499 297.541 198.442 297.85 198.328C298.159 198.206 298.465 198.059 298.766 197.888C299.067 197.709 299.356 197.51 299.632 197.29C299.917 197.062 300.194 196.842 300.462 196.631V193.506ZM316.942 193.506C316.942 195.662 316.499 197.347 315.612 198.56C314.733 199.772 313.5 200.378 311.913 200.378C311.229 200.378 310.562 200.24 309.911 199.963C309.26 199.687 308.694 199.349 308.214 198.95V200H306.115V181.824H308.214V188.477C308.694 188.013 309.272 187.622 309.948 187.305C310.623 186.987 311.347 186.829 312.121 186.829C313.699 186.829 314.896 187.406 315.709 188.562C316.531 189.718 316.942 191.366 316.942 193.506ZM314.77 193.555C314.77 191.846 314.509 190.609 313.988 189.844C313.467 189.079 312.711 188.696 311.718 188.696C311.067 188.696 310.436 188.863 309.826 189.197C309.215 189.53 308.678 189.913 308.214 190.344V197.119C308.678 197.51 309.215 197.839 309.826 198.108C310.436 198.368 311.034 198.499 311.62 198.499C312.564 198.499 313.325 198.1 313.903 197.302C314.481 196.505 314.77 195.256 314.77 193.555ZM320.043 200V181.824H322.143V200H320.043ZM327.417 193.848C327.417 195.54 327.706 196.749 328.284 197.473C328.861 198.189 329.789 198.547 331.067 198.547C331.637 198.547 332.137 198.429 332.568 198.193C333 197.949 333.415 197.559 333.813 197.021L335.547 198.096C335.059 198.828 334.465 199.394 333.765 199.792C333.065 200.183 332.117 200.378 330.92 200.378C329.016 200.378 327.592 199.825 326.648 198.718C325.712 197.611 325.244 195.939 325.244 193.701C325.244 191.357 325.7 189.628 326.611 188.513C327.531 187.39 328.914 186.829 330.762 186.829C332.422 186.829 333.667 187.309 334.497 188.269C335.327 189.221 335.742 190.69 335.742 192.676V193.848H327.417ZM333.691 192.2C333.675 191.052 333.431 190.161 332.959 189.526C332.495 188.892 331.738 188.574 330.688 188.574C329.688 188.574 328.935 188.863 328.43 189.441C327.934 190.011 327.604 190.93 327.441 192.2H333.691ZM356.91 195.044C356.91 196.777 356.357 198.039 355.25 198.828C354.143 199.609 352.564 200 350.514 200H345.008V183.105H350.013C352.08 183.105 353.569 183.403 354.481 183.997C355.401 184.583 355.86 185.567 355.86 186.951C355.86 188.082 355.608 188.944 355.104 189.539C354.607 190.133 353.985 190.544 353.236 190.771C354.351 190.926 355.242 191.337 355.909 192.004C356.576 192.672 356.91 193.685 356.91 195.044ZM353.541 187.451C353.541 186.589 353.272 185.982 352.735 185.632C352.198 185.274 351.242 185.095 349.867 185.095H347.267V190.125H349.757C351.108 190.125 352.076 189.909 352.662 189.478C353.248 189.046 353.541 188.371 353.541 187.451ZM354.566 194.946C354.566 194.246 354.428 193.697 354.151 193.298C353.883 192.891 353.464 192.594 352.894 192.407C352.324 192.22 351.405 192.126 350.135 192.126H347.267V197.949H349.562C350.994 197.949 352.031 197.856 352.674 197.668C353.317 197.473 353.793 197.16 354.103 196.729C354.412 196.289 354.566 195.695 354.566 194.946ZM367.165 200V198.401C366.514 198.971 365.858 199.443 365.199 199.817C364.54 200.191 363.795 200.378 362.965 200.378C361.745 200.378 360.801 200.008 360.133 199.268C359.474 198.519 359.145 197.563 359.145 196.399C359.145 195.52 359.315 194.792 359.657 194.214C360.007 193.628 360.508 193.168 361.159 192.834C361.818 192.493 362.77 192.249 364.015 192.102L367.165 191.821V191.199C367.165 190.214 366.888 189.543 366.334 189.185C365.789 188.826 365.032 188.647 364.064 188.647C363.201 188.647 362.534 188.798 362.062 189.099C361.598 189.4 361.264 189.726 361.061 190.076L359.34 189.026C359.73 188.318 360.325 187.777 361.122 187.402C361.928 187.02 362.925 186.829 364.113 186.829C365.952 186.829 367.27 187.162 368.068 187.83C368.865 188.497 369.264 189.653 369.264 191.296V200H367.165ZM367.165 193.506L365.114 193.701C363.722 193.823 362.742 194.096 362.172 194.519C361.602 194.934 361.317 195.544 361.317 196.35C361.317 197.115 361.509 197.664 361.891 197.998C362.274 198.332 362.847 198.499 363.612 198.499C363.93 198.499 364.243 198.442 364.552 198.328C364.861 198.206 365.167 198.059 365.468 197.888C365.769 197.709 366.058 197.51 366.334 197.29C366.619 197.062 366.896 196.842 367.165 196.631V193.506ZM380.861 200V192.456C380.861 191.235 380.8 190.422 380.678 190.015C380.556 189.608 380.357 189.315 380.08 189.136C379.803 188.949 379.401 188.855 378.872 188.855C378.334 188.855 377.708 189.058 376.992 189.465C376.276 189.872 375.584 190.369 374.917 190.955V200H372.817V187.195H374.917V189.099C375.511 188.505 376.202 187.98 376.992 187.524C377.781 187.061 378.575 186.829 379.372 186.829C380.609 186.829 381.516 187.183 382.094 187.891C382.672 188.59 382.961 189.779 382.961 191.455V200H380.861ZM394.07 200L390.005 194.25L388.625 195.776V200H386.526V181.824H388.625V193.176L393.826 187.195H396.401L391.299 192.798L396.67 200H394.07ZM398.941 200V181.824H401.041V200H398.941ZM406.314 193.848C406.314 195.54 406.603 196.749 407.181 197.473C407.759 198.189 408.687 198.547 409.964 198.547C410.534 198.547 411.035 198.429 411.466 198.193C411.897 197.949 412.312 197.559 412.711 197.021L414.444 198.096C413.956 198.828 413.362 199.394 412.662 199.792C411.962 200.183 411.014 200.378 409.818 200.378C407.914 200.378 406.489 199.825 405.545 198.718C404.61 197.611 404.142 195.939 404.142 193.701C404.142 191.357 404.597 189.628 405.509 188.513C406.428 187.39 407.812 186.829 409.659 186.829C411.319 186.829 412.564 187.309 413.395 188.269C414.225 189.221 414.64 190.69 414.64 192.676V193.848H406.314ZM412.589 192.2C412.573 191.052 412.328 190.161 411.856 189.526C411.393 188.892 410.636 188.574 409.586 188.574C408.585 188.574 407.832 188.863 407.328 189.441C406.831 190.011 406.502 190.93 406.339 192.2H412.589ZM426.249 196.545C426.249 197.742 425.826 198.682 424.979 199.365C424.133 200.041 422.929 200.378 421.366 200.378C420.3 200.378 419.344 200.179 418.498 199.78C417.651 199.373 417.033 198.804 416.642 198.071L418.327 197.046C418.97 198.079 420.003 198.596 421.427 198.596C422.355 198.596 423.047 198.421 423.502 198.071C423.966 197.713 424.198 197.233 424.198 196.631C424.198 196.273 424.117 195.984 423.954 195.764C423.791 195.536 423.539 195.341 423.197 195.178C422.855 195.007 422.156 194.779 421.098 194.495C419.576 194.145 418.502 193.66 417.875 193.042C417.257 192.424 416.947 191.602 416.947 190.576C416.947 189.445 417.354 188.538 418.168 187.854C418.982 187.17 420.109 186.829 421.549 186.829C422.664 186.829 423.6 187.048 424.357 187.488C425.114 187.927 425.667 188.456 426.017 189.075L424.345 190.1C423.677 189.099 422.729 188.599 421.5 188.599C420.801 188.599 420.207 188.753 419.718 189.062C419.238 189.372 418.998 189.852 418.998 190.503C418.998 191.081 419.21 191.5 419.633 191.76C420.056 192.021 420.719 192.261 421.623 192.48C423.071 192.855 424.072 193.205 424.625 193.53C425.179 193.856 425.586 194.259 425.846 194.739C426.115 195.211 426.249 195.813 426.249 196.545ZM437.858 196.545C437.858 197.742 437.435 198.682 436.589 199.365C435.743 200.041 434.538 200.378 432.976 200.378C431.91 200.378 430.953 200.179 430.107 199.78C429.261 199.373 428.642 198.804 428.251 198.071L429.936 197.046C430.579 198.079 431.612 198.596 433.037 198.596C433.964 198.596 434.656 198.421 435.112 198.071C435.576 197.713 435.808 197.233 435.808 196.631C435.808 196.273 435.726 195.984 435.563 195.764C435.401 195.536 435.148 195.341 434.807 195.178C434.465 195.007 433.765 194.779 432.707 194.495C431.185 194.145 430.111 193.66 429.484 193.042C428.866 192.424 428.557 191.602 428.557 190.576C428.557 189.445 428.964 188.538 429.777 187.854C430.591 187.17 431.718 186.829 433.159 186.829C434.274 186.829 435.209 187.048 435.966 187.488C436.723 187.927 437.277 188.456 437.626 189.075L435.954 190.1C435.287 189.099 434.339 188.599 433.11 188.599C432.41 188.599 431.816 188.753 431.328 189.062C430.847 189.372 430.607 189.852 430.607 190.503C430.607 191.081 430.819 191.5 431.242 191.76C431.665 192.021 432.329 192.261 433.232 192.48C434.681 192.855 435.681 193.205 436.235 193.53C436.788 193.856 437.195 194.259 437.456 194.739C437.724 195.211 437.858 195.813 437.858 196.545ZM452.971 191.553C452.971 193.62 452.703 195.264 452.166 196.484C451.637 197.705 450.815 198.596 449.7 199.158C448.593 199.719 447.03 200 445.012 200H440.715V183.105H444.963C446.933 183.105 448.487 183.39 449.626 183.96C450.766 184.521 451.608 185.417 452.153 186.646C452.699 187.874 452.971 189.51 452.971 191.553ZM450.591 191.528C450.591 189.917 450.412 188.656 450.054 187.744C449.696 186.833 449.106 186.174 448.284 185.767C447.462 185.352 446.314 185.144 444.841 185.144H442.961V197.949H444.841C446.322 197.949 447.466 197.746 448.271 197.339C449.085 196.924 449.675 196.265 450.042 195.361C450.408 194.45 450.591 193.172 450.591 191.528ZM454.021 200L459.795 183.105H462.725L468.499 200H466.119L464.654 195.605H457.769L456.329 200H454.021ZM458.453 193.555H463.946L461.199 185.327L458.453 193.555ZM483.307 191.553C483.307 194.588 482.733 196.814 481.585 198.23C480.446 199.646 478.729 200.354 476.434 200.354C474.107 200.354 472.377 199.634 471.246 198.193C470.123 196.753 469.562 194.539 469.562 191.553C469.562 188.59 470.119 186.385 471.234 184.937C472.349 183.48 474.082 182.751 476.434 182.751C478.753 182.751 480.479 183.464 481.61 184.888C482.741 186.312 483.307 188.534 483.307 191.553ZM480.938 191.553C480.938 189.217 480.584 187.5 479.876 186.401C479.177 185.303 478.029 184.753 476.434 184.753C474.839 184.753 473.688 185.303 472.979 186.401C472.28 187.5 471.93 189.217 471.93 191.553C471.93 193.905 472.284 195.626 472.992 196.716C473.708 197.807 474.855 198.352 476.434 198.352C478.005 198.352 479.148 197.811 479.864 196.729C480.58 195.646 480.938 193.921 480.938 191.553ZM489.13 184.375C489.13 185.376 488.979 186.287 488.678 187.109C488.385 187.923 488.08 188.521 487.763 188.904H486.481C486.766 188.546 487.006 188.017 487.201 187.317C487.405 186.617 487.506 186.011 487.506 185.498C487.026 185.498 486.68 185.392 486.469 185.181C486.265 184.961 486.164 184.611 486.164 184.131C486.164 183.675 486.273 183.333 486.493 183.105C486.721 182.869 487.099 182.751 487.628 182.751C488.182 182.751 488.568 182.89 488.788 183.167C489.016 183.435 489.13 183.838 489.13 184.375ZM501.374 196.545C501.374 197.742 500.951 198.682 500.104 199.365C499.258 200.041 498.054 200.378 496.491 200.378C495.425 200.378 494.469 200.179 493.623 199.78C492.776 199.373 492.158 198.804 491.767 198.071L493.452 197.046C494.095 198.079 495.128 198.596 496.552 198.596C497.48 198.596 498.172 198.421 498.627 198.071C499.091 197.713 499.323 197.233 499.323 196.631C499.323 196.273 499.242 195.984 499.079 195.764C498.916 195.536 498.664 195.341 498.322 195.178C497.98 195.007 497.281 194.779 496.223 194.495C494.701 194.145 493.627 193.66 493 193.042C492.382 192.424 492.072 191.602 492.072 190.576C492.072 189.445 492.479 188.538 493.293 187.854C494.107 187.17 495.234 186.829 496.674 186.829C497.789 186.829 498.725 187.048 499.482 187.488C500.239 187.927 500.792 188.456 501.142 189.075L499.47 190.1C498.802 189.099 497.854 188.599 496.625 188.599C495.926 188.599 495.332 188.753 494.843 189.062C494.363 189.372 494.123 189.852 494.123 190.503C494.123 191.081 494.335 191.5 494.758 191.76C495.181 192.021 495.844 192.261 496.748 192.48C498.196 192.855 499.197 193.205 499.75 193.53C500.304 193.856 500.711 194.259 500.971 194.739C501.24 195.211 501.374 195.813 501.374 196.545ZM516.89 200C516.076 200.252 515.271 200.378 514.473 200.378C513.171 200.378 512.235 200.037 511.666 199.353C511.104 198.669 510.823 197.595 510.823 196.13V188.953H508.992V187.195H510.823V183.63H512.923V187.195H516.17V188.953H512.923V195.728C512.923 196.761 513.025 197.502 513.228 197.949C513.44 198.397 513.903 198.621 514.62 198.621C515.238 198.621 515.812 198.507 516.341 198.279L516.89 200ZM520.187 193.848C520.187 195.54 520.475 196.749 521.053 197.473C521.631 198.189 522.559 198.547 523.836 198.547C524.406 198.547 524.907 198.429 525.338 198.193C525.769 197.949 526.184 197.559 526.583 197.021L528.316 198.096C527.828 198.828 527.234 199.394 526.534 199.792C525.834 200.183 524.886 200.378 523.69 200.378C521.786 200.378 520.361 199.825 519.417 198.718C518.482 197.611 518.014 195.939 518.014 193.701C518.014 191.357 518.469 189.628 519.381 188.513C520.3 187.39 521.684 186.829 523.531 186.829C525.191 186.829 526.437 187.309 527.267 188.269C528.097 189.221 528.512 190.69 528.512 192.676V193.848H520.187ZM526.461 192.2C526.445 191.052 526.201 190.161 525.729 189.526C525.265 188.892 524.508 188.574 523.458 188.574C522.457 188.574 521.704 188.863 521.2 189.441C520.703 190.011 520.374 190.93 520.211 192.2H526.461ZM540.988 198.022C540.589 198.706 540.036 199.272 539.328 199.719C538.62 200.159 537.643 200.378 536.398 200.378C534.518 200.378 533.102 199.813 532.15 198.682C531.198 197.542 530.722 195.858 530.722 193.628C530.722 191.398 531.194 189.709 532.138 188.562C533.082 187.406 534.473 186.829 536.312 186.829C538.42 186.829 539.922 187.61 540.817 189.172L539.096 190.222C538.778 189.726 538.404 189.339 537.973 189.062C537.549 188.786 536.988 188.647 536.288 188.647C535.059 188.647 534.184 189.095 533.664 189.99C533.151 190.877 532.895 192.106 532.895 193.677C532.895 194.873 533.017 195.805 533.261 196.472C533.505 197.139 533.883 197.652 534.396 198.01C534.917 198.368 535.576 198.547 536.374 198.547C537.057 198.547 537.615 198.421 538.046 198.169C538.477 197.909 538.884 197.51 539.267 196.973L540.988 198.022ZM551.486 200V192.456C551.486 191.235 551.425 190.426 551.303 190.027C551.189 189.62 550.994 189.323 550.717 189.136C550.441 188.949 550.034 188.855 549.497 188.855C548.959 188.855 548.333 189.058 547.617 189.465C546.901 189.872 546.209 190.369 545.542 190.955V200H543.442V181.824H545.542V189.099C546.136 188.505 546.827 187.98 547.617 187.524C548.406 187.061 549.2 186.829 549.997 186.829C551.234 186.829 552.141 187.183 552.719 187.891C553.297 188.59 553.586 189.779 553.586 191.455V200H551.486ZM565.195 200V192.456C565.195 191.235 565.134 190.422 565.012 190.015C564.89 189.608 564.691 189.315 564.414 189.136C564.137 188.949 563.735 188.855 563.206 188.855C562.668 188.855 562.042 189.058 561.326 189.465C560.61 189.872 559.918 190.369 559.25 190.955V200H557.151V187.195H559.25V189.099C559.845 188.505 560.536 187.98 561.326 187.524C562.115 187.061 562.909 186.829 563.706 186.829C564.943 186.829 565.85 187.183 566.428 187.891C567.006 188.59 567.295 189.779 567.295 191.455V200H565.195ZM573.289 183.948C573.289 184.436 573.179 184.77 572.959 184.949C572.74 185.12 572.39 185.205 571.91 185.205C571.397 185.205 571.043 185.095 570.848 184.875C570.652 184.656 570.555 184.347 570.555 183.948C570.555 183.516 570.66 183.203 570.872 183.008C571.084 182.804 571.43 182.703 571.91 182.703C572.406 182.703 572.76 182.8 572.972 182.996C573.183 183.183 573.289 183.5 573.289 183.948ZM570.86 200V187.195H572.959V200H570.86ZM586.229 198.022C585.83 198.706 585.277 199.272 584.569 199.719C583.861 200.159 582.884 200.378 581.639 200.378C579.759 200.378 578.343 199.813 577.391 198.682C576.439 197.542 575.963 195.858 575.963 193.628C575.963 191.398 576.435 189.709 577.379 188.562C578.323 187.406 579.715 186.829 581.554 186.829C583.661 186.829 585.163 187.61 586.058 189.172L584.337 190.222C584.02 189.726 583.645 189.339 583.214 189.062C582.791 188.786 582.229 188.647 581.529 188.647C580.3 188.647 579.426 189.095 578.905 189.99C578.392 190.877 578.136 192.106 578.136 193.677C578.136 194.873 578.258 195.805 578.502 196.472C578.746 197.139 579.125 197.652 579.637 198.01C580.158 198.368 580.817 198.547 581.615 198.547C582.298 198.547 582.856 198.421 583.287 198.169C583.718 197.909 584.125 197.51 584.508 196.973L586.229 198.022ZM595.958 200V198.401C595.307 198.971 594.652 199.443 593.993 199.817C593.334 200.191 592.589 200.378 591.759 200.378C590.539 200.378 589.595 200.008 588.927 199.268C588.268 198.519 587.938 197.563 587.938 196.399C587.938 195.52 588.109 194.792 588.451 194.214C588.801 193.628 589.302 193.168 589.953 192.834C590.612 192.493 591.564 192.249 592.809 192.102L595.958 191.821V191.199C595.958 190.214 595.682 189.543 595.128 189.185C594.583 188.826 593.826 188.647 592.858 188.647C591.995 188.647 591.328 188.798 590.856 189.099C590.392 189.4 590.058 189.726 589.855 190.076L588.134 189.026C588.524 188.318 589.118 187.777 589.916 187.402C590.722 187.02 591.719 186.829 592.907 186.829C594.746 186.829 596.064 187.162 596.862 187.83C597.659 188.497 598.058 189.653 598.058 191.296V200H595.958ZM595.958 193.506L593.908 193.701C592.516 193.823 591.535 194.096 590.966 194.519C590.396 194.934 590.111 195.544 590.111 196.35C590.111 197.115 590.303 197.664 590.685 197.998C591.068 198.332 591.641 198.499 592.406 198.499C592.724 198.499 593.037 198.442 593.346 198.328C593.655 198.206 593.961 198.059 594.262 197.888C594.563 197.709 594.852 197.51 595.128 197.29C595.413 197.062 595.69 196.842 595.958 196.631V193.506ZM601.708 200V181.824H603.808V200H601.708ZM615.345 193.848C615.345 195.54 615.634 196.749 616.211 197.473C616.789 198.189 617.717 198.547 618.995 198.547C619.564 198.547 620.065 198.429 620.496 198.193C620.927 197.949 621.342 197.559 621.741 197.021L623.475 198.096C622.986 198.828 622.392 199.394 621.692 199.792C620.993 200.183 620.044 200.378 618.848 200.378C616.944 200.378 615.52 199.825 614.576 198.718C613.64 197.611 613.172 195.939 613.172 193.701C613.172 191.357 613.628 189.628 614.539 188.513C615.459 187.39 616.842 186.829 618.689 186.829C620.35 186.829 621.595 187.309 622.425 188.269C623.255 189.221 623.67 190.69 623.67 192.676V193.848H615.345ZM621.619 192.2C621.603 191.052 621.359 190.161 620.887 189.526C620.423 188.892 619.666 188.574 618.616 188.574C617.615 188.574 616.862 188.863 616.358 189.441C615.861 190.011 615.532 190.93 615.369 192.2H621.619ZM634.571 200V192.456C634.571 191.235 634.51 190.422 634.388 190.015C634.266 189.608 634.067 189.315 633.79 189.136C633.513 188.949 633.111 188.855 632.582 188.855C632.044 188.855 631.418 189.058 630.702 189.465C629.986 189.872 629.294 190.369 628.626 190.955V200H626.527V187.195H628.626V189.099C629.221 188.505 629.912 187.98 630.702 187.524C631.491 187.061 632.285 186.829 633.082 186.829C634.319 186.829 635.226 187.183 635.804 187.891C636.382 188.59 636.671 189.779 636.671 191.455V200H634.571ZM648.305 200V198.73C647.825 199.194 647.247 199.585 646.571 199.902C645.896 200.22 645.176 200.378 644.411 200.378C642.873 200.378 641.684 199.801 640.846 198.645C640.008 197.481 639.589 195.833 639.589 193.701C639.589 191.61 640.045 189.941 640.956 188.696C641.868 187.451 643.129 186.829 644.74 186.829C646.034 186.829 647.222 187.301 648.305 188.245V181.824H650.417V200H648.305ZM648.305 190.076C647.19 189.156 646.091 188.696 645.009 188.696C644.057 188.696 643.275 189.099 642.665 189.905C642.063 190.702 641.762 191.951 641.762 193.652C641.762 196.883 642.779 198.499 644.813 198.499C645.481 198.499 646.116 198.332 646.718 197.998C647.328 197.664 647.857 197.282 648.305 196.851V190.076ZM655.593 193.848C655.593 195.54 655.882 196.749 656.459 197.473C657.037 198.189 657.965 198.547 659.243 198.547C659.812 198.547 660.313 198.429 660.744 198.193C661.175 197.949 661.59 197.559 661.989 197.021L663.723 198.096C663.234 198.828 662.64 199.394 661.94 199.792C661.241 200.183 660.292 200.378 659.096 200.378C657.192 200.378 655.768 199.825 654.824 198.718C653.888 197.611 653.42 195.939 653.42 193.701C653.42 191.357 653.876 189.628 654.787 188.513C655.707 187.39 657.09 186.829 658.938 186.829C660.598 186.829 661.843 187.309 662.673 188.269C663.503 189.221 663.918 190.69 663.918 192.676V193.848H655.593ZM661.867 192.2C661.851 191.052 661.607 190.161 661.135 189.526C660.671 188.892 659.914 188.574 658.864 188.574C657.863 188.574 657.111 188.863 656.606 189.441C656.11 190.011 655.78 190.93 655.617 192.2H661.867ZM674.05 200V198.401C673.399 198.971 672.744 199.443 672.085 199.817C671.426 200.191 670.681 200.378 669.851 200.378C668.63 200.378 667.686 200.008 667.019 199.268C666.36 198.519 666.03 197.563 666.03 196.399C666.03 195.52 666.201 194.792 666.543 194.214C666.893 193.628 667.393 193.168 668.044 192.834C668.704 192.493 669.656 192.249 670.901 192.102L674.05 191.821V191.199C674.05 190.214 673.774 189.543 673.22 189.185C672.675 188.826 671.918 188.647 670.95 188.647C670.087 188.647 669.42 188.798 668.948 189.099C668.484 189.4 668.15 189.726 667.947 190.076L666.226 189.026C666.616 188.318 667.21 187.777 668.008 187.402C668.813 187.02 669.81 186.829 670.999 186.829C672.838 186.829 674.156 187.162 674.954 187.83C675.751 188.497 676.15 189.653 676.15 191.296V200H674.05ZM674.05 193.506L672 193.701C670.608 193.823 669.627 194.096 669.058 194.519C668.488 194.934 668.203 195.544 668.203 196.35C668.203 197.115 668.394 197.664 668.777 197.998C669.159 198.332 669.733 198.499 670.498 198.499C670.815 198.499 671.129 198.442 671.438 198.328C671.747 198.206 672.052 198.059 672.354 197.888C672.655 197.709 672.944 197.51 673.22 197.29C673.505 197.062 673.782 196.842 674.05 196.631V193.506ZM684.415 200H682.339L677.859 187.195H680.118L683.438 197.253L686.734 187.195H688.907L684.415 200ZM701.493 193.628C701.493 195.85 701.013 197.53 700.052 198.669C699.1 199.809 697.708 200.378 695.877 200.378C694.046 200.378 692.647 199.817 691.678 198.694C690.71 197.563 690.226 195.874 690.226 193.628C690.226 191.341 690.71 189.636 691.678 188.513C692.655 187.39 694.055 186.829 695.877 186.829C697.717 186.829 699.112 187.402 700.064 188.55C701.017 189.689 701.493 191.382 701.493 193.628ZM699.32 193.628C699.32 191.886 699.031 190.621 698.453 189.832C697.883 189.042 697.025 188.647 695.877 188.647C694.697 188.647 693.823 189.046 693.253 189.844C692.683 190.633 692.398 191.895 692.398 193.628C692.398 195.296 692.671 196.533 693.216 197.339C693.77 198.145 694.657 198.547 695.877 198.547C697.041 198.547 697.904 198.149 698.465 197.351C699.035 196.554 699.32 195.312 699.32 193.628ZM711.43 189.27C711.202 189.172 710.876 189.124 710.453 189.124C709.826 189.124 709.22 189.27 708.634 189.563C708.056 189.848 707.381 190.377 706.608 191.15V200H704.508V187.195H706.608V189.27C707.194 188.676 707.808 188.151 708.451 187.695C709.102 187.231 709.822 187 710.612 187C711.141 187 711.564 187.085 711.881 187.256L711.43 189.27ZM722.16 196.545C722.16 197.742 721.737 198.682 720.891 199.365C720.044 200.041 718.84 200.378 717.277 200.378C716.211 200.378 715.255 200.179 714.409 199.78C713.562 199.373 712.944 198.804 712.553 198.071L714.238 197.046C714.881 198.079 715.914 198.596 717.338 198.596C718.266 198.596 718.958 198.421 719.414 198.071C719.877 197.713 720.109 197.233 720.109 196.631C720.109 196.273 720.028 195.984 719.865 195.764C719.702 195.536 719.45 195.341 719.108 195.178C718.767 195.007 718.067 194.779 717.009 194.495C715.487 194.145 714.413 193.66 713.786 193.042C713.168 192.424 712.858 191.602 712.858 190.576C712.858 189.445 713.265 188.538 714.079 187.854C714.893 187.17 716.02 186.829 717.46 186.829C718.575 186.829 719.511 187.048 720.268 187.488C721.025 187.927 721.578 188.456 721.928 189.075L720.256 190.1C719.589 189.099 718.64 188.599 717.412 188.599C716.712 188.599 716.118 188.753 715.629 189.062C715.149 189.372 714.909 189.852 714.909 190.503C714.909 191.081 715.121 191.5 715.544 191.76C715.967 192.021 716.63 192.261 717.534 192.48C718.982 192.855 719.983 193.205 720.537 193.53C721.09 193.856 721.497 194.259 721.757 194.739C722.026 195.211 722.16 195.813 722.16 196.545ZM737.676 200C736.862 200.252 736.057 200.378 735.259 200.378C733.957 200.378 733.021 200.037 732.452 199.353C731.89 198.669 731.609 197.595 731.609 196.13V188.953H729.778V187.195H731.609V183.63H733.709V187.195H736.956V188.953H733.709V195.728C733.709 196.761 733.811 197.502 734.014 197.949C734.226 198.397 734.69 198.621 735.406 198.621C736.024 198.621 736.598 198.507 737.127 198.279L737.676 200ZM747.735 200V192.456C747.735 191.235 747.674 190.426 747.552 190.027C747.438 189.62 747.243 189.323 746.966 189.136C746.69 188.949 746.283 188.855 745.746 188.855C745.208 188.855 744.582 189.058 743.866 189.465C743.15 189.872 742.458 190.369 741.791 190.955V200H739.691V181.824H741.791V189.099C742.385 188.505 743.076 187.98 743.866 187.524C744.655 187.061 745.449 186.829 746.246 186.829C747.483 186.829 748.39 187.183 748.968 187.891C749.546 188.59 749.835 189.779 749.835 191.455V200H747.735ZM760.321 189.27C760.093 189.172 759.768 189.124 759.345 189.124C758.718 189.124 758.112 189.27 757.526 189.563C756.948 189.848 756.273 190.377 755.5 191.15V200H753.4V187.195H755.5V189.27C756.085 188.676 756.7 188.151 757.343 187.695C757.994 187.231 758.714 187 759.503 187C760.032 187 760.456 187.085 760.773 187.256L760.321 189.27ZM772.675 193.628C772.675 195.85 772.195 197.53 771.235 198.669C770.283 199.809 768.891 200.378 767.06 200.378C765.229 200.378 763.829 199.817 762.861 198.694C761.892 197.563 761.408 195.874 761.408 193.628C761.408 191.341 761.892 189.636 762.861 188.513C763.837 187.39 765.237 186.829 767.06 186.829C768.899 186.829 770.295 187.402 771.247 188.55C772.199 189.689 772.675 191.382 772.675 193.628ZM770.502 193.628C770.502 191.886 770.214 190.621 769.636 189.832C769.066 189.042 768.208 188.647 767.06 188.647C765.88 188.647 765.005 189.046 764.436 189.844C763.866 190.633 763.581 191.895 763.581 193.628C763.581 195.296 763.854 196.533 764.399 197.339C764.952 198.145 765.839 198.547 767.06 198.547C768.224 198.547 769.086 198.149 769.648 197.351C770.218 196.554 770.502 195.312 770.502 193.628ZM783.638 200V198.096C782.987 198.747 782.271 199.292 781.489 199.731C780.708 200.163 779.943 200.378 779.194 200.378C778.34 200.378 777.644 200.22 777.107 199.902C776.578 199.577 776.191 199.093 775.947 198.45C775.711 197.799 775.593 196.899 775.593 195.752V187.195H777.693V194.751C777.693 195.972 777.754 196.785 777.876 197.192C778.006 197.599 778.21 197.896 778.486 198.083C778.763 198.263 779.166 198.352 779.695 198.352C780.224 198.352 780.846 198.149 781.562 197.742C782.279 197.327 782.97 196.83 783.638 196.252V187.195H785.737V200H783.638ZM799.581 199.719C799.581 201.436 799.153 202.714 798.299 203.552C797.452 204.399 796.045 204.822 794.075 204.822C792.195 204.822 790.645 204.423 789.424 203.625L790.206 201.929C791.304 202.694 792.594 203.076 794.075 203.076C795.271 203.076 796.134 202.824 796.663 202.319C797.2 201.823 797.469 201.001 797.469 199.854V198.352C796.989 198.816 796.415 199.207 795.748 199.524C795.08 199.841 794.356 200 793.575 200C792.004 200 790.808 199.443 789.986 198.328C789.164 197.205 788.753 195.585 788.753 193.469C788.753 191.386 789.213 189.758 790.132 188.586C791.052 187.415 792.309 186.829 793.904 186.829C795.198 186.829 796.386 187.301 797.469 188.245V187.195H799.581V199.719ZM797.469 190.076C796.354 189.156 795.255 188.696 794.173 188.696C793.107 188.696 792.297 189.111 791.744 189.941C791.198 190.771 790.926 191.931 790.926 193.42C790.926 195.064 791.182 196.261 791.695 197.009C792.208 197.75 792.968 198.12 793.978 198.12C795.149 198.12 796.313 197.571 797.469 196.472V190.076ZM811.275 200V192.456C811.275 191.235 811.214 190.426 811.092 190.027C810.978 189.62 810.783 189.323 810.506 189.136C810.23 188.949 809.823 188.855 809.286 188.855C808.749 188.855 808.122 189.058 807.406 189.465C806.69 189.872 805.998 190.369 805.331 190.955V200H803.231V181.824H805.331V189.099C805.925 188.505 806.616 187.98 807.406 187.524C808.195 187.061 808.989 186.829 809.786 186.829C811.023 186.829 811.931 187.183 812.508 187.891C813.086 188.59 813.375 189.779 813.375 191.455V200H811.275ZM831.271 200V198.73C830.791 199.194 830.214 199.585 829.538 199.902C828.863 200.22 828.142 200.378 827.377 200.378C825.839 200.378 824.651 199.801 823.813 198.645C822.975 197.481 822.556 195.833 822.556 193.701C822.556 191.61 823.011 189.941 823.923 188.696C824.834 187.451 826.096 186.829 827.707 186.829C829.001 186.829 830.189 187.301 831.271 188.245V181.824H833.383V200H831.271ZM831.271 190.076C830.157 189.156 829.058 188.696 827.976 188.696C827.023 188.696 826.242 189.099 825.632 189.905C825.03 190.702 824.729 191.951 824.729 193.652C824.729 196.883 825.746 198.499 827.78 198.499C828.448 198.499 829.082 198.332 829.685 197.998C830.295 197.664 830.824 197.282 831.271 196.851V190.076ZM838.56 193.848C838.56 195.54 838.848 196.749 839.426 197.473C840.004 198.189 840.932 198.547 842.209 198.547C842.779 198.547 843.28 198.429 843.711 198.193C844.142 197.949 844.557 197.559 844.956 197.021L846.689 198.096C846.201 198.828 845.607 199.394 844.907 199.792C844.207 200.183 843.259 200.378 842.063 200.378C840.159 200.378 838.735 199.825 837.791 198.718C836.855 197.611 836.387 195.939 836.387 193.701C836.387 191.357 836.842 189.628 837.754 188.513C838.674 187.39 840.057 186.829 841.904 186.829C843.564 186.829 844.81 187.309 845.64 188.269C846.47 189.221 846.885 190.69 846.885 192.676V193.848H838.56ZM844.834 192.2C844.818 191.052 844.574 190.161 844.102 189.526C843.638 188.892 842.881 188.574 841.831 188.574C840.83 188.574 840.077 188.863 839.573 189.441C839.076 190.011 838.747 190.93 838.584 192.2H844.834ZM854.844 200H852.769L848.289 187.195H850.547L853.868 197.253L857.164 187.195H859.336L854.844 200ZM862.828 193.848C862.828 195.54 863.117 196.749 863.695 197.473C864.273 198.189 865.2 198.547 866.478 198.547C867.048 198.547 867.548 198.429 867.979 198.193C868.411 197.949 868.826 197.559 869.225 197.021L870.958 198.096C870.47 198.828 869.876 199.394 869.176 199.792C868.476 200.183 867.528 200.378 866.332 200.378C864.427 200.378 863.003 199.825 862.059 198.718C861.123 197.611 860.655 195.939 860.655 193.701C860.655 191.357 861.111 189.628 862.022 188.513C862.942 187.39 864.326 186.829 866.173 186.829C867.833 186.829 869.078 187.309 869.908 188.269C870.738 189.221 871.153 190.69 871.153 192.676V193.848H862.828ZM869.103 192.2C869.086 191.052 868.842 190.161 868.37 189.526C867.906 188.892 867.149 188.574 866.1 188.574C865.099 188.574 864.346 188.863 863.841 189.441C863.345 190.011 863.015 190.93 862.853 192.2H869.103ZM874.108 200V181.824H876.208V200H874.108ZM890.576 193.628C890.576 195.85 890.096 197.53 889.135 198.669C888.183 199.809 886.792 200.378 884.96 200.378C883.129 200.378 881.73 199.817 880.761 198.694C879.793 197.563 879.309 195.874 879.309 193.628C879.309 191.341 879.793 189.636 880.761 188.513C881.738 187.39 883.138 186.829 884.96 186.829C886.8 186.829 888.195 187.402 889.147 188.55C890.1 189.689 890.576 191.382 890.576 193.628ZM888.403 193.628C888.403 191.886 888.114 190.621 887.536 189.832C886.966 189.042 886.108 188.647 884.96 188.647C883.78 188.647 882.906 189.046 882.336 189.844C881.766 190.633 881.481 191.895 881.481 193.628C881.481 195.296 881.754 196.533 882.299 197.339C882.853 198.145 883.74 198.547 884.96 198.547C886.124 198.547 886.987 198.149 887.548 197.351C888.118 196.554 888.403 195.312 888.403 193.628ZM904.419 193.506C904.419 195.605 903.959 197.278 903.04 198.523C902.128 199.76 900.871 200.378 899.268 200.378C897.99 200.378 896.798 199.902 895.691 198.95V204.822H893.591V187.195H895.691V188.477C896.171 188.013 896.749 187.622 897.424 187.305C898.1 186.987 898.824 186.829 899.597 186.829C901.119 186.829 902.303 187.406 903.149 188.562C903.996 189.709 904.419 191.357 904.419 193.506ZM902.246 193.555C902.246 190.316 901.229 188.696 899.194 188.696C898.527 188.696 897.888 188.863 897.278 189.197C896.667 189.53 896.139 189.913 895.691 190.344V197.119C896.781 198.039 897.88 198.499 898.987 198.499C899.939 198.499 900.72 198.1 901.331 197.302C901.941 196.505 902.246 195.256 902.246 193.555ZM908.948 193.848C908.948 195.54 909.237 196.749 909.815 197.473C910.393 198.189 911.32 198.547 912.598 198.547C913.168 198.547 913.668 198.429 914.1 198.193C914.531 197.949 914.946 197.559 915.345 197.021L917.078 198.096C916.59 198.828 915.996 199.394 915.296 199.792C914.596 200.183 913.648 200.378 912.452 200.378C910.547 200.378 909.123 199.825 908.179 198.718C907.243 197.611 906.775 195.939 906.775 193.701C906.775 191.357 907.231 189.628 908.143 188.513C909.062 187.39 910.446 186.829 912.293 186.829C913.953 186.829 915.198 187.309 916.028 188.269C916.858 189.221 917.273 190.69 917.273 192.676V193.848H908.948ZM915.223 192.2C915.206 191.052 914.962 190.161 914.49 189.526C914.026 188.892 913.27 188.574 912.22 188.574C911.219 188.574 910.466 188.863 909.961 189.441C909.465 190.011 909.135 190.93 908.973 192.2H915.223ZM927.052 189.27C926.824 189.172 926.498 189.124 926.075 189.124C925.449 189.124 924.842 189.27 924.256 189.563C923.679 189.848 923.003 190.377 922.23 191.15V200H920.13V187.195H922.23V189.27C922.816 188.676 923.43 188.151 924.073 187.695C924.724 187.231 925.444 187 926.234 187C926.763 187 927.186 187.085 927.503 187.256L927.052 189.27ZM943.081 200V198.401C942.43 198.971 941.774 199.443 941.115 199.817C940.456 200.191 939.711 200.378 938.881 200.378C937.661 200.378 936.717 200.008 936.049 199.268C935.39 198.519 935.061 197.563 935.061 196.399C935.061 195.52 935.231 194.792 935.573 194.214C935.923 193.628 936.424 193.168 937.075 192.834C937.734 192.493 938.686 192.249 939.931 192.102L943.081 191.821V191.199C943.081 190.214 942.804 189.543 942.25 189.185C941.705 188.826 940.948 188.647 939.98 188.647C939.117 188.647 938.45 188.798 937.978 189.099C937.514 189.4 937.181 189.726 936.977 190.076L935.256 189.026C935.646 188.318 936.241 187.777 937.038 187.402C937.844 187.02 938.841 186.829 940.029 186.829C941.868 186.829 943.186 187.162 943.984 187.83C944.781 188.497 945.18 189.653 945.18 191.296V200H943.081ZM943.081 193.506L941.03 193.701C939.638 193.823 938.658 194.096 938.088 194.519C937.518 194.934 937.233 195.544 937.233 196.35C937.233 197.115 937.425 197.664 937.807 197.998C938.19 198.332 938.763 198.499 939.528 198.499C939.846 198.499 940.159 198.442 940.468 198.328C940.778 198.206 941.083 198.059 941.384 197.888C941.685 197.709 941.974 197.51 942.25 197.29C942.535 197.062 942.812 196.842 943.081 196.631V193.506ZM956.777 200V192.456C956.777 191.235 956.716 190.422 956.594 190.015C956.472 189.608 956.273 189.315 955.996 189.136C955.719 188.949 955.317 188.855 954.788 188.855C954.25 188.855 953.624 189.058 952.908 189.465C952.192 189.872 951.5 190.369 950.833 190.955V200H948.733V187.195H950.833V189.099C951.427 188.505 952.118 187.98 952.908 187.524C953.697 187.061 954.491 186.829 955.288 186.829C956.525 186.829 957.432 187.183 958.01 187.891C958.588 188.59 958.877 189.779 958.877 191.455V200H956.777ZM970.511 200V198.73C970.031 199.194 969.453 199.585 968.777 199.902C968.102 200.22 967.382 200.378 966.617 200.378C965.079 200.378 963.89 199.801 963.052 198.645C962.214 197.481 961.795 195.833 961.795 193.701C961.795 191.61 962.251 189.941 963.162 188.696C964.074 187.451 965.335 186.829 966.946 186.829C968.24 186.829 969.428 187.301 970.511 188.245V181.824H972.623V200H970.511ZM970.511 190.076C969.396 189.156 968.297 188.696 967.215 188.696C966.263 188.696 965.481 189.099 964.871 189.905C964.269 190.702 963.968 191.951 963.968 193.652C963.968 196.883 964.985 198.499 967.02 198.499C967.687 198.499 968.322 198.332 968.924 197.998C969.534 197.664 970.063 197.282 970.511 196.851V190.076ZM988.932 200C988.118 200.252 987.313 200.378 986.515 200.378C985.213 200.378 984.277 200.037 983.708 199.353C983.146 198.669 982.865 197.595 982.865 196.13V188.953H981.034V187.195H982.865V183.63H984.965V187.195H988.212V188.953H984.965V195.728C984.965 196.761 985.067 197.502 985.27 197.949C985.482 198.397 985.945 198.621 986.662 198.621C987.28 198.621 987.854 198.507 988.383 198.279L988.932 200ZM992.229 193.848C992.229 195.54 992.517 196.749 993.095 197.473C993.673 198.189 994.601 198.547 995.878 198.547C996.448 198.547 996.949 198.429 997.38 198.193C997.811 197.949 998.226 197.559 998.625 197.021L1000.36 198.096C999.87 198.828 999.276 199.394 998.576 199.792C997.876 200.183 996.928 200.378 995.732 200.378C993.828 200.378 992.403 199.825 991.459 198.718C990.524 197.611 990.056 195.939 990.056 193.701C990.056 191.357 990.511 189.628 991.423 188.513C992.342 187.39 993.726 186.829 995.573 186.829C997.233 186.829 998.479 187.309 999.309 188.269C1000.14 189.221 1000.55 190.69 1000.55 192.676V193.848H992.229ZM998.503 192.2C998.487 191.052 998.243 190.161 997.771 189.526C997.307 188.892 996.55 188.574 995.5 188.574C994.499 188.574 993.746 188.863 993.242 189.441C992.745 190.011 992.416 190.93 992.253 192.2H998.503ZM1013.03 198.022C1012.63 198.706 1012.08 199.272 1011.37 199.719C1010.66 200.159 1009.69 200.378 1008.44 200.378C1006.56 200.378 1005.14 199.813 1004.19 198.682C1003.24 197.542 1002.76 195.858 1002.76 193.628C1002.76 191.398 1003.24 189.709 1004.18 188.562C1005.12 187.406 1006.52 186.829 1008.35 186.829C1010.46 186.829 1011.96 187.61 1012.86 189.172L1011.14 190.222C1010.82 189.726 1010.45 189.339 1010.01 189.062C1009.59 188.786 1009.03 188.647 1008.33 188.647C1007.1 188.647 1006.23 189.095 1005.71 189.99C1005.19 190.877 1004.94 192.106 1004.94 193.677C1004.94 194.873 1005.06 195.805 1005.3 196.472C1005.55 197.139 1005.93 197.652 1006.44 198.01C1006.96 198.368 1007.62 198.547 1008.42 198.547C1009.1 198.547 1009.66 198.421 1010.09 198.169C1010.52 197.909 1010.93 197.51 1011.31 196.973L1013.03 198.022ZM1023.53 200V192.456C1023.53 191.235 1023.47 190.426 1023.35 190.027C1023.23 189.62 1023.04 189.323 1022.76 189.136C1022.48 188.949 1022.08 188.855 1021.54 188.855C1021 188.855 1020.37 189.058 1019.66 189.465C1018.94 189.872 1018.25 190.369 1017.58 190.955V200H1015.48V181.824H1017.58V189.099C1018.18 188.505 1018.87 187.98 1019.66 187.524C1020.45 187.061 1021.24 186.829 1022.04 186.829C1023.28 186.829 1024.18 187.183 1024.76 187.891C1025.34 188.59 1025.63 189.779 1025.63 191.455V200H1023.53ZM1037.24 200V192.456C1037.24 191.235 1037.18 190.422 1037.05 190.015C1036.93 189.608 1036.73 189.315 1036.46 189.136C1036.18 188.949 1035.78 188.855 1035.25 188.855C1034.71 188.855 1034.08 189.058 1033.37 189.465C1032.65 189.872 1031.96 190.369 1031.29 190.955V200H1029.19V187.195H1031.29V189.099C1031.89 188.505 1032.58 187.98 1033.37 187.524C1034.16 187.061 1034.95 186.829 1035.75 186.829C1036.99 186.829 1037.89 187.183 1038.47 187.891C1039.05 188.59 1039.34 189.779 1039.34 191.455V200H1037.24ZM1045.33 183.948C1045.33 184.436 1045.22 184.77 1045 184.949C1044.78 185.12 1044.43 185.205 1043.95 185.205C1043.44 185.205 1043.08 185.095 1042.89 184.875C1042.69 184.656 1042.6 184.347 1042.6 183.948C1042.6 183.516 1042.7 183.203 1042.91 183.008C1043.13 182.804 1043.47 182.703 1043.95 182.703C1044.45 182.703 1044.8 182.8 1045.01 182.996C1045.23 183.183 1045.33 183.5 1045.33 183.948ZM1042.9 200V187.195H1045V200H1042.9ZM1058.27 198.022C1057.87 198.706 1057.32 199.272 1056.61 199.719C1055.9 200.159 1054.93 200.378 1053.68 200.378C1051.8 200.378 1050.39 199.813 1049.43 198.682C1048.48 197.542 1048 195.858 1048 193.628C1048 191.398 1048.48 189.709 1049.42 188.562C1050.36 187.406 1051.76 186.829 1053.6 186.829C1055.7 186.829 1057.2 187.61 1058.1 189.172L1056.38 190.222C1056.06 189.726 1055.69 189.339 1055.26 189.062C1054.83 188.786 1054.27 188.647 1053.57 188.647C1052.34 188.647 1051.47 189.095 1050.95 189.99C1050.43 190.877 1050.18 192.106 1050.18 193.677C1050.18 194.873 1050.3 195.805 1050.54 196.472C1050.79 197.139 1051.17 197.652 1051.68 198.01C1052.2 198.368 1052.86 198.547 1053.66 198.547C1054.34 198.547 1054.9 198.421 1055.33 198.169C1055.76 197.909 1056.17 197.51 1056.55 196.973L1058.27 198.022ZM1068 200V198.401C1067.35 198.971 1066.69 199.443 1066.04 199.817C1065.38 200.191 1064.63 200.378 1063.8 200.378C1062.58 200.378 1061.64 200.008 1060.97 199.268C1060.31 198.519 1059.98 197.563 1059.98 196.399C1059.98 195.52 1060.15 194.792 1060.49 194.214C1060.84 193.628 1061.34 193.168 1061.99 192.834C1062.65 192.493 1063.61 192.249 1064.85 192.102L1068 191.821V191.199C1068 190.214 1067.72 189.543 1067.17 189.185C1066.63 188.826 1065.87 188.647 1064.9 188.647C1064.04 188.647 1063.37 188.798 1062.9 189.099C1062.43 189.4 1062.1 189.726 1061.9 190.076L1060.18 189.026C1060.57 188.318 1061.16 187.777 1061.96 187.402C1062.76 187.02 1063.76 186.829 1064.95 186.829C1066.79 186.829 1068.11 187.162 1068.9 187.83C1069.7 188.497 1070.1 189.653 1070.1 191.296V200H1068ZM1068 193.506L1065.95 193.701C1064.56 193.823 1063.58 194.096 1063.01 194.519C1062.44 194.934 1062.15 195.544 1062.15 196.35C1062.15 197.115 1062.34 197.664 1062.73 197.998C1063.11 198.332 1063.68 198.499 1064.45 198.499C1064.77 198.499 1065.08 198.442 1065.39 198.328C1065.7 198.206 1066 198.059 1066.3 197.888C1066.6 197.709 1066.89 197.51 1067.17 197.29C1067.46 197.062 1067.73 196.842 1068 196.631V193.506ZM1073.75 200V181.824H1075.85V200H1073.75ZM1092.26 200C1091.44 200.252 1090.64 200.378 1089.84 200.378C1088.54 200.378 1087.6 200.037 1087.03 199.353C1086.47 198.669 1086.19 197.595 1086.19 196.13V188.953H1084.36V187.195H1086.19V183.63H1088.29V187.195H1091.54V188.953H1088.29V195.728C1088.29 196.761 1088.39 197.502 1088.6 197.949C1088.81 198.397 1089.27 198.621 1089.99 198.621C1090.61 198.621 1091.18 198.507 1091.71 198.279L1092.26 200ZM1101.79 200V198.401C1101.14 198.971 1100.49 199.443 1099.83 199.817C1099.17 200.191 1098.42 200.378 1097.59 200.378C1096.37 200.378 1095.43 200.008 1094.76 199.268C1094.1 198.519 1093.77 197.563 1093.77 196.399C1093.77 195.52 1093.94 194.792 1094.28 194.214C1094.63 193.628 1095.13 193.168 1095.79 192.834C1096.44 192.493 1097.4 192.249 1098.64 192.102L1101.79 191.821V191.199C1101.79 190.214 1101.51 189.543 1100.96 189.185C1100.42 188.826 1099.66 188.647 1098.69 188.647C1097.83 188.647 1097.16 188.798 1096.69 189.099C1096.23 189.4 1095.89 189.726 1095.69 190.076L1093.97 189.026C1094.36 188.318 1094.95 187.777 1095.75 187.402C1096.55 187.02 1097.55 186.829 1098.74 186.829C1100.58 186.829 1101.9 187.162 1102.69 187.83C1103.49 188.497 1103.89 189.653 1103.89 191.296V200H1101.79ZM1101.79 193.506L1099.74 193.701C1098.35 193.823 1097.37 194.096 1096.8 194.519C1096.23 194.934 1095.94 195.544 1095.94 196.35C1095.94 197.115 1096.14 197.664 1096.52 197.998C1096.9 198.332 1097.47 198.499 1098.24 198.499C1098.56 198.499 1098.87 198.442 1099.18 198.328C1099.49 198.206 1099.79 198.059 1100.09 197.888C1100.4 197.709 1100.68 197.51 1100.96 197.29C1101.25 197.062 1101.52 196.842 1101.79 196.631V193.506ZM1107.54 200V181.824H1109.64V200H1107.54ZM1114.92 193.848C1114.92 195.54 1115.2 196.749 1115.78 197.473C1116.36 198.189 1117.29 198.547 1118.56 198.547C1119.13 198.547 1119.64 198.429 1120.07 198.193C1120.5 197.949 1120.91 197.559 1121.31 197.021L1123.04 198.096C1122.56 198.828 1121.96 199.394 1121.26 199.792C1120.56 200.183 1119.61 200.378 1118.42 200.378C1116.51 200.378 1115.09 199.825 1114.15 198.718C1113.21 197.611 1112.74 195.939 1112.74 193.701C1112.74 191.357 1113.2 189.628 1114.11 188.513C1115.03 187.39 1116.41 186.829 1118.26 186.829C1119.92 186.829 1121.17 187.309 1122 188.269C1122.83 189.221 1123.24 190.69 1123.24 192.676V193.848H1114.92ZM1121.19 192.2C1121.17 191.052 1120.93 190.161 1120.46 189.526C1119.99 188.892 1119.24 188.574 1118.19 188.574C1117.19 188.574 1116.43 188.863 1115.93 189.441C1115.43 190.011 1115.1 190.93 1114.94 192.2H1121.19ZM1134.14 200V192.456C1134.14 191.235 1134.08 190.422 1133.96 190.015C1133.84 189.608 1133.64 189.315 1133.36 189.136C1133.08 188.949 1132.68 188.855 1132.15 188.855C1131.61 188.855 1130.99 189.058 1130.27 189.465C1129.56 189.872 1128.86 190.369 1128.2 190.955V200H1126.1V187.195H1128.2V189.099C1128.79 188.505 1129.48 187.98 1130.27 187.524C1131.06 187.061 1131.85 186.829 1132.65 186.829C1133.89 186.829 1134.8 187.183 1135.37 187.891C1135.95 188.59 1136.24 189.779 1136.24 191.455V200H1134.14ZM1146.2 200C1145.39 200.252 1144.58 200.378 1143.79 200.378C1142.48 200.378 1141.55 200.037 1140.98 199.353C1140.42 198.669 1140.14 197.595 1140.14 196.13V188.953H1138.3V187.195H1140.14V183.63H1142.24V187.195H1145.48V188.953H1142.24V195.728C1142.24 196.761 1142.34 197.502 1142.54 197.949C1142.75 198.397 1143.22 198.621 1143.93 198.621C1144.55 198.621 1145.12 198.507 1145.65 198.279L1146.2 200Z" fill="white"/>
<path d="M604.578 120.781C603.823 120.677 603.185 120.339 602.664 119.766L586.609 95.4297C586.453 94.1797 586.792 93.2031 587.625 92.5C588.406 92.1094 589.096 91.9531 589.695 92.0312C590.294 92.0833 590.854 92.4609 591.375 93.1641L604.773 113.164L618.719 92.3828C619.969 91.9401 621.01 91.9401 621.844 92.3828C622.703 92.7995 623.12 93.7891 623.094 95.3516L606.727 120C606.076 120.521 605.359 120.781 604.578 120.781ZM634.219 120.781C633.854 120.677 633.503 120.547 633.164 120.391C632.826 120.234 632.513 119.961 632.227 119.57L631.836 118.789V93.9844L632.461 92.8516C632.773 92.5391 633.125 92.3177 633.516 92.1875C633.906 92.0573 634.284 91.9922 634.648 91.9922C635.039 92.0703 635.378 92.1745 635.664 92.3047C635.977 92.4349 636.289 92.7083 636.602 93.125L637.109 94.1016V118.633C636.719 119.961 635.755 120.677 634.219 120.781ZM653.664 120.781C651.607 120.625 649.901 119.766 648.547 118.203C647.714 117.057 647.193 115.768 646.984 114.336V112.852C647.375 111.94 647.792 111.341 648.234 111.055C648.677 110.768 649.328 110.677 650.188 110.781C651.542 111.172 652.219 111.797 652.219 112.656C652.219 113.49 652.349 114.128 652.609 114.57C652.896 114.987 653.286 115.273 653.781 115.43H675.109C676.047 115.247 676.867 114.805 677.57 114.102C677.857 113.659 678.052 113.151 678.156 112.578V111.094C678.104 110.339 677.74 109.674 677.062 109.102C676.516 108.685 675.904 108.424 675.227 108.32H655.461C652.857 108.19 650.591 107.161 648.664 105.234C647.753 104.089 647.193 102.826 646.984 101.445V98.8672C647.271 97.0443 648.169 95.4557 649.68 94.1016C651.424 92.8255 653.339 92.1224 655.422 91.9922H676.477C678.482 92.1224 680.201 92.8776 681.633 94.2578C682.909 95.7422 683.547 97.513 683.547 99.5703C683.469 100.299 683.117 100.938 682.492 101.484C681.893 101.901 681.125 102.083 680.188 102.031C679.302 101.615 678.742 101.146 678.508 100.625C678.273 100.104 678.13 99.5052 678.078 98.8281C678.026 98.125 677.518 97.6302 676.555 97.3438H655.266C654.276 97.474 653.443 97.8906 652.766 98.5938C652.427 99.1406 652.258 99.7656 652.258 100.469C652.258 101.094 652.518 101.615 653.039 102.031C653.69 102.526 654.432 102.826 655.266 102.93H675.227C677.648 103.164 679.784 104.245 681.633 106.172C682.779 107.656 683.417 109.323 683.547 111.172V112.539C683.417 114.935 682.414 116.992 680.539 118.711C678.846 119.961 676.971 120.651 674.914 120.781H653.664ZM695.805 120.781C695.44 120.677 695.089 120.547 694.75 120.391C694.411 120.234 694.099 119.961 693.812 119.57L693.422 118.789V93.9844L694.047 92.8516C694.359 92.5391 694.711 92.3177 695.102 92.1875C695.492 92.0573 695.87 91.9922 696.234 91.9922C696.625 92.0703 696.964 92.1745 697.25 92.3047C697.562 92.4349 697.875 92.7083 698.188 93.125L698.695 94.1016V118.633C698.305 119.961 697.341 120.677 695.805 120.781ZM716.734 120.781C714.469 120.651 712.477 119.74 710.758 118.047C709.586 116.562 708.857 114.818 708.57 112.812V99.8828C708.857 97.7474 709.807 95.8203 711.422 94.1016C713.01 92.8255 714.768 92.1224 716.695 91.9922H736.617C739.117 92.2266 741.253 93.2682 743.023 95.1172C744.299 96.7318 745.003 98.5677 745.133 100.625V112.148C745.003 114.727 743.974 116.94 742.047 118.789C740.536 119.987 738.818 120.651 736.891 120.781H716.734ZM738.492 114.805C739.169 114.128 739.586 113.333 739.742 112.422V100.469C739.69 99.6094 739.326 98.8672 738.648 98.2422C738.049 97.7734 737.411 97.474 736.734 97.3438H716.656C715.979 97.3958 715.393 97.6823 714.898 98.2031C714.299 98.9062 713.948 99.7396 713.844 100.703V112.109C713.948 113.125 714.365 114.01 715.094 114.766C715.589 115.156 716.148 115.378 716.773 115.43H736.852L738.492 114.805ZM757.078 120.781C756.323 120.677 755.672 120.326 755.125 119.727L754.617 118.789V94.1016C754.878 92.2005 755.893 91.5104 757.664 92.0312L785.789 112.656V94.2188L786.688 92.6953C787.339 92.2266 788.042 91.9922 788.797 91.9922C790.151 92.3307 790.945 93.1771 791.18 94.5312V118.281C790.841 120.443 789.643 121.12 787.586 120.312L759.891 99.9609V118.75C759.604 119.479 759.096 120.078 758.367 120.547L757.078 120.781Z" fill="white"/>
</svg>
