<svg width="1380" height="309" viewBox="0 0 1380 309" fill="none" xmlns="http://www.w3.org/2000/svg">
<path d="M1315.5 1H117.835C115.279 1 112.82 1.97876 110.963 3.73524L55.7731 55.9408C53.7763 57.8296 52.645 60.457 52.645 63.2056V297.996C52.645 303.519 57.1222 307.996 62.645 307.996H106.372C109.025 307.996 111.57 306.942 113.445 305.065L132.071 286.431C133.946 284.554 136.49 283.5 139.143 283.5H601.276C603.929 283.5 606.474 284.554 608.349 286.431L626.974 305.065C628.85 306.942 631.394 307.996 634.047 307.996H1271.28C1273.93 307.996 1276.47 306.942 1278.35 305.065L1322.57 260.819C1324.45 258.944 1325.5 256.401 1325.5 253.75V11C1325.5 5.47715 1321.02 1 1315.5 1Z" stroke="#2E65EF" stroke-width="1.5"/>
<path d="M241.695 188V180.582H234.312V188H232.145V171.781H234.312V178.613H241.695V171.781H243.863V188H241.695ZM249.453 182.094C249.453 183.719 249.73 184.879 250.285 185.574C250.84 186.262 251.73 186.605 252.957 186.605C253.504 186.605 253.984 186.492 254.398 186.266C254.812 186.031 255.211 185.656 255.594 185.141L257.258 186.172C256.789 186.875 256.219 187.418 255.547 187.801C254.875 188.176 253.965 188.363 252.816 188.363C250.988 188.363 249.621 187.832 248.715 186.77C247.816 185.707 247.367 184.102 247.367 181.953C247.367 179.703 247.805 178.043 248.68 176.973C249.562 175.895 250.891 175.355 252.664 175.355C254.258 175.355 255.453 175.816 256.25 176.738C257.047 177.652 257.445 179.062 257.445 180.969V182.094H249.453ZM255.477 180.512C255.461 179.41 255.227 178.555 254.773 177.945C254.328 177.336 253.602 177.031 252.594 177.031C251.633 177.031 250.91 177.309 250.426 177.863C249.949 178.41 249.633 179.293 249.477 180.512H255.477ZM260.762 188V170.551H262.777V188H260.762ZM277.25 181.766C277.25 183.781 276.809 185.387 275.926 186.582C275.051 187.77 273.844 188.363 272.305 188.363C271.078 188.363 269.934 187.906 268.871 186.992V192.629H266.855V175.707H268.871V176.938C269.332 176.492 269.887 176.117 270.535 175.812C271.184 175.508 271.879 175.355 272.621 175.355C274.082 175.355 275.219 175.91 276.031 177.02C276.844 178.121 277.25 179.703 277.25 181.766ZM275.164 181.812C275.164 178.703 274.188 177.148 272.234 177.148C271.594 177.148 270.98 177.309 270.395 177.629C269.809 177.949 269.301 178.316 268.871 178.73V185.234C269.918 186.117 270.973 186.559 272.035 186.559C272.949 186.559 273.699 186.176 274.285 185.41C274.871 184.645 275.164 183.445 275.164 181.812ZM297.301 181.883C297.301 184.016 296.84 185.629 295.918 186.723C295.004 187.816 293.668 188.363 291.91 188.363C290.152 188.363 288.809 187.824 287.879 186.746C286.949 185.66 286.484 184.039 286.484 181.883C286.484 179.688 286.949 178.051 287.879 176.973C288.816 175.895 290.16 175.355 291.91 175.355C293.676 175.355 295.016 175.906 295.93 177.008C296.844 178.102 297.301 179.727 297.301 181.883ZM295.215 181.883C295.215 180.211 294.938 178.996 294.383 178.238C293.836 177.48 293.012 177.102 291.91 177.102C290.777 177.102 289.938 177.484 289.391 178.25C288.844 179.008 288.57 180.219 288.57 181.883C288.57 183.484 288.832 184.672 289.355 185.445C289.887 186.219 290.738 186.605 291.91 186.605C293.027 186.605 293.855 186.223 294.395 185.457C294.941 184.691 295.215 183.5 295.215 181.883ZM308.305 188V186.172C307.68 186.797 306.992 187.32 306.242 187.742C305.492 188.156 304.758 188.363 304.039 188.363C303.219 188.363 302.551 188.211 302.035 187.906C301.527 187.594 301.156 187.129 300.922 186.512C300.695 185.887 300.582 185.023 300.582 183.922V175.707H302.598V182.961C302.598 184.133 302.656 184.914 302.773 185.305C302.898 185.695 303.094 185.98 303.359 186.16C303.625 186.332 304.012 186.418 304.52 186.418C305.027 186.418 305.625 186.223 306.312 185.832C307 185.434 307.664 184.957 308.305 184.402V175.707H310.32V188H308.305ZM320.961 177.699C320.742 177.605 320.43 177.559 320.023 177.559C319.422 177.559 318.84 177.699 318.277 177.98C317.723 178.254 317.074 178.762 316.332 179.504V188H314.316V175.707H316.332V177.699C316.895 177.129 317.484 176.625 318.102 176.188C318.727 175.742 319.418 175.52 320.176 175.52C320.684 175.52 321.09 175.602 321.395 175.766L320.961 177.699ZM344.48 188V180.758C344.48 179.539 344.434 178.734 344.34 178.344C344.246 177.953 344.082 177.684 343.848 177.535C343.613 177.379 343.258 177.301 342.781 177.301C342.375 177.301 341.918 177.445 341.41 177.734C340.902 178.023 340.238 178.551 339.418 179.316V188H337.402V180.758C337.402 179.602 337.355 178.82 337.262 178.414C337.168 178.008 337.008 177.723 336.781 177.559C336.555 177.387 336.203 177.301 335.727 177.301C335.289 177.301 334.777 177.477 334.191 177.828C333.605 178.172 332.988 178.668 332.34 179.316V188H330.324V175.707H332.34V177.535C332.871 176.957 333.465 176.449 334.121 176.012C334.777 175.574 335.48 175.355 336.23 175.355C337.059 175.355 337.719 175.547 338.211 175.93C338.711 176.312 339.043 176.922 339.207 177.758C339.848 177.078 340.5 176.508 341.164 176.047C341.828 175.586 342.566 175.355 343.379 175.355C344.129 175.355 344.73 175.516 345.184 175.836C345.637 176.148 345.969 176.605 346.18 177.207C346.391 177.801 346.496 178.664 346.496 179.797V188H344.48ZM351.852 182.094C351.852 183.719 352.129 184.879 352.684 185.574C353.238 186.262 354.129 186.605 355.355 186.605C355.902 186.605 356.383 186.492 356.797 186.266C357.211 186.031 357.609 185.656 357.992 185.141L359.656 186.172C359.188 186.875 358.617 187.418 357.945 187.801C357.273 188.176 356.363 188.363 355.215 188.363C353.387 188.363 352.02 187.832 351.113 186.77C350.215 185.707 349.766 184.102 349.766 181.953C349.766 179.703 350.203 178.043 351.078 176.973C351.961 175.895 353.289 175.355 355.062 175.355C356.656 175.355 357.852 175.816 358.648 176.738C359.445 177.652 359.844 179.062 359.844 180.969V182.094H351.852ZM357.875 180.512C357.859 179.41 357.625 178.555 357.172 177.945C356.727 177.336 356 177.031 354.992 177.031C354.031 177.031 353.309 177.309 352.824 177.863C352.348 178.41 352.031 179.293 351.875 180.512H357.875ZM377.223 188V180.758C377.223 179.539 377.176 178.734 377.082 178.344C376.988 177.953 376.824 177.684 376.59 177.535C376.355 177.379 376 177.301 375.523 177.301C375.117 177.301 374.66 177.445 374.152 177.734C373.645 178.023 372.98 178.551 372.16 179.316V188H370.145V180.758C370.145 179.602 370.098 178.82 370.004 178.414C369.91 178.008 369.75 177.723 369.523 177.559C369.297 177.387 368.945 177.301 368.469 177.301C368.031 177.301 367.52 177.477 366.934 177.828C366.348 178.172 365.73 178.668 365.082 179.316V188H363.066V175.707H365.082V177.535C365.613 176.957 366.207 176.449 366.863 176.012C367.52 175.574 368.223 175.355 368.973 175.355C369.801 175.355 370.461 175.547 370.953 175.93C371.453 176.312 371.785 176.922 371.949 177.758C372.59 177.078 373.242 176.508 373.906 176.047C374.57 175.586 375.309 175.355 376.121 175.355C376.871 175.355 377.473 175.516 377.926 175.836C378.379 176.148 378.711 176.605 378.922 177.207C379.133 177.801 379.238 178.664 379.238 179.797V188H377.223ZM393.523 181.766C393.523 183.836 393.098 185.453 392.246 186.617C391.402 187.781 390.219 188.363 388.695 188.363C388.039 188.363 387.398 188.23 386.773 187.965C386.148 187.699 385.605 187.375 385.145 186.992V188H383.129V170.551H385.145V176.938C385.605 176.492 386.16 176.117 386.809 175.812C387.457 175.508 388.152 175.355 388.895 175.355C390.41 175.355 391.559 175.91 392.34 177.02C393.129 178.129 393.523 179.711 393.523 181.766ZM391.438 181.812C391.438 180.172 391.188 178.984 390.688 178.25C390.188 177.516 389.461 177.148 388.508 177.148C387.883 177.148 387.277 177.309 386.691 177.629C386.105 177.949 385.59 178.316 385.145 178.73V185.234C385.59 185.609 386.105 185.926 386.691 186.184C387.277 186.434 387.852 186.559 388.414 186.559C389.32 186.559 390.051 186.176 390.605 185.41C391.16 184.645 391.438 183.445 391.438 181.812ZM398.352 182.094C398.352 183.719 398.629 184.879 399.184 185.574C399.738 186.262 400.629 186.605 401.855 186.605C402.402 186.605 402.883 186.492 403.297 186.266C403.711 186.031 404.109 185.656 404.492 185.141L406.156 186.172C405.688 186.875 405.117 187.418 404.445 187.801C403.773 188.176 402.863 188.363 401.715 188.363C399.887 188.363 398.52 187.832 397.613 186.77C396.715 185.707 396.266 184.102 396.266 181.953C396.266 179.703 396.703 178.043 397.578 176.973C398.461 175.895 399.789 175.355 401.562 175.355C403.156 175.355 404.352 175.816 405.148 176.738C405.945 177.652 406.344 179.062 406.344 180.969V182.094H398.352ZM404.375 180.512C404.359 179.41 404.125 178.555 403.672 177.945C403.227 177.336 402.5 177.031 401.492 177.031C400.531 177.031 399.809 177.309 399.324 177.863C398.848 178.41 398.531 179.293 398.375 180.512H404.375ZM416.211 177.699C415.992 177.605 415.68 177.559 415.273 177.559C414.672 177.559 414.09 177.699 413.527 177.98C412.973 178.254 412.324 178.762 411.582 179.504V188H409.566V175.707H411.582V177.699C412.145 177.129 412.734 176.625 413.352 176.188C413.977 175.742 414.668 175.52 415.426 175.52C415.934 175.52 416.34 175.602 416.645 175.766L416.211 177.699ZM426.992 184.684C426.992 185.832 426.586 186.734 425.773 187.391C424.961 188.039 423.805 188.363 422.305 188.363C421.281 188.363 420.363 188.172 419.551 187.789C418.738 187.398 418.145 186.852 417.77 186.148L419.387 185.164C420.004 186.156 420.996 186.652 422.363 186.652C423.254 186.652 423.918 186.484 424.355 186.148C424.801 185.805 425.023 185.344 425.023 184.766C425.023 184.422 424.945 184.145 424.789 183.934C424.633 183.715 424.391 183.527 424.062 183.371C423.734 183.207 423.062 182.988 422.047 182.715C420.586 182.379 419.555 181.914 418.953 181.32C418.359 180.727 418.062 179.938 418.062 178.953C418.062 177.867 418.453 176.996 419.234 176.34C420.016 175.684 421.098 175.355 422.48 175.355C423.551 175.355 424.449 175.566 425.176 175.988C425.902 176.41 426.434 176.918 426.77 177.512L425.164 178.496C424.523 177.535 423.613 177.055 422.434 177.055C421.762 177.055 421.191 177.203 420.723 177.5C420.262 177.797 420.031 178.258 420.031 178.883C420.031 179.438 420.234 179.84 420.641 180.09C421.047 180.34 421.684 180.57 422.551 180.781C423.941 181.141 424.902 181.477 425.434 181.789C425.965 182.102 426.355 182.488 426.605 182.949C426.863 183.402 426.992 183.98 426.992 184.684ZM446.48 187.73C446.48 189.379 446.07 190.605 445.25 191.41C444.438 192.223 443.086 192.629 441.195 192.629C439.391 192.629 437.902 192.246 436.73 191.48L437.48 189.852C438.535 190.586 439.773 190.953 441.195 190.953C442.344 190.953 443.172 190.711 443.68 190.227C444.195 189.75 444.453 188.961 444.453 187.859V186.418C443.992 186.863 443.441 187.238 442.801 187.543C442.16 187.848 441.465 188 440.715 188C439.207 188 438.059 187.465 437.27 186.395C436.48 185.316 436.086 183.762 436.086 181.73C436.086 179.73 436.527 178.168 437.41 177.043C438.293 175.918 439.5 175.355 441.031 175.355C442.273 175.355 443.414 175.809 444.453 176.715V175.707H446.48V187.73ZM444.453 178.473C443.383 177.59 442.328 177.148 441.289 177.148C440.266 177.148 439.488 177.547 438.957 178.344C438.434 179.141 438.172 180.254 438.172 181.684C438.172 183.262 438.418 184.41 438.91 185.129C439.402 185.84 440.133 186.195 441.102 186.195C442.227 186.195 443.344 185.668 444.453 184.613V178.473ZM457.109 177.699C456.891 177.605 456.578 177.559 456.172 177.559C455.57 177.559 454.988 177.699 454.426 177.98C453.871 178.254 453.223 178.762 452.48 179.504V188H450.465V175.707H452.48V177.699C453.043 177.129 453.633 176.625 454.25 176.188C454.875 175.742 455.566 175.52 456.324 175.52C456.832 175.52 457.238 175.602 457.543 175.766L457.109 177.699ZM469.449 181.883C469.449 184.016 468.988 185.629 468.066 186.723C467.152 187.816 465.816 188.363 464.059 188.363C462.301 188.363 460.957 187.824 460.027 186.746C459.098 185.66 458.633 184.039 458.633 181.883C458.633 179.688 459.098 178.051 460.027 176.973C460.965 175.895 462.309 175.355 464.059 175.355C465.824 175.355 467.164 175.906 468.078 177.008C468.992 178.102 469.449 179.727 469.449 181.883ZM467.363 181.883C467.363 180.211 467.086 178.996 466.531 178.238C465.984 177.48 465.16 177.102 464.059 177.102C462.926 177.102 462.086 177.484 461.539 178.25C460.992 179.008 460.719 180.219 460.719 181.883C460.719 183.484 460.98 184.672 461.504 185.445C462.035 186.219 462.887 186.605 464.059 186.605C465.176 186.605 466.004 186.223 466.543 185.457C467.09 184.691 467.363 183.5 467.363 181.883ZM484.344 188H482.469L479.469 178.59L476.469 188H474.629L471.57 175.707H473.668L475.754 185.07L478.684 175.707H480.359L483.359 185.07L485.352 175.707H487.367L484.344 188ZM503.598 188V186.465C502.973 187.012 502.344 187.465 501.711 187.824C501.078 188.184 500.363 188.363 499.566 188.363C498.395 188.363 497.488 188.008 496.848 187.297C496.215 186.578 495.898 185.66 495.898 184.543C495.898 183.699 496.062 183 496.391 182.445C496.727 181.883 497.207 181.441 497.832 181.121C498.465 180.793 499.379 180.559 500.574 180.418L503.598 180.148V179.551C503.598 178.605 503.332 177.961 502.801 177.617C502.277 177.273 501.551 177.102 500.621 177.102C499.793 177.102 499.152 177.246 498.699 177.535C498.254 177.824 497.934 178.137 497.738 178.473L496.086 177.465C496.461 176.785 497.031 176.266 497.797 175.906C498.57 175.539 499.527 175.355 500.668 175.355C502.434 175.355 503.699 175.676 504.465 176.316C505.23 176.957 505.613 178.066 505.613 179.645V188H503.598ZM503.598 181.766L501.629 181.953C500.293 182.07 499.352 182.332 498.805 182.738C498.258 183.137 497.984 183.723 497.984 184.496C497.984 185.23 498.168 185.758 498.535 186.078C498.902 186.398 499.453 186.559 500.188 186.559C500.492 186.559 500.793 186.504 501.09 186.395C501.387 186.277 501.68 186.137 501.969 185.973C502.258 185.801 502.535 185.609 502.801 185.398C503.074 185.18 503.34 184.969 503.598 184.766V181.766ZM517.227 188V180.758C517.227 179.586 517.168 178.805 517.051 178.414C516.934 178.023 516.742 177.742 516.477 177.57C516.211 177.391 515.824 177.301 515.316 177.301C514.801 177.301 514.199 177.496 513.512 177.887C512.824 178.277 512.16 178.754 511.52 179.316V188H509.504V175.707H511.52V177.535C512.09 176.965 512.754 176.461 513.512 176.023C514.27 175.578 515.031 175.355 515.797 175.355C516.984 175.355 517.855 175.695 518.41 176.375C518.965 177.047 519.242 178.188 519.242 179.797V188H517.227ZM530.891 188V186.781C530.43 187.227 529.875 187.602 529.227 187.906C528.578 188.211 527.887 188.363 527.152 188.363C525.676 188.363 524.535 187.809 523.73 186.699C522.926 185.582 522.523 184 522.523 181.953C522.523 179.945 522.961 178.344 523.836 177.148C524.711 175.953 525.922 175.355 527.469 175.355C528.711 175.355 529.852 175.809 530.891 176.715V170.551H532.918V188H530.891ZM530.891 178.473C529.82 177.59 528.766 177.148 527.727 177.148C526.812 177.148 526.062 177.535 525.477 178.309C524.898 179.074 524.609 180.273 524.609 181.906C524.609 185.008 525.586 186.559 527.539 186.559C528.18 186.559 528.789 186.398 529.367 186.078C529.953 185.758 530.461 185.391 530.891 184.977V178.473ZM553.789 181.766C553.789 183.836 553.363 185.453 552.512 186.617C551.668 187.781 550.484 188.363 548.961 188.363C548.305 188.363 547.664 188.23 547.039 187.965C546.414 187.699 545.871 187.375 545.41 186.992V188H543.395V170.551H545.41V176.938C545.871 176.492 546.426 176.117 547.074 175.812C547.723 175.508 548.418 175.355 549.16 175.355C550.676 175.355 551.824 175.91 552.605 177.02C553.395 178.129 553.789 179.711 553.789 181.766ZM551.703 181.812C551.703 180.172 551.453 178.984 550.953 178.25C550.453 177.516 549.727 177.148 548.773 177.148C548.148 177.148 547.543 177.309 546.957 177.629C546.371 177.949 545.855 178.316 545.41 178.73V185.234C545.855 185.609 546.371 185.926 546.957 186.184C547.543 186.434 548.117 186.559 548.68 186.559C549.586 186.559 550.316 186.176 550.871 185.41C551.426 184.645 551.703 183.445 551.703 181.812ZM564.781 188V186.172C564.156 186.797 563.469 187.32 562.719 187.742C561.969 188.156 561.234 188.363 560.516 188.363C559.695 188.363 559.027 188.211 558.512 187.906C558.004 187.594 557.633 187.129 557.398 186.512C557.172 185.887 557.059 185.023 557.059 183.922V175.707H559.074V182.961C559.074 184.133 559.133 184.914 559.25 185.305C559.375 185.695 559.57 185.98 559.836 186.16C560.102 186.332 560.488 186.418 560.996 186.418C561.504 186.418 562.102 186.223 562.789 185.832C563.477 185.434 564.141 184.957 564.781 184.402V175.707H566.797V188H564.781ZM573.125 172.59C573.125 173.059 573.02 173.379 572.809 173.551C572.598 173.715 572.262 173.797 571.801 173.797C571.309 173.797 570.969 173.691 570.781 173.48C570.594 173.27 570.5 172.973 570.5 172.59C570.5 172.176 570.602 171.875 570.805 171.688C571.008 171.492 571.34 171.395 571.801 171.395C572.277 171.395 572.617 171.488 572.82 171.676C573.023 171.855 573.125 172.16 573.125 172.59ZM570.793 188V175.707H572.809V188H570.793ZM576.887 188V170.551H578.902V188H576.887ZM590.727 188V186.781C590.266 187.227 589.711 187.602 589.062 187.906C588.414 188.211 587.723 188.363 586.988 188.363C585.512 188.363 584.371 187.809 583.566 186.699C582.762 185.582 582.359 184 582.359 181.953C582.359 179.945 582.797 178.344 583.672 177.148C584.547 175.953 585.758 175.355 587.305 175.355C588.547 175.355 589.688 175.809 590.727 176.715V170.551H592.754V188H590.727ZM590.727 178.473C589.656 177.59 588.602 177.148 587.562 177.148C586.648 177.148 585.898 177.535 585.312 178.309C584.734 179.074 584.445 180.273 584.445 181.906C584.445 185.008 585.422 186.559 587.375 186.559C588.016 186.559 588.625 186.398 589.203 186.078C589.789 185.758 590.297 185.391 590.727 184.977V178.473ZM612.465 186.102C612.082 186.758 611.551 187.301 610.871 187.73C610.191 188.152 609.254 188.363 608.059 188.363C606.254 188.363 604.895 187.82 603.98 186.734C603.066 185.641 602.609 184.023 602.609 181.883C602.609 179.742 603.062 178.121 603.969 177.02C604.875 175.91 606.211 175.355 607.977 175.355C610 175.355 611.441 176.105 612.301 177.605L610.648 178.613C610.344 178.137 609.984 177.766 609.57 177.5C609.164 177.234 608.625 177.102 607.953 177.102C606.773 177.102 605.934 177.531 605.434 178.391C604.941 179.242 604.695 180.422 604.695 181.93C604.695 183.078 604.812 183.973 605.047 184.613C605.281 185.254 605.645 185.746 606.137 186.09C606.637 186.434 607.27 186.605 608.035 186.605C608.691 186.605 609.227 186.484 609.641 186.242C610.055 185.992 610.445 185.609 610.812 185.094L612.465 186.102ZM621.945 177.699C621.727 177.605 621.414 177.559 621.008 177.559C620.406 177.559 619.824 177.699 619.262 177.98C618.707 178.254 618.059 178.762 617.316 179.504V188H615.301V175.707H617.316V177.699C617.879 177.129 618.469 176.625 619.086 176.188C619.711 175.742 620.402 175.52 621.16 175.52C621.668 175.52 622.074 175.602 622.379 175.766L621.945 177.699ZM623.281 190.613C623.789 190.84 624.379 190.953 625.051 190.953C625.996 190.953 626.797 190.098 627.453 188.387L627.863 187.332L623.375 175.707H625.555L628.941 184.707L632.352 175.707H634.461L629.211 188.938C628.656 190.289 628.062 191.242 627.43 191.797C626.797 192.352 625.973 192.629 624.957 192.629C624.59 192.629 624.199 192.594 623.785 192.523C623.371 192.453 623.035 192.371 622.777 192.277L623.281 190.613ZM647.398 181.766C647.398 183.781 646.957 185.387 646.074 186.582C645.199 187.77 643.992 188.363 642.453 188.363C641.227 188.363 640.082 187.906 639.02 186.992V192.629H637.004V175.707H639.02V176.938C639.48 176.492 640.035 176.117 640.684 175.812C641.332 175.508 642.027 175.355 642.77 175.355C644.23 175.355 645.367 175.91 646.18 177.02C646.992 178.121 647.398 179.703 647.398 181.766ZM645.312 181.812C645.312 178.703 644.336 177.148 642.383 177.148C641.742 177.148 641.129 177.309 640.543 177.629C639.957 177.949 639.449 178.316 639.02 178.73V185.234C640.066 186.117 641.121 186.559 642.184 186.559C643.098 186.559 643.848 186.176 644.434 185.41C645.02 184.645 645.312 183.445 645.312 181.812ZM656.902 188C656.121 188.242 655.348 188.363 654.582 188.363C653.332 188.363 652.434 188.035 651.887 187.379C651.348 186.723 651.078 185.691 651.078 184.285V177.395H649.32V175.707H651.078V172.285H653.094V175.707H656.211V177.395H653.094V183.898C653.094 184.891 653.191 185.602 653.387 186.031C653.59 186.461 654.035 186.676 654.723 186.676C655.316 186.676 655.867 186.566 656.375 186.348L656.902 188ZM669.277 181.883C669.277 184.016 668.816 185.629 667.895 186.723C666.98 187.816 665.645 188.363 663.887 188.363C662.129 188.363 660.785 187.824 659.855 186.746C658.926 185.66 658.461 184.039 658.461 181.883C658.461 179.688 658.926 178.051 659.855 176.973C660.793 175.895 662.137 175.355 663.887 175.355C665.652 175.355 666.992 175.906 667.906 177.008C668.82 178.102 669.277 179.727 669.277 181.883ZM667.191 181.883C667.191 180.211 666.914 178.996 666.359 178.238C665.812 177.48 664.988 177.102 663.887 177.102C662.754 177.102 661.914 177.484 661.367 178.25C660.82 179.008 660.547 180.219 660.547 181.883C660.547 183.484 660.809 184.672 661.332 185.445C661.863 186.219 662.715 186.605 663.887 186.605C665.004 186.605 665.832 186.223 666.371 185.457C666.918 184.691 667.191 183.5 667.191 181.883ZM689.539 181.766C689.539 183.781 689.098 185.387 688.215 186.582C687.34 187.77 686.133 188.363 684.594 188.363C683.367 188.363 682.223 187.906 681.16 186.992V192.629H679.145V175.707H681.16V176.938C681.621 176.492 682.176 176.117 682.824 175.812C683.473 175.508 684.168 175.355 684.91 175.355C686.371 175.355 687.508 175.91 688.32 177.02C689.133 178.121 689.539 179.703 689.539 181.766ZM687.453 181.812C687.453 178.703 686.477 177.148 684.523 177.148C683.883 177.148 683.27 177.309 682.684 177.629C682.098 177.949 681.59 178.316 681.16 178.73V185.234C682.207 186.117 683.262 186.559 684.324 186.559C685.238 186.559 685.988 186.176 686.574 185.41C687.16 184.645 687.453 183.445 687.453 181.812ZM699.547 177.699C699.328 177.605 699.016 177.559 698.609 177.559C698.008 177.559 697.426 177.699 696.863 177.98C696.309 178.254 695.66 178.762 694.918 179.504V188H692.902V175.707H694.918V177.699C695.48 177.129 696.07 176.625 696.688 176.188C697.312 175.742 698.004 175.52 698.762 175.52C699.27 175.52 699.676 175.602 699.98 175.766L699.547 177.699ZM711.887 181.883C711.887 184.016 711.426 185.629 710.504 186.723C709.59 187.816 708.254 188.363 706.496 188.363C704.738 188.363 703.395 187.824 702.465 186.746C701.535 185.66 701.07 184.039 701.07 181.883C701.07 179.688 701.535 178.051 702.465 176.973C703.402 175.895 704.746 175.355 706.496 175.355C708.262 175.355 709.602 175.906 710.516 177.008C711.43 178.102 711.887 179.727 711.887 181.883ZM709.801 181.883C709.801 180.211 709.523 178.996 708.969 178.238C708.422 177.48 707.598 177.102 706.496 177.102C705.363 177.102 704.523 177.484 703.977 178.25C703.43 179.008 703.156 180.219 703.156 181.883C703.156 183.484 703.418 184.672 703.941 185.445C704.473 186.219 705.324 186.605 706.496 186.605C707.613 186.605 708.441 186.223 708.98 185.457C709.527 184.691 709.801 183.5 709.801 181.883ZM723.008 188V186.781C722.547 187.227 721.992 187.602 721.344 187.906C720.695 188.211 720.004 188.363 719.27 188.363C717.793 188.363 716.652 187.809 715.848 186.699C715.043 185.582 714.641 184 714.641 181.953C714.641 179.945 715.078 178.344 715.953 177.148C716.828 175.953 718.039 175.355 719.586 175.355C720.828 175.355 721.969 175.809 723.008 176.715V170.551H725.035V188H723.008ZM723.008 178.473C721.938 177.59 720.883 177.148 719.844 177.148C718.93 177.148 718.18 177.535 717.594 178.309C717.016 179.074 716.727 180.273 716.727 181.906C716.727 185.008 717.703 186.559 719.656 186.559C720.297 186.559 720.906 186.398 721.484 186.078C722.07 185.758 722.578 185.391 723.008 184.977V178.473ZM736.648 188V186.172C736.023 186.797 735.336 187.32 734.586 187.742C733.836 188.156 733.102 188.363 732.383 188.363C731.562 188.363 730.895 188.211 730.379 187.906C729.871 187.594 729.5 187.129 729.266 186.512C729.039 185.887 728.926 185.023 728.926 183.922V175.707H730.941V182.961C730.941 184.133 731 184.914 731.117 185.305C731.242 185.695 731.438 185.98 731.703 186.16C731.969 186.332 732.355 186.418 732.863 186.418C733.371 186.418 733.969 186.223 734.656 185.832C735.344 185.434 736.008 184.957 736.648 184.402V175.707H738.664V188H736.648ZM751.895 186.102C751.512 186.758 750.98 187.301 750.301 187.73C749.621 188.152 748.684 188.363 747.488 188.363C745.684 188.363 744.324 187.82 743.41 186.734C742.496 185.641 742.039 184.023 742.039 181.883C742.039 179.742 742.492 178.121 743.398 177.02C744.305 175.91 745.641 175.355 747.406 175.355C749.43 175.355 750.871 176.105 751.73 177.605L750.078 178.613C749.773 178.137 749.414 177.766 749 177.5C748.594 177.234 748.055 177.102 747.383 177.102C746.203 177.102 745.363 177.531 744.863 178.391C744.371 179.242 744.125 180.422 744.125 181.93C744.125 183.078 744.242 183.973 744.477 184.613C744.711 185.254 745.074 185.746 745.566 186.09C746.066 186.434 746.699 186.605 747.465 186.605C748.121 186.605 748.656 186.484 749.07 186.242C749.484 185.992 749.875 185.609 750.242 185.094L751.895 186.102ZM760.871 188C760.09 188.242 759.316 188.363 758.551 188.363C757.301 188.363 756.402 188.035 755.855 187.379C755.316 186.723 755.047 185.691 755.047 184.285V177.395H753.289V175.707H755.047V172.285H757.062V175.707H760.18V177.395H757.062V183.898C757.062 184.891 757.16 185.602 757.355 186.031C757.559 186.461 758.004 186.676 758.691 186.676C759.285 186.676 759.836 186.566 760.344 186.348L760.871 188ZM771.688 184.684C771.688 185.832 771.281 186.734 770.469 187.391C769.656 188.039 768.5 188.363 767 188.363C765.977 188.363 765.059 188.172 764.246 187.789C763.434 187.398 762.84 186.852 762.465 186.148L764.082 185.164C764.699 186.156 765.691 186.652 767.059 186.652C767.949 186.652 768.613 186.484 769.051 186.148C769.496 185.805 769.719 185.344 769.719 184.766C769.719 184.422 769.641 184.145 769.484 183.934C769.328 183.715 769.086 183.527 768.758 183.371C768.43 183.207 767.758 182.988 766.742 182.715C765.281 182.379 764.25 181.914 763.648 181.32C763.055 180.727 762.758 179.938 762.758 178.953C762.758 177.867 763.148 176.996 763.93 176.34C764.711 175.684 765.793 175.355 767.176 175.355C768.246 175.355 769.145 175.566 769.871 175.988C770.598 176.41 771.129 176.918 771.465 177.512L769.859 178.496C769.219 177.535 768.309 177.055 767.129 177.055C766.457 177.055 765.887 177.203 765.418 177.5C764.957 177.797 764.727 178.258 764.727 178.883C764.727 179.438 764.93 179.84 765.336 180.09C765.742 180.34 766.379 180.57 767.246 180.781C768.637 181.141 769.598 181.477 770.129 181.789C770.66 182.102 771.051 182.488 771.301 182.949C771.559 183.402 771.688 183.98 771.688 184.684ZM788.387 188V186.465C787.762 187.012 787.133 187.465 786.5 187.824C785.867 188.184 785.152 188.363 784.355 188.363C783.184 188.363 782.277 188.008 781.637 187.297C781.004 186.578 780.688 185.66 780.688 184.543C780.688 183.699 780.852 183 781.18 182.445C781.516 181.883 781.996 181.441 782.621 181.121C783.254 180.793 784.168 180.559 785.363 180.418L788.387 180.148V179.551C788.387 178.605 788.121 177.961 787.59 177.617C787.066 177.273 786.34 177.102 785.41 177.102C784.582 177.102 783.941 177.246 783.488 177.535C783.043 177.824 782.723 178.137 782.527 178.473L780.875 177.465C781.25 176.785 781.82 176.266 782.586 175.906C783.359 175.539 784.316 175.355 785.457 175.355C787.223 175.355 788.488 175.676 789.254 176.316C790.02 176.957 790.402 178.066 790.402 179.645V188H788.387ZM788.387 181.766L786.418 181.953C785.082 182.07 784.141 182.332 783.594 182.738C783.047 183.137 782.773 183.723 782.773 184.496C782.773 185.23 782.957 185.758 783.324 186.078C783.691 186.398 784.242 186.559 784.977 186.559C785.281 186.559 785.582 186.504 785.879 186.395C786.176 186.277 786.469 186.137 786.758 185.973C787.047 185.801 787.324 185.609 787.59 185.398C787.863 185.18 788.129 184.969 788.387 184.766V181.766ZM794.387 188V170.551H796.402V188H794.387ZM802.812 172.59C802.812 173.059 802.707 173.379 802.496 173.551C802.285 173.715 801.949 173.797 801.488 173.797C800.996 173.797 800.656 173.691 800.469 173.48C800.281 173.27 800.188 172.973 800.188 172.59C800.188 172.176 800.289 171.875 800.492 171.688C800.695 171.492 801.027 171.395 801.488 171.395C801.965 171.395 802.305 171.488 802.508 171.676C802.711 171.855 802.812 172.16 802.812 172.59ZM800.48 188V175.707H802.496V188H800.48ZM816.254 187.73C816.254 189.379 815.844 190.605 815.023 191.41C814.211 192.223 812.859 192.629 810.969 192.629C809.164 192.629 807.676 192.246 806.504 191.48L807.254 189.852C808.309 190.586 809.547 190.953 810.969 190.953C812.117 190.953 812.945 190.711 813.453 190.227C813.969 189.75 814.227 188.961 814.227 187.859V186.418C813.766 186.863 813.215 187.238 812.574 187.543C811.934 187.848 811.238 188 810.488 188C808.98 188 807.832 187.465 807.043 186.395C806.254 185.316 805.859 183.762 805.859 181.73C805.859 179.73 806.301 178.168 807.184 177.043C808.066 175.918 809.273 175.355 810.805 175.355C812.047 175.355 813.188 175.809 814.227 176.715V175.707H816.254V187.73ZM814.227 178.473C813.156 177.59 812.102 177.148 811.062 177.148C810.039 177.148 809.262 177.547 808.73 178.344C808.207 179.141 807.945 180.254 807.945 181.684C807.945 183.262 808.191 184.41 808.684 185.129C809.176 185.84 809.906 186.195 810.875 186.195C812 186.195 813.117 185.668 814.227 184.613V178.473ZM827.961 188V180.758C827.961 179.586 827.902 178.805 827.785 178.414C827.668 178.023 827.477 177.742 827.211 177.57C826.945 177.391 826.559 177.301 826.051 177.301C825.535 177.301 824.934 177.496 824.246 177.887C823.559 178.277 822.895 178.754 822.254 179.316V188H820.238V175.707H822.254V177.535C822.824 176.965 823.488 176.461 824.246 176.023C825.004 175.578 825.766 175.355 826.531 175.355C827.719 175.355 828.59 175.695 829.145 176.375C829.699 177.047 829.977 178.188 829.977 179.797V188H827.961ZM835.344 182.094C835.344 183.719 835.621 184.879 836.176 185.574C836.73 186.262 837.621 186.605 838.848 186.605C839.395 186.605 839.875 186.492 840.289 186.266C840.703 186.031 841.102 185.656 841.484 185.141L843.148 186.172C842.68 186.875 842.109 187.418 841.438 187.801C840.766 188.176 839.855 188.363 838.707 188.363C836.879 188.363 835.512 187.832 834.605 186.77C833.707 185.707 833.258 184.102 833.258 181.953C833.258 179.703 833.695 178.043 834.57 176.973C835.453 175.895 836.781 175.355 838.555 175.355C840.148 175.355 841.344 175.816 842.141 176.738C842.938 177.652 843.336 179.062 843.336 180.969V182.094H835.344ZM841.367 180.512C841.352 179.41 841.117 178.555 840.664 177.945C840.219 177.336 839.492 177.031 838.484 177.031C837.523 177.031 836.801 177.309 836.316 177.863C835.84 178.41 835.523 179.293 835.367 180.512H841.367ZM854.305 188V186.781C853.844 187.227 853.289 187.602 852.641 187.906C851.992 188.211 851.301 188.363 850.566 188.363C849.09 188.363 847.949 187.809 847.145 186.699C846.34 185.582 845.938 184 845.938 181.953C845.938 179.945 846.375 178.344 847.25 177.148C848.125 175.953 849.336 175.355 850.883 175.355C852.125 175.355 853.266 175.809 854.305 176.715V170.551H856.332V188H854.305ZM854.305 178.473C853.234 177.59 852.18 177.148 851.141 177.148C850.227 177.148 849.477 177.535 848.891 178.309C848.312 179.074 848.023 180.273 848.023 181.906C848.023 185.008 849 186.559 850.953 186.559C851.594 186.559 852.203 186.398 852.781 186.078C853.367 185.758 853.875 185.391 854.305 184.977V178.473ZM878.328 188H876.453L873.453 178.59L870.453 188H868.613L865.555 175.707H867.652L869.738 185.07L872.668 175.707H874.344L877.344 185.07L879.336 175.707H881.352L878.328 188ZM886.438 172.59C886.438 173.059 886.332 173.379 886.121 173.551C885.91 173.715 885.574 173.797 885.113 173.797C884.621 173.797 884.281 173.691 884.094 173.48C883.906 173.27 883.812 172.973 883.812 172.59C883.812 172.176 883.914 171.875 884.117 171.688C884.32 171.492 884.652 171.395 885.113 171.395C885.59 171.395 885.93 171.488 886.133 171.676C886.336 171.855 886.438 172.16 886.438 172.59ZM884.105 188V175.707H886.121V188H884.105ZM896.246 188C895.465 188.242 894.691 188.363 893.926 188.363C892.676 188.363 891.777 188.035 891.23 187.379C890.691 186.723 890.422 185.691 890.422 184.285V177.395H888.664V175.707H890.422V172.285H892.438V175.707H895.555V177.395H892.438V183.898C892.438 184.891 892.535 185.602 892.73 186.031C892.934 186.461 893.379 186.676 894.066 186.676C894.66 186.676 895.211 186.566 895.719 186.348L896.246 188ZM906.383 188V180.758C906.383 179.586 906.324 178.809 906.207 178.426C906.098 178.035 905.91 177.75 905.645 177.57C905.379 177.391 904.988 177.301 904.473 177.301C903.957 177.301 903.355 177.496 902.668 177.887C901.98 178.277 901.316 178.754 900.676 179.316V188H898.66V170.551H900.676V177.535C901.246 176.965 901.91 176.461 902.668 176.023C903.426 175.578 904.188 175.355 904.953 175.355C906.141 175.355 907.012 175.695 907.566 176.375C908.121 177.047 908.398 178.188 908.398 179.797V188H906.383ZM930.359 183.242C930.359 184.906 929.828 186.117 928.766 186.875C927.703 187.625 926.188 188 924.219 188H918.934V171.781H923.738C925.723 171.781 927.152 172.066 928.027 172.637C928.91 173.199 929.352 174.145 929.352 175.473C929.352 176.559 929.109 177.387 928.625 177.957C928.148 178.527 927.551 178.922 926.832 179.141C927.902 179.289 928.758 179.684 929.398 180.324C930.039 180.965 930.359 181.938 930.359 183.242ZM927.125 175.953C927.125 175.125 926.867 174.543 926.352 174.207C925.836 173.863 924.918 173.691 923.598 173.691H921.102V178.52H923.492C924.789 178.52 925.719 178.312 926.281 177.898C926.844 177.484 927.125 176.836 927.125 175.953ZM928.109 183.148C928.109 182.477 927.977 181.949 927.711 181.566C927.453 181.176 927.051 180.891 926.504 180.711C925.957 180.531 925.074 180.441 923.855 180.441H921.102V186.031H923.305C924.68 186.031 925.676 185.941 926.293 185.762C926.91 185.574 927.367 185.273 927.664 184.859C927.961 184.438 928.109 183.867 928.109 183.148ZM940.684 188V186.465C940.059 187.012 939.43 187.465 938.797 187.824C938.164 188.184 937.449 188.363 936.652 188.363C935.48 188.363 934.574 188.008 933.934 187.297C933.301 186.578 932.984 185.66 932.984 184.543C932.984 183.699 933.148 183 933.477 182.445C933.812 181.883 934.293 181.441 934.918 181.121C935.551 180.793 936.465 180.559 937.66 180.418L940.684 180.148V179.551C940.684 178.605 940.418 177.961 939.887 177.617C939.363 177.273 938.637 177.102 937.707 177.102C936.879 177.102 936.238 177.246 935.785 177.535C935.34 177.824 935.02 178.137 934.824 178.473L933.172 177.465C933.547 176.785 934.117 176.266 934.883 175.906C935.656 175.539 936.613 175.355 937.754 175.355C939.52 175.355 940.785 175.676 941.551 176.316C942.316 176.957 942.699 178.066 942.699 179.645V188H940.684ZM940.684 181.766L938.715 181.953C937.379 182.07 936.438 182.332 935.891 182.738C935.344 183.137 935.07 183.723 935.07 184.496C935.07 185.23 935.254 185.758 935.621 186.078C935.988 186.398 936.539 186.559 937.273 186.559C937.578 186.559 937.879 186.504 938.176 186.395C938.473 186.277 938.766 186.137 939.055 185.973C939.344 185.801 939.621 185.609 939.887 185.398C940.16 185.18 940.426 184.969 940.684 184.766V181.766ZM954.312 188V180.758C954.312 179.586 954.254 178.805 954.137 178.414C954.02 178.023 953.828 177.742 953.562 177.57C953.297 177.391 952.91 177.301 952.402 177.301C951.887 177.301 951.285 177.496 950.598 177.887C949.91 178.277 949.246 178.754 948.605 179.316V188H946.59V175.707H948.605V177.535C949.176 176.965 949.84 176.461 950.598 176.023C951.355 175.578 952.117 175.355 952.883 175.355C954.07 175.355 954.941 175.695 955.496 176.375C956.051 177.047 956.328 178.188 956.328 179.797V188H954.312ZM967.473 188L963.57 182.48L962.246 183.945V188H960.23V170.551H962.246V181.449L967.238 175.707H969.711L964.812 181.086L969.969 188H967.473ZM972.629 188V170.551H974.645V188H972.629ZM980.188 182.094C980.188 183.719 980.465 184.879 981.02 185.574C981.574 186.262 982.465 186.605 983.691 186.605C984.238 186.605 984.719 186.492 985.133 186.266C985.547 186.031 985.945 185.656 986.328 185.141L987.992 186.172C987.523 186.875 986.953 187.418 986.281 187.801C985.609 188.176 984.699 188.363 983.551 188.363C981.723 188.363 980.355 187.832 979.449 186.77C978.551 185.707 978.102 184.102 978.102 181.953C978.102 179.703 978.539 178.043 979.414 176.973C980.297 175.895 981.625 175.355 983.398 175.355C984.992 175.355 986.188 175.816 986.984 176.738C987.781 177.652 988.18 179.062 988.18 180.969V182.094H980.188ZM986.211 180.512C986.195 179.41 985.961 178.555 985.508 177.945C985.062 177.336 984.336 177.031 983.328 177.031C982.367 177.031 981.645 177.309 981.16 177.863C980.684 178.41 980.367 179.293 980.211 180.512H986.211ZM999.805 184.684C999.805 185.832 999.398 186.734 998.586 187.391C997.773 188.039 996.617 188.363 995.117 188.363C994.094 188.363 993.176 188.172 992.363 187.789C991.551 187.398 990.957 186.852 990.582 186.148L992.199 185.164C992.816 186.156 993.809 186.652 995.176 186.652C996.066 186.652 996.73 186.484 997.168 186.148C997.613 185.805 997.836 185.344 997.836 184.766C997.836 184.422 997.758 184.145 997.602 183.934C997.445 183.715 997.203 183.527 996.875 183.371C996.547 183.207 995.875 182.988 994.859 182.715C993.398 182.379 992.367 181.914 991.766 181.32C991.172 180.727 990.875 179.938 990.875 178.953C990.875 177.867 991.266 176.996 992.047 176.34C992.828 175.684 993.91 175.355 995.293 175.355C996.363 175.355 997.262 175.566 997.988 175.988C998.715 176.41 999.246 176.918 999.582 177.512L997.977 178.496C997.336 177.535 996.426 177.055 995.246 177.055C994.574 177.055 994.004 177.203 993.535 177.5C993.074 177.797 992.844 178.258 992.844 178.883C992.844 179.438 993.047 179.84 993.453 180.09C993.859 180.34 994.496 180.57 995.363 180.781C996.754 181.141 997.715 181.477 998.246 181.789C998.777 182.102 999.168 182.488 999.418 182.949C999.676 183.402 999.805 183.98 999.805 184.684ZM1011.43 184.684C1011.43 185.832 1011.02 186.734 1010.21 187.391C1009.4 188.039 1008.24 188.363 1006.74 188.363C1005.72 188.363 1004.8 188.172 1003.99 187.789C1003.18 187.398 1002.58 186.852 1002.21 186.148L1003.82 185.164C1004.44 186.156 1005.43 186.652 1006.8 186.652C1007.69 186.652 1008.36 186.484 1008.79 186.148C1009.24 185.805 1009.46 185.344 1009.46 184.766C1009.46 184.422 1009.38 184.145 1009.23 183.934C1009.07 183.715 1008.83 183.527 1008.5 183.371C1008.17 183.207 1007.5 182.988 1006.48 182.715C1005.02 182.379 1003.99 181.914 1003.39 181.32C1002.8 180.727 1002.5 179.938 1002.5 178.953C1002.5 177.867 1002.89 176.996 1003.67 176.34C1004.45 175.684 1005.54 175.355 1006.92 175.355C1007.99 175.355 1008.89 175.566 1009.61 175.988C1010.34 176.41 1010.87 176.918 1011.21 177.512L1009.6 178.496C1008.96 177.535 1008.05 177.055 1006.87 177.055C1006.2 177.055 1005.63 177.203 1005.16 177.5C1004.7 177.797 1004.47 178.258 1004.47 178.883C1004.47 179.438 1004.67 179.84 1005.08 180.09C1005.48 180.34 1006.12 180.57 1006.99 180.781C1008.38 181.141 1009.34 181.477 1009.87 181.789C1010.4 182.102 1010.79 182.488 1011.04 182.949C1011.3 183.402 1011.43 183.98 1011.43 184.684ZM1026.42 179.891C1026.42 181.875 1026.16 183.453 1025.64 184.625C1025.14 185.797 1024.35 186.652 1023.28 187.191C1022.21 187.73 1020.71 188 1018.78 188H1014.65V171.781H1018.73C1020.62 171.781 1022.11 172.055 1023.21 172.602C1024.3 173.141 1025.11 174 1025.63 175.18C1026.16 176.359 1026.42 177.93 1026.42 179.891ZM1024.13 179.867C1024.13 178.32 1023.96 177.109 1023.62 176.234C1023.27 175.359 1022.71 174.727 1021.92 174.336C1021.13 173.938 1020.03 173.738 1018.61 173.738H1016.81V186.031H1018.61C1020.04 186.031 1021.13 185.836 1021.91 185.445C1022.69 185.047 1023.25 184.414 1023.61 183.547C1023.96 182.672 1024.13 181.445 1024.13 179.867ZM1027.91 188L1033.45 171.781H1036.26L1041.8 188H1039.52L1038.11 183.781H1031.5L1030.12 188H1027.91ZM1032.16 181.812H1037.43L1034.8 173.914L1032.16 181.812ZM1056.5 179.891C1056.5 182.805 1055.95 184.941 1054.85 186.301C1053.75 187.66 1052.11 188.34 1049.9 188.34C1047.67 188.34 1046.01 187.648 1044.92 186.266C1043.84 184.883 1043.3 182.758 1043.3 179.891C1043.3 177.047 1043.84 174.93 1044.91 173.539C1045.98 172.141 1047.64 171.441 1049.9 171.441C1052.13 171.441 1053.79 172.125 1054.87 173.492C1055.96 174.859 1056.5 176.992 1056.5 179.891ZM1054.23 179.891C1054.23 177.648 1053.89 176 1053.21 174.945C1052.54 173.891 1051.43 173.363 1049.9 173.363C1048.37 173.363 1047.27 173.891 1046.59 174.945C1045.91 176 1045.58 177.648 1045.58 179.891C1045.58 182.148 1045.92 183.801 1046.6 184.848C1047.29 185.895 1048.39 186.418 1049.9 186.418C1051.41 186.418 1052.51 185.898 1053.2 184.859C1053.88 183.82 1054.23 182.164 1054.23 179.891ZM1062.57 173C1062.57 173.961 1062.43 174.836 1062.14 175.625C1061.86 176.406 1061.56 176.98 1061.26 177.348H1060.03C1060.3 177.004 1060.53 176.496 1060.72 175.824C1060.91 175.152 1061.01 174.57 1061.01 174.078C1060.55 174.078 1060.22 173.977 1060.02 173.773C1059.82 173.562 1059.72 173.227 1059.72 172.766C1059.72 172.328 1059.83 172 1060.04 171.781C1060.26 171.555 1060.62 171.441 1061.13 171.441C1061.66 171.441 1062.03 171.574 1062.24 171.84C1062.46 172.098 1062.57 172.484 1062.57 173ZM1074.8 184.684C1074.8 185.832 1074.4 186.734 1073.59 187.391C1072.77 188.039 1071.62 188.363 1070.12 188.363C1069.09 188.363 1068.18 188.172 1067.36 187.789C1066.55 187.398 1065.96 186.852 1065.58 186.148L1067.2 185.164C1067.82 186.156 1068.81 186.652 1070.18 186.652C1071.07 186.652 1071.73 186.484 1072.17 186.148C1072.61 185.805 1072.84 185.344 1072.84 184.766C1072.84 184.422 1072.76 184.145 1072.6 183.934C1072.45 183.715 1072.2 183.527 1071.88 183.371C1071.55 183.207 1070.88 182.988 1069.86 182.715C1068.4 182.379 1067.37 181.914 1066.77 181.32C1066.17 180.727 1065.88 179.938 1065.88 178.953C1065.88 177.867 1066.27 176.996 1067.05 176.34C1067.83 175.684 1068.91 175.355 1070.29 175.355C1071.36 175.355 1072.26 175.566 1072.99 175.988C1073.71 176.41 1074.25 176.918 1074.58 177.512L1072.98 178.496C1072.34 177.535 1071.43 177.055 1070.25 177.055C1069.57 177.055 1069 177.203 1068.54 177.5C1068.07 177.797 1067.84 178.258 1067.84 178.883C1067.84 179.438 1068.05 179.84 1068.45 180.09C1068.86 180.34 1069.5 180.57 1070.36 180.781C1071.75 181.141 1072.71 181.477 1073.25 181.789C1073.78 182.102 1074.17 182.488 1074.42 182.949C1074.68 183.402 1074.8 183.98 1074.8 184.684ZM1089.42 188H1087.43L1083.12 175.707H1085.29L1088.48 185.363L1091.64 175.707H1093.73L1089.42 188ZM1102.94 188V186.465C1102.32 187.012 1101.69 187.465 1101.05 187.824C1100.42 188.184 1099.71 188.363 1098.91 188.363C1097.74 188.363 1096.83 188.008 1096.19 187.297C1095.56 186.578 1095.24 185.66 1095.24 184.543C1095.24 183.699 1095.41 183 1095.73 182.445C1096.07 181.883 1096.55 181.441 1097.18 181.121C1097.81 180.793 1098.72 180.559 1099.92 180.418L1102.94 180.148V179.551C1102.94 178.605 1102.68 177.961 1102.14 177.617C1101.62 177.273 1100.89 177.102 1099.96 177.102C1099.14 177.102 1098.5 177.246 1098.04 177.535C1097.6 177.824 1097.28 178.137 1097.08 178.473L1095.43 177.465C1095.8 176.785 1096.38 176.266 1097.14 175.906C1097.91 175.539 1098.87 175.355 1100.01 175.355C1101.78 175.355 1103.04 175.676 1103.81 176.316C1104.57 176.957 1104.96 178.066 1104.96 179.645V188H1102.94ZM1102.94 181.766L1100.97 181.953C1099.64 182.07 1098.7 182.332 1098.15 182.738C1097.6 183.137 1097.33 183.723 1097.33 184.496C1097.33 185.23 1097.51 185.758 1097.88 186.078C1098.25 186.398 1098.8 186.559 1099.53 186.559C1099.84 186.559 1100.14 186.504 1100.43 186.395C1100.73 186.277 1101.02 186.137 1101.31 185.973C1101.6 185.801 1101.88 185.609 1102.14 185.398C1102.42 185.18 1102.68 184.969 1102.94 184.766V181.766ZM1108.94 188V170.551H1110.96V188H1108.94ZM1122.66 188V186.172C1122.04 186.797 1121.35 187.32 1120.6 187.742C1119.85 188.156 1119.12 188.363 1118.4 188.363C1117.58 188.363 1116.91 188.211 1116.39 187.906C1115.89 187.594 1115.52 187.129 1115.28 186.512C1115.05 185.887 1114.94 185.023 1114.94 183.922V175.707H1116.96V182.961C1116.96 184.133 1117.02 184.914 1117.13 185.305C1117.26 185.695 1117.45 185.98 1117.72 186.16C1117.98 186.332 1118.37 186.418 1118.88 186.418C1119.39 186.418 1119.98 186.223 1120.67 185.832C1121.36 185.434 1122.02 184.957 1122.66 184.402V175.707H1124.68V188H1122.66ZM1130.14 182.094C1130.14 183.719 1130.42 184.879 1130.97 185.574C1131.53 186.262 1132.42 186.605 1133.64 186.605C1134.19 186.605 1134.67 186.492 1135.09 186.266C1135.5 186.031 1135.9 185.656 1136.28 185.141L1137.95 186.172C1137.48 186.875 1136.91 187.418 1136.23 187.801C1135.56 188.176 1134.65 188.363 1133.5 188.363C1131.68 188.363 1130.31 187.832 1129.4 186.77C1128.5 185.707 1128.05 184.102 1128.05 181.953C1128.05 179.703 1128.49 178.043 1129.37 176.973C1130.25 175.895 1131.58 175.355 1133.35 175.355C1134.95 175.355 1136.14 175.816 1136.94 176.738C1137.73 177.652 1138.13 179.062 1138.13 180.969V182.094H1130.14ZM1136.16 180.512C1136.15 179.41 1135.91 178.555 1135.46 177.945C1135.02 177.336 1134.29 177.031 1133.28 177.031C1132.32 177.031 1131.6 177.309 1131.11 177.863C1130.64 178.41 1130.32 179.293 1130.16 180.512H1136.16ZM1149.76 184.684C1149.76 185.832 1149.35 186.734 1148.54 187.391C1147.73 188.039 1146.57 188.363 1145.07 188.363C1144.05 188.363 1143.13 188.172 1142.32 187.789C1141.5 187.398 1140.91 186.852 1140.54 186.148L1142.15 185.164C1142.77 186.156 1143.76 186.652 1145.13 186.652C1146.02 186.652 1146.68 186.484 1147.12 186.148C1147.57 185.805 1147.79 185.344 1147.79 184.766C1147.79 184.422 1147.71 184.145 1147.55 183.934C1147.4 183.715 1147.16 183.527 1146.83 183.371C1146.5 183.207 1145.83 182.988 1144.81 182.715C1143.35 182.379 1142.32 181.914 1141.72 181.32C1141.12 180.727 1140.83 179.938 1140.83 178.953C1140.83 177.867 1141.22 176.996 1142 176.34C1142.78 175.684 1143.86 175.355 1145.25 175.355C1146.32 175.355 1147.21 175.566 1147.94 175.988C1148.67 176.41 1149.2 176.918 1149.54 177.512L1147.93 178.496C1147.29 177.535 1146.38 177.055 1145.2 177.055C1144.53 177.055 1143.96 177.203 1143.49 177.5C1143.03 177.797 1142.8 178.258 1142.8 178.883C1142.8 179.438 1143 179.84 1143.41 180.09C1143.81 180.34 1144.45 180.57 1145.32 180.781C1146.71 181.141 1147.67 181.477 1148.2 181.789C1148.73 182.102 1149.12 182.488 1149.37 182.949C1149.63 183.402 1149.76 183.98 1149.76 184.684Z" fill="white"/>
<path d="M566.398 109.781C565.643 109.677 564.992 109.326 564.445 108.727L563.938 107.789V83.0625C564.38 81.1354 565.578 80.4974 567.531 81.1484L582.219 95.4844L596.672 80.8359L597.219 80.6797H598.508L599.641 81.3047C600.135 81.8776 600.422 82.4766 600.5 83.1016V107.281C600.24 108.922 599.263 109.755 597.57 109.781C596.841 109.677 596.19 109.326 595.617 108.727L595.109 107.555V90.0547L583.312 101.812C582.714 102.203 582.089 102.216 581.438 101.852L568.781 89.7031L569.211 89.0391V107.75C568.924 108.479 568.417 109.078 567.688 109.547L566.398 109.781ZM613.148 109.781C612.784 109.677 612.432 109.547 612.094 109.391C611.755 109.234 611.443 108.961 611.156 108.57L610.766 107.789V82.9844L611.391 81.8516C611.703 81.5391 612.055 81.3177 612.445 81.1875C612.836 81.0573 613.214 80.9922 613.578 80.9922C613.969 81.0703 614.307 81.1745 614.594 81.3047C614.906 81.4349 615.219 81.7083 615.531 82.125L616.039 83.1016V107.633C615.648 108.961 614.685 109.677 613.148 109.781ZM632.594 109.781C630.536 109.625 628.831 108.766 627.477 107.203C626.643 106.057 626.122 104.768 625.914 103.336V101.852C626.305 100.94 626.721 100.341 627.164 100.055C627.607 99.7682 628.258 99.6771 629.117 99.7812C630.471 100.172 631.148 100.797 631.148 101.656C631.148 102.49 631.279 103.128 631.539 103.57C631.826 103.987 632.216 104.273 632.711 104.43H654.039C654.977 104.247 655.797 103.805 656.5 103.102C656.786 102.659 656.982 102.151 657.086 101.578V100.094C657.034 99.3385 656.669 98.6745 655.992 98.1016C655.445 97.6849 654.833 97.4245 654.156 97.3203H634.391C631.786 97.1901 629.521 96.1615 627.594 94.2344C626.682 93.0885 626.122 91.8255 625.914 90.4453V87.8672C626.201 86.0443 627.099 84.4557 628.609 83.1016C630.354 81.8255 632.268 81.1224 634.352 80.9922H655.406C657.411 81.1224 659.13 81.8776 660.562 83.2578C661.839 84.7422 662.477 86.513 662.477 88.5703C662.398 89.2995 662.047 89.9375 661.422 90.4844C660.823 90.901 660.055 91.0833 659.117 91.0312C658.232 90.6146 657.672 90.1458 657.438 89.625C657.203 89.1042 657.06 88.5052 657.008 87.8281C656.956 87.125 656.448 86.6302 655.484 86.3438H634.195C633.206 86.474 632.372 86.8906 631.695 87.5938C631.357 88.1406 631.188 88.7656 631.188 89.4688C631.188 90.0938 631.448 90.6146 631.969 91.0312C632.62 91.526 633.362 91.8255 634.195 91.9297H654.156C656.578 92.1641 658.714 93.2448 660.562 95.1719C661.708 96.6562 662.346 98.3229 662.477 100.172V101.539C662.346 103.935 661.344 105.992 659.469 107.711C657.776 108.961 655.901 109.651 653.844 109.781H632.594ZM678.25 109.781C676.193 109.625 674.487 108.766 673.133 107.203C672.299 106.057 671.779 104.768 671.57 103.336V101.852C671.961 100.94 672.378 100.341 672.82 100.055C673.263 99.7682 673.914 99.6771 674.773 99.7812C676.128 100.172 676.805 100.797 676.805 101.656C676.805 102.49 676.935 103.128 677.195 103.57C677.482 103.987 677.872 104.273 678.367 104.43H699.695C700.633 104.247 701.453 103.805 702.156 103.102C702.443 102.659 702.638 102.151 702.742 101.578V100.094C702.69 99.3385 702.326 98.6745 701.648 98.1016C701.102 97.6849 700.49 97.4245 699.812 97.3203H680.047C677.443 97.1901 675.177 96.1615 673.25 94.2344C672.339 93.0885 671.779 91.8255 671.57 90.4453V87.8672C671.857 86.0443 672.755 84.4557 674.266 83.1016C676.01 81.8255 677.924 81.1224 680.008 80.9922H701.062C703.068 81.1224 704.786 81.8776 706.219 83.2578C707.495 84.7422 708.133 86.513 708.133 88.5703C708.055 89.2995 707.703 89.9375 707.078 90.4844C706.479 90.901 705.711 91.0833 704.773 91.0312C703.888 90.6146 703.328 90.1458 703.094 89.625C702.859 89.1042 702.716 88.5052 702.664 87.8281C702.612 87.125 702.104 86.6302 701.141 86.3438H679.852C678.862 86.474 678.029 86.8906 677.352 87.5938C677.013 88.1406 676.844 88.7656 676.844 89.4688C676.844 90.0938 677.104 90.6146 677.625 91.0312C678.276 91.526 679.018 91.8255 679.852 91.9297H699.812C702.234 92.1641 704.37 93.2448 706.219 95.1719C707.365 96.6562 708.003 98.3229 708.133 100.172V101.539C708.003 103.935 707 105.992 705.125 107.711C703.432 108.961 701.557 109.651 699.5 109.781H678.25ZM720.391 109.781C720.026 109.677 719.674 109.547 719.336 109.391C718.997 109.234 718.685 108.961 718.398 108.57L718.008 107.789V82.9844L718.633 81.8516C718.945 81.5391 719.297 81.3177 719.688 81.1875C720.078 81.0573 720.456 80.9922 720.82 80.9922C721.211 81.0703 721.549 81.1745 721.836 81.3047C722.148 81.4349 722.461 81.7083 722.773 82.125L723.281 83.1016V107.633C722.891 108.961 721.927 109.677 720.391 109.781ZM741.32 109.781C739.055 109.651 737.062 108.74 735.344 107.047C734.172 105.562 733.443 103.818 733.156 101.812V88.8828C733.443 86.7474 734.393 84.8203 736.008 83.1016C737.596 81.8255 739.354 81.1224 741.281 80.9922H761.203C763.703 81.2266 765.839 82.2682 767.609 84.1172C768.885 85.7318 769.589 87.5677 769.719 89.625V101.148C769.589 103.727 768.56 105.94 766.633 107.789C765.122 108.987 763.404 109.651 761.477 109.781H741.32ZM763.078 103.805C763.755 103.128 764.172 102.333 764.328 101.422V89.4688C764.276 88.6094 763.911 87.8672 763.234 87.2422C762.635 86.7734 761.997 86.474 761.32 86.3438H741.242C740.565 86.3958 739.979 86.6823 739.484 87.2031C738.885 87.9062 738.534 88.7396 738.43 89.7031V101.109C738.534 102.125 738.951 103.01 739.68 103.766C740.174 104.156 740.734 104.378 741.359 104.43H761.438L763.078 103.805ZM781.664 109.781C780.909 109.677 780.258 109.326 779.711 108.727L779.203 107.789V83.1016C779.464 81.2005 780.479 80.5104 782.25 81.0312L810.375 101.656V83.2188L811.273 81.6953C811.924 81.2266 812.628 80.9922 813.383 80.9922C814.737 81.3307 815.531 82.1771 815.766 83.5312V107.281C815.427 109.443 814.229 110.12 812.172 109.312L784.477 88.9609V107.75C784.19 108.479 783.682 109.078 782.953 109.547L781.664 109.781Z" fill="white"/>
</svg>
