<svg width="1272" height="75" viewBox="0 0 1272 75" fill="none" xmlns="http://www.w3.org/2000/svg">
<path d="M1261.73 1H23.0839C20.4317 1 17.9464 2.05357 16.0711 3.92893L3.92893 16.0711C2.05357 17.9464 1 20.4898 1 23.1419V64.0011C1 69.5239 5.47712 74 11 74H1249.86C1252.51 74 1255.05 72.9464 1256.93 71.0711L1268.57 59.4289C1270.45 57.5536 1271.5 55.01 1271.5 52.3579V11C1271.5 5.47715 1267.25 1 1261.73 1Z" fill="#EF2E65" fill-opacity="0.5" stroke="#FFFCFC" stroke-width="0.5"/>
<path d="M446.138 46.9883C445.926 46.9232 445.723 46.8499 445.527 46.7686C445.332 46.6872 445.145 46.5407 444.966 46.3291L444.648 45.7432V36.6855C444.86 35.888 445.283 35.4567 445.918 35.3916H460.664C461.25 35.2614 461.632 35.0986 461.812 34.9033C462.007 34.6917 462.129 34.4557 462.178 34.1953C462.243 33.9186 462.251 33.6501 462.202 33.3896C462.007 32.6572 461.567 32.2259 460.884 32.0957H445.967L445.088 31.6074C444.893 31.347 444.762 31.1029 444.697 30.875C444.632 30.6309 444.616 30.3542 444.648 30.0449C444.909 29.3288 445.324 28.9137 445.894 28.7998H461.348C461.934 28.9463 462.479 29.1497 462.983 29.4102C463.488 29.6543 463.952 30.0124 464.375 30.4844C464.831 31.0378 465.156 31.6481 465.352 32.3154C465.547 32.9665 465.596 33.6663 465.498 34.415C465.4 34.8382 465.27 35.237 465.107 35.6113C464.945 35.9694 464.831 36.1891 464.766 36.2705C465.059 36.417 465.449 36.7262 465.938 37.1982C466.426 37.654 466.808 38.1829 467.085 38.7852C467.231 39.2083 467.337 39.6315 467.402 40.0547C467.467 40.4616 467.5 40.8848 467.5 41.3242C467.467 42.1217 467.288 42.8704 466.963 43.5703C466.637 44.2539 466.149 44.8724 465.498 45.4258C464.863 45.9303 464.163 46.2965 463.398 46.5244C462.65 46.7523 461.893 46.9069 461.128 46.9883H446.138ZM463.081 43.0576C463.276 42.9437 463.464 42.7809 463.643 42.5693C463.838 42.3415 463.96 42.138 464.009 41.959L464.131 40.4941C464.115 40.3314 464.041 40.1523 463.911 39.957C463.781 39.7617 463.626 39.5827 463.447 39.4199C463.138 39.1921 462.796 39.0212 462.422 38.9072C462.064 38.7933 461.681 38.7201 461.274 38.6875H447.944V43.6436H461.348C461.641 43.611 461.925 43.5459 462.202 43.4482C462.479 43.3343 462.772 43.2041 463.081 43.0576ZM492.935 47.1104C492.707 47.0615 492.487 46.9964 492.275 46.915C492.064 46.8499 491.86 46.7197 491.665 46.5244L488.784 42.1055H477.529L474.526 46.6709C473.501 47.2731 472.695 47.208 472.109 46.4756C471.947 46.264 471.849 46.0443 471.816 45.8164C471.768 45.5723 471.768 45.2956 471.816 44.9863L475.137 39.6885C475.397 38.9886 475.91 38.7038 476.675 38.834L486.587 38.8096L481.729 31.5342C481.354 30.5902 481.501 29.8577 482.168 29.3369C482.852 28.751 483.592 28.8079 484.39 29.5078L494.375 44.4492C494.701 45.0189 494.709 45.6292 494.399 46.2803C494.041 46.6709 493.765 46.8988 493.569 46.9639C493.39 47.029 493.179 47.0778 492.935 47.1104ZM501.548 46.9883C501.076 46.9232 500.669 46.7035 500.327 46.3291L500.01 45.7432V30.3135C500.173 29.1253 500.807 28.694 501.914 29.0195L519.492 41.9102V30.3867L520.054 29.4346C520.461 29.1416 520.9 28.9951 521.372 28.9951C522.218 29.2067 522.715 29.7357 522.861 30.582V45.4258C522.65 46.7767 521.901 47.1999 520.615 46.6953L503.306 33.9756V45.7188C503.127 46.1745 502.809 46.5488 502.354 46.8418L501.548 46.9883ZM530.571 46.9883C530.099 46.9232 529.692 46.7035 529.351 46.3291L529.033 45.7432V30.2646C529.359 29.4997 529.937 29.0765 530.767 28.9951C531.287 29.0439 531.727 29.2881 532.085 29.7275L532.329 30.2402V45.7188C532.15 46.1745 531.833 46.5488 531.377 46.8418L530.571 46.9883ZM549.98 46.9883L534.331 38.6631C533.599 37.8005 533.647 36.9867 534.478 36.2217L550.298 28.9951C551.291 29.1253 551.82 29.695 551.885 30.7041C551.934 31.2249 551.722 31.6481 551.25 31.9736L539.312 37.6133L551.665 44.4736C552.056 45.32 551.934 46.028 551.299 46.5977C550.908 46.8581 550.469 46.9883 549.98 46.9883ZM558.887 46.9883C558.431 46.9232 558.032 46.7035 557.69 46.3291L557.373 45.7432V30.2646C557.747 29.4183 558.333 28.9951 559.131 28.9951C559.635 29.0439 560.067 29.2881 560.425 29.7275L560.669 30.2402V43.6436H578.784C579.647 43.8714 580.127 44.4655 580.225 45.4258C580.013 46.321 579.484 46.8418 578.638 46.9883H558.887ZM586.958 46.9883C586.746 46.9232 586.543 46.8499 586.348 46.7686C586.152 46.6872 585.965 46.5407 585.786 46.3291L585.469 45.7432V37.1494C585.68 36.417 586.152 35.9775 586.885 35.8311H605L605.879 36.3193C606.058 36.5798 606.188 36.832 606.27 37.0762C606.367 37.304 606.375 37.597 606.294 37.9551L605.903 38.6875C605.708 38.8177 605.537 38.9235 605.391 39.0049C605.244 39.07 605.057 39.1351 604.829 39.2002H588.765V43.6436H606.855C607.783 43.79 608.271 44.3841 608.32 45.4258C608.158 46.321 607.629 46.8418 606.733 46.9883H586.958ZM586.836 32.3398L585.908 31.9004C585.713 31.6237 585.583 31.3633 585.518 31.1191C585.452 30.875 585.436 30.5739 585.469 30.2158C585.811 29.516 586.315 29.109 586.982 28.9951H606.807C607.767 29.1416 608.271 29.7275 608.32 30.7529C608.271 30.9971 608.206 31.2087 608.125 31.3877C608.044 31.5667 607.905 31.7539 607.71 31.9492L606.929 32.3398H586.836ZM617.446 46.9883C616.16 46.8906 615.094 46.3535 614.248 45.377C613.727 44.6608 613.402 43.8551 613.271 42.96V42.0322C613.516 41.4626 613.776 41.0882 614.053 40.9092C614.329 40.7301 614.736 40.6732 615.273 40.7383C616.12 40.9824 616.543 41.373 616.543 41.9102C616.543 42.431 616.624 42.8298 616.787 43.1064C616.966 43.3669 617.21 43.5459 617.52 43.6436H630.85C631.436 43.5296 631.948 43.2529 632.388 42.8135C632.567 42.5368 632.689 42.2194 632.754 41.8613V40.9336C632.721 40.4616 632.493 40.0465 632.07 39.6885C631.729 39.4281 631.346 39.2653 630.923 39.2002H618.569C616.942 39.1188 615.526 38.4759 614.321 37.2715C613.752 36.5553 613.402 35.766 613.271 34.9033V33.292C613.451 32.1527 614.012 31.1598 614.956 30.3135C616.047 29.516 617.243 29.0765 618.545 28.9951H631.704C632.957 29.0765 634.032 29.5485 634.927 30.4111C635.724 31.3389 636.123 32.4456 636.123 33.7314C636.074 34.1872 635.854 34.5859 635.464 34.9277C635.09 35.1882 634.609 35.3021 634.023 35.2695C633.47 35.0091 633.12 34.7161 632.974 34.3906C632.827 34.0651 632.738 33.6908 632.705 33.2676C632.673 32.8281 632.355 32.5189 631.753 32.3398H618.447C617.829 32.4212 617.308 32.6816 616.885 33.1211C616.673 33.4629 616.567 33.8535 616.567 34.293C616.567 34.6836 616.73 35.0091 617.056 35.2695C617.463 35.5788 617.926 35.766 618.447 35.8311H630.923C632.437 35.9775 633.771 36.653 634.927 37.8574C635.643 38.7852 636.042 39.8268 636.123 40.9824V41.8369C636.042 43.3343 635.415 44.6201 634.243 45.6943C633.185 46.4756 632.013 46.9069 630.728 46.9883H617.446ZM645.981 46.9883C644.696 46.8906 643.63 46.3535 642.783 45.377C642.262 44.6608 641.937 43.8551 641.807 42.96V42.0322C642.051 41.4626 642.311 41.0882 642.588 40.9092C642.865 40.7301 643.271 40.6732 643.809 40.7383C644.655 40.9824 645.078 41.373 645.078 41.9102C645.078 42.431 645.16 42.8298 645.322 43.1064C645.501 43.3669 645.745 43.5459 646.055 43.6436H659.385C659.971 43.5296 660.483 43.2529 660.923 42.8135C661.102 42.5368 661.224 42.2194 661.289 41.8613V40.9336C661.257 40.4616 661.029 40.0465 660.605 39.6885C660.264 39.4281 659.881 39.2653 659.458 39.2002H647.104C645.477 39.1188 644.061 38.4759 642.856 37.2715C642.287 36.5553 641.937 35.766 641.807 34.9033V33.292C641.986 32.1527 642.547 31.1598 643.491 30.3135C644.582 29.516 645.778 29.0765 647.08 28.9951H660.239C661.493 29.0765 662.567 29.5485 663.462 30.4111C664.259 31.3389 664.658 32.4456 664.658 33.7314C664.609 34.1872 664.39 34.5859 663.999 34.9277C663.625 35.1882 663.145 35.3021 662.559 35.2695C662.005 35.0091 661.655 34.7161 661.509 34.3906C661.362 34.0651 661.273 33.6908 661.24 33.2676C661.208 32.8281 660.89 32.5189 660.288 32.3398H646.982C646.364 32.4212 645.843 32.6816 645.42 33.1211C645.208 33.4629 645.103 33.8535 645.103 34.293C645.103 34.6836 645.265 35.0091 645.591 35.2695C645.998 35.5788 646.462 35.766 646.982 35.8311H659.458C660.972 35.9775 662.306 36.653 663.462 37.8574C664.178 38.7852 664.577 39.8268 664.658 40.9824V41.8369C664.577 43.3343 663.95 44.6201 662.778 45.6943C661.72 46.4756 660.549 46.9069 659.263 46.9883H645.981ZM696.631 46.9883C696.175 46.9232 695.776 46.7035 695.435 46.3291L695.117 45.7432V30.2646C695.492 29.4183 696.077 28.9951 696.875 28.9951C697.38 29.0439 697.811 29.2881 698.169 29.7275L698.413 30.2402V43.6436H716.528C717.391 43.8714 717.871 44.4655 717.969 45.4258C717.757 46.321 717.228 46.8418 716.382 46.9883H696.631ZM728.022 46.9883C726.606 46.9069 725.361 46.3372 724.287 45.2793C723.555 44.3516 723.099 43.2611 722.92 42.0078V33.9268C723.099 32.5921 723.693 31.3877 724.702 30.3135C725.695 29.516 726.794 29.0765 727.998 28.9951H740.449C742.012 29.1416 743.346 29.7926 744.453 30.9482C745.251 31.9574 745.69 33.1048 745.771 34.3906V41.5928C745.69 43.2041 745.047 44.5876 743.843 45.7432C742.899 46.4919 741.825 46.9069 740.62 46.9883H728.022ZM741.621 43.2529C742.044 42.8298 742.305 42.3333 742.402 41.7637V34.293C742.37 33.7559 742.142 33.292 741.719 32.9014C741.344 32.6084 740.946 32.4212 740.522 32.3398H727.974C727.55 32.3724 727.184 32.5514 726.875 32.877C726.501 33.3164 726.281 33.8372 726.216 34.4395V41.5684C726.281 42.2031 726.541 42.7565 726.997 43.2285C727.306 43.4727 727.656 43.611 728.047 43.6436H740.596L741.621 43.2529ZM771.938 47.1104C771.711 47.0615 771.491 46.9964 771.279 46.915C771.068 46.8499 770.864 46.7197 770.669 46.5244L767.788 42.1055H756.533L753.53 46.6709C752.505 47.2731 751.699 47.208 751.113 46.4756C750.951 46.264 750.853 46.0443 750.82 45.8164C750.771 45.5723 750.771 45.2956 750.82 44.9863L754.141 39.6885C754.401 38.9886 754.914 38.7038 755.679 38.834L765.591 38.8096L760.732 31.5342C760.358 30.5902 760.505 29.8577 761.172 29.3369C761.855 28.751 762.596 28.8079 763.394 29.5078L773.379 44.4492C773.704 45.0189 773.713 45.6292 773.403 46.2803C773.045 46.6709 772.769 46.8988 772.573 46.9639C772.394 47.029 772.183 47.0778 771.938 47.1104ZM780.552 46.9883C780.08 46.9232 779.673 46.7035 779.331 46.3291L779.014 45.7432V30.3135C779.176 29.1253 779.811 28.694 780.918 29.0195L798.496 41.9102V30.3867L799.058 29.4346C799.465 29.1416 799.904 28.9951 800.376 28.9951C801.222 29.2067 801.719 29.7357 801.865 30.582V45.4258C801.654 46.7767 800.905 47.1999 799.619 46.6953L782.31 33.9756V45.7188C782.131 46.1745 781.813 46.5488 781.357 46.8418L780.552 46.9883ZM811.968 46.9883C810.682 46.8906 809.616 46.3535 808.77 45.377C808.249 44.6608 807.923 43.8551 807.793 42.96V42.0322C808.037 41.4626 808.298 41.0882 808.574 40.9092C808.851 40.7301 809.258 40.6732 809.795 40.7383C810.641 40.9824 811.064 41.373 811.064 41.9102C811.064 42.431 811.146 42.8298 811.309 43.1064C811.488 43.3669 811.732 43.5459 812.041 43.6436H825.371C825.957 43.5296 826.47 43.2529 826.909 42.8135C827.088 42.5368 827.21 42.2194 827.275 41.8613V40.9336C827.243 40.4616 827.015 40.0465 826.592 39.6885C826.25 39.4281 825.868 39.2653 825.444 39.2002H813.091C811.463 39.1188 810.047 38.4759 808.843 37.2715C808.273 36.5553 807.923 35.766 807.793 34.9033V33.292C807.972 32.1527 808.534 31.1598 809.478 30.3135C810.568 29.516 811.764 29.0765 813.066 28.9951H826.226C827.479 29.0765 828.553 29.5485 829.448 30.4111C830.246 31.3389 830.645 32.4456 830.645 33.7314C830.596 34.1872 830.376 34.5859 829.985 34.9277C829.611 35.1882 829.131 35.3021 828.545 35.2695C827.992 35.0091 827.642 34.7161 827.495 34.3906C827.349 34.0651 827.259 33.6908 827.227 33.2676C827.194 32.8281 826.877 32.5189 826.274 32.3398H812.969C812.35 32.4212 811.829 32.6816 811.406 33.1211C811.195 33.4629 811.089 33.8535 811.089 34.293C811.089 34.6836 811.252 35.0091 811.577 35.2695C811.984 35.5788 812.448 35.766 812.969 35.8311H825.444C826.958 35.9775 828.293 36.653 829.448 37.8574C830.164 38.7852 830.563 39.8268 830.645 40.9824V41.8369C830.563 43.3343 829.937 44.6201 828.765 45.6943C827.707 46.4756 826.535 46.9069 825.249 46.9883H811.968Z" fill="white"/>
<path d="M1111.64 44.9043L1111.04 44.5C1110.95 44.418 1110.89 44.3125 1110.85 44.1836C1110.8 44.043 1110.78 43.9199 1110.78 43.8145C1110.78 43.709 1110.78 43.5801 1110.78 43.4277L1112.93 39.9648L1113.47 39.6484H1119.13L1116.44 35.7285C1116.27 35.084 1116.38 34.6035 1116.79 34.2871C1116.88 34.2051 1116.98 34.1406 1117.11 34.0938C1117.24 34.0469 1117.36 34.0234 1117.46 34.0234C1117.57 34.0234 1117.67 34.0176 1117.78 34.0059C1117.89 33.9824 1118.17 34.1289 1118.6 34.4453L1124.46 43.4102C1124.38 44.0898 1124.26 44.4941 1124.11 44.623C1123.96 44.752 1123.82 44.8281 1123.68 44.8516C1123.55 44.8867 1123.43 44.9043 1123.3 44.9043C1123.18 44.9043 1123.04 44.9043 1122.89 44.9043L1122.26 44.5L1120.73 42.0391H1114.4L1112.79 44.5703C1112.66 44.6641 1112.54 44.7402 1112.43 44.7988C1112.34 44.8691 1112.22 44.9043 1112.08 44.9043C1111.94 44.9043 1111.79 44.9043 1111.64 44.9043ZM1131.1 44.8516C1130.83 44.8164 1130.56 44.7578 1130.29 44.6758C1130.02 44.5938 1129.76 44.4883 1129.5 44.3594C1129.25 44.2305 1129.02 44.0605 1128.81 43.8496C1128.67 43.6738 1128.54 43.498 1128.43 43.3223C1128.31 43.1348 1128.22 42.9414 1128.14 42.7422C1128.07 42.5312 1128.03 42.3145 1128 42.0918V37.1523C1128.07 36.8594 1128.16 36.5664 1128.25 36.2734C1128.34 35.9688 1128.47 35.6816 1128.64 35.4121C1128.81 35.1426 1129.04 34.9023 1129.32 34.6914C1129.5 34.5859 1129.66 34.4922 1129.8 34.4102C1129.94 34.3281 1130.1 34.2578 1130.27 34.1992C1130.46 34.1289 1130.65 34.0703 1130.85 34.0234H1139.27C1139.49 34.0703 1139.71 34.1348 1139.92 34.2168C1140.14 34.2988 1140.35 34.4043 1140.54 34.5332C1140.73 34.6504 1140.91 34.791 1141.08 34.9551C1141.27 35.166 1141.41 35.3828 1141.5 35.6055C1141.61 35.8281 1141.69 36.0684 1141.73 36.3262C1141.78 36.584 1141.79 36.8711 1141.77 37.1875L1141.36 37.7852C1141.27 37.8906 1141.16 37.9668 1141.03 38.0137C1140.9 38.0605 1140.77 38.084 1140.64 38.084C1140.53 38.084 1140.4 38.084 1140.27 38.084C1139.92 37.9434 1139.69 37.791 1139.57 37.627C1139.45 37.4629 1139.39 37.2988 1139.39 37.1348C1139.39 36.9707 1139.39 36.8477 1139.38 36.7656C1139.37 36.6719 1139.33 36.5957 1139.27 36.5371C1139.23 36.4785 1139.12 36.4375 1138.96 36.4141H1131.29C1131.21 36.4375 1131.13 36.4551 1131.05 36.4668C1130.98 36.4785 1130.91 36.5078 1130.85 36.5547C1130.79 36.5898 1130.75 36.6309 1130.71 36.6777C1130.65 36.7715 1130.6 36.8594 1130.55 36.9414C1130.52 37.0234 1130.48 37.1172 1130.45 37.2227C1130.42 37.3164 1130.4 37.4102 1130.38 37.5039V41.6523L1130.62 42.25C1130.64 42.2617 1130.66 42.2852 1130.71 42.3203C1130.77 42.3555 1130.83 42.3789 1130.89 42.3906C1130.96 42.4023 1131.03 42.4199 1131.1 42.4434H1139.01C1139.11 42.3965 1139.17 42.332 1139.18 42.25C1139.2 42.168 1139.21 42.0566 1139.22 41.916C1139.24 41.7637 1139.28 41.6055 1139.34 41.4414C1139.41 41.2773 1139.52 41.1426 1139.68 41.0371C1139.76 40.9434 1139.86 40.8789 1139.98 40.8438C1140.1 40.7969 1140.22 40.7734 1140.33 40.7734C1140.44 40.7734 1140.57 40.7734 1140.71 40.7734L1141.29 41.1074C1141.45 41.2598 1141.54 41.418 1141.57 41.582C1141.61 41.7344 1141.63 41.8867 1141.63 42.0391C1141.63 42.1914 1141.63 42.332 1141.63 42.4609C1141.58 42.6836 1141.52 42.8828 1141.45 43.0586C1141.39 43.2344 1141.31 43.4043 1141.21 43.5684C1141.11 43.7324 1140.99 43.9023 1140.84 44.0781C1140.66 44.2305 1140.48 44.3652 1140.29 44.4824C1140.1 44.5879 1139.9 44.6641 1139.68 44.7109C1139.45 44.7695 1139.25 44.8164 1139.06 44.8516H1131.1ZM1152.05 44.8516C1151.94 44.8164 1151.84 44.7871 1151.73 44.7637C1151.64 44.752 1151.54 44.6934 1151.43 44.5879C1151.34 44.4941 1151.26 44.4062 1151.19 44.3242L1150.99 43.9551V36.4141H1146.25L1145.65 36.0098C1145.56 35.916 1145.49 35.8047 1145.46 35.6758C1145.41 35.5352 1145.39 35.4121 1145.39 35.3066C1145.39 35.2012 1145.39 35.0898 1145.39 34.9727C1145.54 34.4219 1145.85 34.1055 1146.32 34.0234H1158.06C1158.54 34.2109 1158.82 34.416 1158.89 34.6387C1158.96 34.8496 1158.99 35.0137 1158.99 35.1309C1158.99 35.2363 1158.99 35.3535 1158.99 35.4824C1158.84 35.9512 1158.53 36.2617 1158.06 36.4141H1153.37V43.8848C1153.23 44.5176 1152.79 44.8398 1152.05 44.8516ZM1164.09 44.8516C1163.5 44.8398 1163.11 44.5352 1162.91 43.9375V34.9551C1163.05 34.5215 1163.24 34.2578 1163.47 34.1641C1163.7 34.0703 1163.87 34.0234 1163.98 34.0234C1164.1 34.0234 1164.21 34.0234 1164.33 34.0234C1164.92 34.1992 1165.23 34.5215 1165.28 34.9902V43.9199C1165.1 44.5059 1164.71 44.8164 1164.09 44.8516ZM1175.91 44.8516C1175.81 44.8164 1175.7 44.7871 1175.6 44.7637C1175.5 44.752 1175.4 44.6934 1175.3 44.5879C1175.2 44.4824 1175.09 44.3418 1174.94 44.166L1169.37 35.7988C1169.14 35.0723 1169.28 34.5273 1169.79 34.1641C1170.03 34.0703 1170.28 34.0176 1170.53 34.0059C1170.79 33.9941 1171.07 34.1465 1171.36 34.4629L1176.07 41.4238L1180.53 34.709C1181.05 33.9238 1181.71 33.7891 1182.5 34.3047C1182.96 34.8555 1183.01 35.3887 1182.64 35.9043L1177.12 44.2012C1176.78 44.6465 1176.38 44.8633 1175.91 44.8516ZM1187.65 44.8516C1187.58 44.8047 1187.49 44.7754 1187.39 44.7637C1187.28 44.752 1187.18 44.7051 1187.09 44.623C1187.01 44.541 1186.92 44.4648 1186.84 44.3945L1186.61 43.9551V38.875C1186.79 38.2539 1187.16 37.9434 1187.72 37.9434H1198.06C1198.13 37.9785 1198.21 38.0078 1198.32 38.0312C1198.44 38.043 1198.54 38.0898 1198.64 38.1719C1198.73 38.2539 1198.81 38.3301 1198.87 38.4004C1198.96 38.4941 1199.02 38.5938 1199.04 38.6992C1199.06 38.8047 1199.08 38.9102 1199.09 39.0156C1199.11 39.1211 1199.11 39.2441 1199.11 39.3848C1198.94 39.9121 1198.59 40.2344 1198.07 40.3516H1188.99V42.4434H1199.25C1199.6 42.5605 1199.81 42.6777 1199.88 42.7949C1199.97 42.9004 1200.03 43.0117 1200.08 43.1289C1200.14 43.2344 1200.18 43.3457 1200.2 43.4629C1200.22 43.5801 1200.24 43.7207 1200.24 43.8848C1200.06 44.4238 1199.7 44.7461 1199.15 44.8516H1187.65ZM1187.49 36.4141L1186.89 36.0098C1186.79 35.916 1186.71 35.8047 1186.67 35.6758C1186.63 35.5352 1186.61 35.4121 1186.61 35.3066C1186.61 35.2012 1186.61 35.0898 1186.61 34.9727C1186.77 34.4219 1187.08 34.1055 1187.56 34.0234H1199.3C1199.68 34.1875 1199.91 34.3281 1199.99 34.4453C1200.07 34.5508 1200.13 34.668 1200.17 34.7969C1200.21 34.9141 1200.24 35.0254 1200.24 35.1309C1200.24 35.2363 1200.24 35.3535 1200.24 35.4824C1200.08 35.9512 1199.77 36.2617 1199.3 36.4141H1187.49Z" fill="#23FF61"/>
</svg>
